<?xml version="1.0" encoding="UTF-8" standalone="no"?>
<!-- Created with Inkscape (http://www.inkscape.org/) -->
<svg
   xmlns:svg="http://www.w3.org/2000/svg"
   xmlns="http://www.w3.org/2000/svg"
   version="1.0"
   width="1015.1388"
   height="903.30023"
   id="svg2">
  <defs
     id="defs5" />
  <path
     d="M 430.04684,898.21939 C 429.82473,898.02589 397.78455,897.56292 358.847,897.19043 C 169.09685,895.37529 136.06567,894.81861 119.23065,893.15191 L 106.80081,891.9212 L 107.08014,824.87026 L 107.35848,757.8193 L 104.43858,755.63256 C 101.56837,753.48294 101.40072,753.47706 94.623172,755.2833 C 88.039002,757.03751 87.582332,757.03535 84.510252,755.23627 C 81.293932,753.35225 81.292642,753.35251 78.849462,756.40178 C 76.772542,758.9953 75.955372,759.32858 73.390292,758.62831 C 71.732352,758.17539 66.333112,757.67423 61.393934,757.51464 C 56.453548,757.35503 51.602816,757.1539 50.614513,757.0678 C 49.624703,756.98164 47.424784,757.94069 45.721193,759.199 C 43.058835,761.16739 42.277409,761.30361 40.123149,760.17423 C 35.738887,757.87607 23.352843,744.06946 23.352843,741.47988 C 23.352843,739.06847 22.847593,738.79413 18.121263,738.64193 C 15.858389,738.56894 15.540062,738.08334 15.602928,734.78981 C 15.642255,732.71702 16.162759,730.10182 16.756804,728.97808 C 17.350848,727.85445 18.369868,711.71909 19.021107,693.12173 C 19.673104,674.5243 20.661072,652.4135 21.219598,643.98662 C 21.776504,635.55963 22.487983,619.15486 22.800092,607.53145 C 23.113069,595.90805 23.843945,577.36362 24.423062,566.32132 C 25.002948,555.27915 25.946139,533.64385 26.51862,518.2429 C 27.561057,490.17412 28.368288,470.34293 31.267047,401.48091 C 32.123645,381.14001 33.092976,356.41396 33.420672,346.53415 C 33.749451,336.65422 34.495893,320.52536 35.079374,310.69208 C 36.156996,292.53477 36.051654,290.6249 32.265255,259.88723 C 31.406715,252.91319 29.311156,234.84409 27.607677,219.73377 C 23.925762,187.07175 17.731047,133.28832 15.436685,114.06677 C 14.534774,106.51164 13.108107,94.148537 12.265245,86.593415 C 11.422171,79.038222 9.3017774,60.255875 7.5528734,44.854976 C 5.8039604,29.454 5.0112114,12.893531 4.9999904,10.423524 C 88.658762,11.907765 176.73697,12.226062 261.10428,12.733468 C 488.66369,14.02176 546.74828,13.853677 680.07377,11.520551 C 696.34642,11.235828 738.4283,10.078721 773.58897,8.9491966 C 808.74964,7.8196506 846.55199,6.6353526 857.59419,6.3172506 C 868.63639,5.9992146 882.18815,5.4839546 887.70929,5.1722146 C 893.23036,4.8605396 898.28085,4.9837596 898.93261,5.4459996 C 901.80602,7.4841286 909.8993,21.636959 909.8993,24.623609 C 909.8993,28.541211 911.21273,29.895487 918.16674,33.14809 L 923.636,35.706165 L 923.636,48.268876 L 923.636,60.831487 L 918.53186,66.315769 C 915.64206,69.420752 912.40723,74.368424 911.07562,77.720263 C 908.83953,83.348585 908.28839,83.884741 899.89785,88.594384 C 890.81049,93.695152 889.82259,94.780348 889.82259,99.661681 C 889.82259,102.01931 888.3986,103.53017 881.67811,108.3035 C 874.38236,113.48533 873.05941,114.98246 868.98312,122.66962 C 866.30546,127.7192 864.70274,131.95502 865.08897,132.96147 C 865.87831,135.01832 869.59381,135.10626 894.88263,133.6666 C 904.59476,133.11367 917.29598,132.42062 923.10768,132.12645 C 928.91937,131.8323 944.88431,131.01883 958.58525,130.3188 C 979.43335,129.25352 984.30185,129.28393 988.43625,130.50457 C 992.90645,131.82452 993.37625,132.26676 993.37625,135.15549 C 993.37625,137.7706 994.96565,139.88444 1002.166,146.84577 C 1007.2873,151.7972 1010.5936,155.77085 1010.0879,156.36703 C 1003.1439,164.55442 1003.3042,164.46162 999.12435,162.71514 C 990.19435,158.98397 988.70175,162.32434 995.48955,170.84952 C 997.81425,173.76924 999.71625,176.53028 999.71625,176.9853 C 999.71625,177.44024 997.70355,179.29269 995.24355,181.10177 C 991.34795,183.96661 990.19825,184.30519 986.33325,183.72556 L 981.89555,183.06014 L 979.44675,188.12595 C 976.19515,194.85258 973.25435,196.73302 963.78948,198.13799 C 959.43073,198.78501 954.73664,200.03478 953.35823,200.91525 C 951.12934,202.33901 950.92485,203.0477 951.51039,207.31995 C 952.61781,215.39922 956.92727,218.3146 963.28228,215.28418 C 967.74965,213.15389 969.00725,214.04758 969.79375,219.9111 L 970.34795,224.04274 L 960.46449,229.82559 C 952.39109,234.54936 950.52186,236.11752 950.25772,238.38785 C 950.01375,240.48519 950.72688,241.73164 953.16357,243.46667 C 956.62193,245.92927 957.11891,248.15575 955.16646,252.44075 C 954.10752,254.76497 953.26774,255.13224 949.01064,255.13224 C 945.11873,255.13224 943.55874,254.57611 941.59939,252.49046 C 938.89641,249.61331 936.39571,249.13515 934.41409,251.11687 C 932.15866,253.37229 933.05607,258.17015 937.31955,266.64977 C 940.67185,273.3171 941.2436,275.25272 940.22541,276.48665 C 938.61103,278.443 928.96147,285.2373 926.59709,286.0823 C 923.77222,287.09199 921.33392,292.93863 920.81451,299.94782 C 920.06699,310.0343 919.78746,310.72193 915.99485,311.80493 C 911.29092,313.14814 910.55828,317.12623 914.84993,318.0216 C 919.42966,318.97701 924.59265,321.82494 925.15498,323.70599 C 925.90663,326.22004 929.97602,351.16416 929.97602,353.25722 C 929.97602,356.47997 924.48137,358.68578 916.45354,358.68578 C 908.15309,358.68578 907.62509,359.15678 908.51208,365.76977 C 908.9157,368.77929 908.45029,371.16243 906.84395,374.31113 C 905.61857,376.71311 904.61599,379.88602 904.61599,381.3621 C 904.61599,383.91255 904.90633,384.04586 910.46081,384.04586 C 916.69957,384.04586 918.76701,385.75523 916.22816,388.81432 C 915.23477,390.01129 912.24709,390.41101 903.69411,390.4912 C 897.5177,390.54913 891.27554,390.92527 889.82259,391.32704 C 885.56652,392.50396 885.96539,395.81997 890.83377,399.73226 C 896.73461,404.47429 896.53929,407.15883 889.82259,413.6326 C 885.56891,417.73253 884.53609,419.41277 884.52306,422.25459 C 884.4977,427.79022 883.35428,428.80515 878.04112,428.00841 C 874.31764,427.45003 871.38621,428.02507 862.91415,430.97576 C 850.60642,435.26233 849.93622,436.16877 852.30784,445.32117 C 854.40828,453.42706 854.31596,455.12864 851.6867,456.77066 C 849.70947,458.0055 849.5517,458.78845 850.18352,464.23216 C 850.85353,470.00516 850.70853,470.55115 847.32891,474.98218 C 843.17494,480.42833 837.66567,484.42948 834.32056,484.42948 C 833.02476,484.42948 831.37392,485.14112 830.65207,486.0109 C 829.5697,487.31506 830.10288,488.76398 833.69269,494.27376 C 836.08691,497.94856 838.0458,501.4215 838.0458,501.99141 C 838.0458,502.56135 835.60241,505.76908 832.61608,509.11967 L 827.18636,515.2117 L 827.90888,524.78237 L 828.63135,534.35306 L 821.86983,541.35683 C 815.60398,547.8471 815.05284,548.80451 814.35165,554.4164 C 813.76248,559.13158 812.99499,560.94422 810.88455,562.60429 C 809.39378,563.7769 807.51313,564.73632 806.70539,564.73632 C 804.94964,564.73632 803.1757,560.49138 803.1757,556.28968 C 803.1757,553.04946 800.81136,549.94299 798.34527,549.94299 C 797.51496,549.94299 795.97268,550.80601 794.91781,551.86083 C 793.23466,553.544 793.09925,554.80477 793.81126,562.16337 C 794.52891,569.58076 794.39571,570.77719 792.65655,572.53457 C 791.01688,574.19143 790.16265,574.33702 787.50897,573.41198 C 783.16356,571.89718 781.5076,573.35826 778.89134,581.016 C 776.20841,588.86879 776.2206,589.20687 779.30625,592.53647 C 782.49643,595.97863 783.76993,601.22313 781.94853,603.41774 C 780.10593,605.63796 775.20237,608.05976 772.54966,608.05976 C 771.33911,608.05976 768.00282,606.87104 765.13563,605.41815 C 756.94403,601.26712 753.2955,602.45964 755.60462,608.53309 C 756.83479,611.76856 759.73435,613.34321 764.46233,613.34321 C 767.60488,613.34321 771.47562,615.45663 771.47562,617.17249 C 771.47562,619.68816 767.81514,633.18192 766.85838,634.19314 C 766.18114,634.90903 763.02831,635.98751 759.85226,636.5899 C 752.11396,638.0574 751.0714,639.32116 750.96149,647.36749 L 750.87053,654.02495 L 746.49165,655.41096 C 742.77504,656.58745 741.95208,657.38647 741.04983,660.69437 C 740.46523,662.83787 738.71567,668.12996 737.16198,672.45455 C 733.83739,681.7084 733.90054,681.94095 742.28476,691.31242 C 745.55406,694.96675 748.22895,698.63182 748.22895,699.45718 C 748.22895,700.28245 746.12873,702.18837 743.56188,703.69269 L 738.89488,706.42779 L 733.78771,703.57705 C 729.38313,701.11845 727.98236,700.83112 723.60533,701.48801 C 717.38401,702.42169 715.42422,705.33133 717.75572,710.17284 C 719.13589,713.03887 719.57201,713.19837 726.02268,713.19837 L 732.83263,713.19837 L 735.34658,717.72545 C 736.72924,720.21535 737.60089,722.92918 737.28348,723.75627 C 736.52308,725.738 728.70673,730.63612 726.32399,730.62398 C 725.29542,730.61877 721.39617,728.24137 717.65905,725.34068 C 710.80467,720.02047 706.61005,718.78483 704.06007,721.33475 C 701.59327,723.80164 702.84366,726.37818 708.55544,730.59773 C 716.12299,736.18828 716.96948,739.71285 712.67082,747.73444 C 710.07788,752.57286 709.14761,753.42515 705.96209,753.88019 C 700.88293,754.6058 700.68038,757.53745 705.36001,762.59765 C 707.96255,765.41203 709.90669,766.56028 712.06914,766.56028 C 714.45555,766.56028 715.83337,767.56205 718.44127,771.19363 C 721.02553,774.79208 722.65853,775.98952 725.75295,776.55512 C 736.32146,778.48665 737.42771,783.99569 729.21947,793.81909 C 726.31943,797.28978 722.49497,803.36502 720.72066,807.31962 C 717.91254,813.57831 717.65472,814.8965 718.73047,817.49359 C 720.10357,820.80859 723.74935,822.24118 726.7397,820.64074 C 728.93616,819.46531 735.89562,821.40093 738.37023,823.8755 C 740.49172,825.99695 737.53962,833.70975 733.02253,837.84727 C 729.6485,840.93773 729.46576,841.50264 728.73414,851.10371 C 728.03811,860.23879 727.72516,861.31451 725.22171,863.17976 C 723.71009,864.30602 720.77921,865.50116 718.70856,865.83568 C 713.14499,866.73452 713.09648,870.01098 718.58155,874.41887 C 722.38193,877.47294 722.86882,878.37478 722.86882,882.36041 C 722.86882,886.54219 722.61603,886.94008 719.25417,888.04961 C 716.16656,889.06857 715.53683,889.85073 714.93479,893.41408 L 714.23,897.5856 L 699.26515,897.359 C 691.03455,897.2344 627.18423,897.45601 557.37548,897.85164 C 487.56688,898.24724 430.26887,898.41272 430.04684,898.21939 z M 841.1737,472.32853 C 842.77529,470.39873 842.19203,466.99442 840.25982,466.99442 C 838.25495,466.99442 836.51179,470.03802 837.31615,472.13414 C 838.13627,474.27137 839.50407,474.34031 841.1737,472.32853 z M 890.28253,383.09991 C 890.98922,381.9564 887.91818,380.62201 886.54002,381.47376 C 886.00184,381.8064 885.83504,382.52119 886.16938,383.06223 C 886.94347,384.31474 889.51708,384.33834 890.28253,383.09991 z M 931.66794,273.72636 C 932.44564,271.69971 928.05603,263.34627 926.48512,263.86335 C 924.39483,264.55133 924.52456,268.12714 926.77216,271.77474 C 929.0333,275.44417 930.74667,276.12719 931.66794,273.72636 z"
     id="path2394"
     style="fill:#990000;stroke:#F2F2F2;stroke-width:10;stroke-miterlimit:4;stroke-dasharray:none;stroke-opacity:1" />
  <path
     d="M 75.999987,449.4246 L 436.60874,691.65011 L 800.21244,448.95273 L 436.60874,211.65011 L 75.999987,449.4246 z"
     id="path558"
     style="fill:#014586;fill-opacity:1;fill-rule:evenodd;stroke:none;stroke-width:3.14457989;stroke-linecap:butt;stroke-linejoin:miter;stroke-dasharray:none;stroke-opacity:1" />
  <path
     d="M 166.11304,449.89369 L 437.27585,632.03722 L 710.69073,449.53887 L 437.27585,271.09715 L 166.11304,449.89369 z"
     id="path559"
     style="fill:#FFFFFF;fill-opacity:1;fill-rule:evenodd;stroke:none;stroke-width:3.32875991;stroke-linecap:butt;stroke-linejoin:miter;stroke-dasharray:none;stroke-opacity:1" />
  <path
     d="M 451.62457,267.46674 L 437.96271,257.57789 L 424.32562,267.51356 L 429.5087,251.46456 L 415.84524,241.56516 L 432.71046,241.53518 L 437.9031,225.48135 L 443.14314,241.51183 L 460.01579,241.48941 L 446.38931,251.42677 L 451.62457,267.46674 z"
     id="polygon560"
     style="font-size:12px;fill:#FFFFFF;fill-opacity:1;fill-rule:evenodd;stroke:none;stroke-width:0.625;stroke-dasharray:none;stroke-dashoffset:5;stroke-opacity:1" />
  <path
     d="M 407.95495,286.09145 L 391.1123,285.21907 L 385.06822,300.97207 L 380.69323,284.68421 L 363.84351,283.80384 L 377.9823,274.60975 L 373.6127,258.31265 L 386.72581,268.91833 L 400.87494,259.72655 L 394.84068,275.4752 L 407.95495,286.09145 z"
     id="polygon561"
     style="font-size:12px;fill:#FFFFFF;fill-opacity:1;fill-rule:evenodd;stroke:none;stroke-width:0.625;stroke-dasharray:none;stroke-dashoffset:5;stroke-opacity:1" />
  <path
     d="M 357.74725,318.39085 L 340.9046,317.51847 L 334.86052,333.27147 L 330.48553,316.98361 L 313.63581,316.10324 L 327.7746,306.90915 L 323.405,290.61205 L 336.51811,301.21773 L 350.66724,292.02595 L 344.63298,307.7746 L 357.74725,318.39085 z"
     id="polygon563"
     style="font-size:12px;fill:#FFFFFF;fill-opacity:1;fill-rule:evenodd;stroke:none;stroke-width:0.625;stroke-dasharray:none;stroke-dashoffset:5;stroke-opacity:1" />
  <path
     d="M 310.09785,350.68925 L 293.2552,349.81687 L 287.21112,365.56987 L 282.83613,349.28201 L 265.98641,348.40164 L 280.1252,339.20755 L 275.7556,322.91045 L 288.86871,333.51613 L 303.01784,324.32435 L 296.98358,340.073 L 310.09785,350.68925 z"
     id="polygon564"
     style="font-size:12px;fill:#FFFFFF;fill-opacity:1;fill-rule:evenodd;stroke:none;stroke-width:0.625;stroke-dasharray:none;stroke-dashoffset:5;stroke-opacity:1" />
  <path
     d="M 262.12915,382.34915 L 245.2865,381.47677 L 239.24242,397.22977 L 234.86743,380.94191 L 218.01771,380.06154 L 232.1565,370.86745 L 227.7869,354.57035 L 240.90001,365.17603 L 255.04914,355.98425 L 249.01488,371.7329 L 262.12915,382.34915 z"
     id="polygon565"
     style="font-size:12px;fill:#FFFFFF;fill-opacity:1;fill-rule:evenodd;stroke:none;stroke-width:0.625;stroke-dasharray:none;stroke-dashoffset:5;stroke-opacity:1" />
  <path
     d="M 212.56105,413.68865 L 195.7184,412.81627 L 189.67432,428.56927 L 185.29933,412.28141 L 168.44961,411.40104 L 182.5884,402.20695 L 178.2188,385.90985 L 191.33191,396.51553 L 205.48104,387.32375 L 199.44678,403.0724 L 212.56105,413.68865 z"
     id="polygon566"
     style="font-size:12px;fill:#FFFFFF;fill-opacity:1;fill-rule:evenodd;stroke:none;stroke-width:0.625;stroke-dasharray:none;stroke-dashoffset:5;stroke-opacity:1" />
  <path
     d="M 472.36465,288.80425 L 489.2073,287.93187 L 495.25138,303.68487 L 499.62637,287.39701 L 516.47609,286.51664 L 502.3373,277.32255 L 506.7069,261.02545 L 493.59379,271.63113 L 479.44466,262.43935 L 485.47892,278.188 L 472.36465,288.80425 z"
     id="polygon567"
     style="font-size:12px;fill:#FFFFFF;fill-opacity:1;fill-rule:evenodd;stroke:none;stroke-width:0.625;stroke-dasharray:none;stroke-dashoffset:5;stroke-opacity:1" />
  <path
     d="M 522.57235,321.10375 L 539.415,320.23137 L 545.45908,335.98437 L 549.83407,319.69651 L 566.68379,318.81614 L 552.545,309.62205 L 556.9146,293.32495 L 543.80149,303.93063 L 529.65236,294.73885 L 535.68662,310.4875 L 522.57235,321.10375 z"
     id="polygon568"
     style="font-size:12px;fill:#FFFFFF;fill-opacity:1;fill-rule:evenodd;stroke:none;stroke-width:0.625;stroke-dasharray:none;stroke-dashoffset:5;stroke-opacity:1" />
  <path
     d="M 570.22175,353.40215 L 587.0644,352.52977 L 593.10848,368.28277 L 597.48347,351.99491 L 614.33319,351.11454 L 600.1944,341.92045 L 604.564,325.62335 L 591.45089,336.22903 L 577.30176,327.03725 L 583.33602,342.7859 L 570.22175,353.40215 z"
     id="polygon569"
     style="font-size:12px;fill:#FFFFFF;fill-opacity:1;fill-rule:evenodd;stroke:none;stroke-width:0.625;stroke-dasharray:none;stroke-dashoffset:5;stroke-opacity:1" />
  <path
     d="M 618.19045,385.06195 L 635.0331,384.18957 L 641.07718,399.94257 L 645.45217,383.65471 L 662.30189,382.77434 L 648.1631,373.58025 L 652.5327,357.28315 L 639.41959,367.88883 L 625.27046,358.69705 L 631.30472,374.4457 L 618.19045,385.06195 z"
     id="polygon570"
     style="font-size:12px;fill:#FFFFFF;fill-opacity:1;fill-rule:evenodd;stroke:none;stroke-width:0.625;stroke-dasharray:none;stroke-dashoffset:5;stroke-opacity:1" />
  <path
     d="M 667.75855,416.40145 L 684.6012,415.52907 L 690.64528,431.28207 L 695.02027,414.99421 L 711.86999,414.11384 L 697.7312,404.91975 L 702.1008,388.62265 L 688.98769,399.22833 L 674.83856,390.03655 L 680.87282,405.7852 L 667.75855,416.40145 z"
     id="polygon571"
     style="font-size:12px;fill:#FFFFFF;fill-opacity:1;fill-rule:evenodd;stroke:none;stroke-width:0.625;stroke-dasharray:none;stroke-dashoffset:5;stroke-opacity:1" />
  <path
     d="M 188.39803,495.92168 L 172.57271,490.09117 L 162.12671,503.34142 L 162.78153,486.48894 L 146.95183,480.64871 L 163.18189,476.06379 L 163.84461,459.20408 L 173.22037,473.22298 L 189.45963,468.64334 L 179.02431,481.89234 L 188.39803,495.92168 z"
     id="polygon595"
     style="font-size:12px;fill:#FFFFFF;fill-opacity:1;fill-rule:evenodd;stroke:none;stroke-width:0.625;stroke-dasharray:none;stroke-dashoffset:5;stroke-opacity:1" />
  <path
     d="M 235.67901,524.94105 L 219.42289,520.4495 L 210.11733,534.5241 L 209.36561,517.67566 L 193.10431,513.17478 L 208.89588,507.25341 L 208.15143,490.39711 L 218.66273,503.586 L 234.4639,497.66912 L 225.16887,511.74159 L 235.67901,524.94105 z"
     id="polygon596"
     style="font-size:12px;fill:#FFFFFF;fill-opacity:1;fill-rule:evenodd;stroke:none;stroke-width:0.625;stroke-dasharray:none;stroke-dashoffset:5;stroke-opacity:1" />
  <path
     d="M 414.52673,648.78408 L 398.70141,642.95357 L 388.25541,656.20382 L 388.91023,639.35134 L 373.08053,633.51111 L 389.31059,628.92619 L 389.97331,612.06648 L 399.34907,626.08538 L 415.58833,621.50574 L 405.15301,634.75474 L 414.52673,648.78408 z"
     id="polygon597"
     style="font-size:12px;fill:#FFFFFF;fill-opacity:1;fill-rule:evenodd;stroke:none;stroke-width:0.625;stroke-dasharray:none;stroke-dashoffset:5;stroke-opacity:1" />
  <path
     d="M 280.65446,554.99974 L 264.18332,551.3752 L 255.63602,565.92276 L 253.99327,549.13775 L 237.51647,545.50417 L 252.97238,538.755 L 251.33647,521.96175 L 262.53134,534.5756 L 277.99708,527.8304 L 269.46018,542.37528 L 280.65446,554.99974 z"
     id="polygon599"
     style="font-size:12px;fill:#FFFFFF;fill-opacity:1;fill-rule:evenodd;stroke:none;stroke-width:0.625;stroke-dasharray:none;stroke-dashoffset:5;stroke-opacity:1" />
  <path
     d="M 324.33895,586.87162 L 308.07667,582.40239 L 298.79044,596.48976 L 298.01558,579.64237 L 281.74811,575.16383 L 297.53153,569.22078 L 296.76392,552.36551 L 307.29333,565.53995 L 323.08637,559.60138 L 313.81068,573.6866 L 324.33895,586.87162 z"
     id="polygon600"
     style="font-size:12px;fill:#FFFFFF;fill-opacity:1;fill-rule:evenodd;stroke:none;stroke-width:0.625;stroke-dasharray:none;stroke-dashoffset:5;stroke-opacity:1" />
  <path
     d="M 367.86078,614.73489 L 351.56223,610.39982 L 342.3924,624.56322 L 341.47874,607.72279 L 325.17492,603.37845 L 340.90884,597.30554 L 340.00236,580.45718 L 350.63997,593.54441 L 366.38353,587.4759 L 357.22422,601.63708 L 367.86078,614.73489 z"
     id="polygon601"
     style="font-size:12px;fill:#FFFFFF;fill-opacity:1;fill-rule:evenodd;stroke:none;stroke-width:0.625;stroke-dasharray:none;stroke-dashoffset:5;stroke-opacity:1" />
  <path
     d="M 680.77127,501.34872 L 696.59659,495.51821 L 707.04259,508.76846 L 706.38777,491.91598 L 722.21747,486.07575 L 705.98741,481.49083 L 705.32469,464.63112 L 695.94893,478.65002 L 679.70967,474.07038 L 690.14499,487.31938 L 680.77127,501.34872 z"
     id="polygon602"
     style="font-size:12px;fill:#FFFFFF;fill-opacity:1;fill-rule:evenodd;stroke:none;stroke-width:0.625;stroke-dasharray:none;stroke-dashoffset:5;stroke-opacity:1" />
  <path
     d="M 633.49139,530.36845 L 649.74751,525.8769 L 659.05307,539.9515 L 659.80479,523.10306 L 676.06609,518.60218 L 660.27452,512.68081 L 661.01897,495.82451 L 650.50767,509.0134 L 634.7065,503.09652 L 644.00153,517.16899 L 633.49139,530.36845 z"
     id="polygon603"
     style="font-size:12px;fill:#FFFFFF;fill-opacity:1;fill-rule:evenodd;stroke:none;stroke-width:0.625;stroke-dasharray:none;stroke-dashoffset:5;stroke-opacity:1" />
  <path
     d="M 453.28567,652.85448 L 469.11099,647.02397 L 479.55699,660.27422 L 478.90217,643.42174 L 494.73187,637.58151 L 478.50181,632.99659 L 477.83909,616.13688 L 468.46333,630.15578 L 452.22407,625.57614 L 462.65939,638.82514 L 453.28567,652.85448 z"
     id="polygon604"
     style="font-size:12px;fill:#FFFFFF;fill-opacity:1;fill-rule:evenodd;stroke:none;stroke-width:0.625;stroke-dasharray:none;stroke-dashoffset:5;stroke-opacity:1" />
  <path
     d="M 587.15904,560.42744 L 603.63018,556.8029 L 612.17748,571.35046 L 613.82023,554.56545 L 630.29703,550.93187 L 614.84112,544.1827 L 616.47703,527.38945 L 605.28216,540.0033 L 589.81642,533.2581 L 598.35332,547.80298 L 587.15904,560.42744 z"
     id="polygon605"
     style="font-size:12px;fill:#FFFFFF;fill-opacity:1;fill-rule:evenodd;stroke:none;stroke-width:0.625;stroke-dasharray:none;stroke-dashoffset:5;stroke-opacity:1" />
  <path
     d="M 543.47345,591.39432 L 559.73573,586.92509 L 569.02196,601.01246 L 569.79682,584.16507 L 586.06429,579.68653 L 570.28087,573.74348 L 571.04848,556.88821 L 560.51907,570.06265 L 544.72603,564.12408 L 554.00172,578.2093 L 543.47345,591.39432 z"
     id="polygon606"
     style="font-size:12px;fill:#FFFFFF;fill-opacity:1;fill-rule:evenodd;stroke:none;stroke-width:0.625;stroke-dasharray:none;stroke-dashoffset:5;stroke-opacity:1" />
  <path
     d="M 499.95272,619.25809 L 516.25127,614.92302 L 525.4211,629.08642 L 526.33476,612.24599 L 542.63858,607.90165 L 526.90466,601.82874 L 527.81114,584.98038 L 517.17353,598.06761 L 501.42997,591.9991 L 510.58928,606.16028 L 499.95272,619.25809 z"
     id="polygon607"
     style="font-size:12px;fill:#FFFFFF;fill-opacity:1;fill-rule:evenodd;stroke:none;stroke-width:0.625;stroke-dasharray:none;stroke-dashoffset:5;stroke-opacity:1" />
  <path
     d="M 143.96834,466.73342 L 130.32669,456.81672 L 116.66935,466.72454 L 121.88516,450.68615 L 108.24194,440.75889 L 125.10718,440.76333 L 130.33256,424.72013 L 135.53988,440.76126 L 152.41254,440.77327 L 138.76581,450.6828 L 143.96834,466.73342 z"
     id="polygon608"
     style="font-size:12px;fill:#FFFFFF;fill-opacity:1;fill-rule:evenodd;stroke:none;stroke-width:0.625;stroke-dasharray:none;stroke-dashoffset:5;stroke-opacity:1" />
  <path
     d="M 756.69234,466.73342 L 743.05069,456.81672 L 729.39335,466.72454 L 734.60916,450.68615 L 720.96594,440.75889 L 737.83118,440.76333 L 743.05656,424.72013 L 748.26388,440.76126 L 765.13654,440.77327 L 751.48981,450.6828 L 756.69234,466.73342 z"
     id="polygon609"
     style="font-size:12px;fill:#FFFFFF;fill-opacity:1;fill-rule:evenodd;stroke:none;stroke-width:0.625;stroke-dasharray:none;stroke-dashoffset:5;stroke-opacity:1" />
  <path
     d="M 562.83385,535.16918 L 543.35574,521.32736 L 523.85523,535.15678 L 531.30258,512.77025 L 511.82222,498.9137 L 535.90311,498.91989 L 543.36412,476.52664 L 550.79935,498.917 L 574.89083,498.93376 L 555.40547,512.76558 L 562.83385,535.16918 z"
     id="polygon610"
     style="font-size:12px;fill:#014586;fill-opacity:1;fill-rule:evenodd;stroke:none;stroke-width:0.625;stroke-dasharray:none;stroke-dashoffset:5;stroke-opacity:1" />
  <path
     d="M 344.73525,527.4942 L 325.25714,513.65238 L 305.75663,527.4818 L 313.20398,505.09527 L 293.72362,491.23872 L 317.80451,491.24491 L 325.26552,468.85166 L 332.70075,491.24202 L 356.79223,491.25878 L 337.30687,505.0906 L 344.73525,527.4942 z"
     id="polygon611"
     style="font-size:12px;fill:#014586;fill-opacity:1;fill-rule:evenodd;stroke:none;stroke-width:0.625;stroke-dasharray:none;stroke-dashoffset:5;stroke-opacity:1" />
  <path
     d="M 454.74445,366.31837 L 435.26634,352.47655 L 415.76583,366.30597 L 423.21318,343.91944 L 403.73282,330.06289 L 427.81371,330.06908 L 435.27472,307.67583 L 442.70995,330.06619 L 466.80143,330.08295 L 447.31607,343.91477 L 454.74445,366.31837 z"
     id="polygon612"
     style="font-size:12px;fill:#014586;fill-opacity:1;fill-rule:evenodd;stroke:none;stroke-width:0.625;stroke-dasharray:none;stroke-dashoffset:5;stroke-opacity:1" />
  <path
     d="M 452.2419,526.41082 L 444.91109,549.154 L 463.97275,563.58233 L 440.38265,563.22511 L 433.03848,585.97487 L 425.7898,563.01085 L 402.18919,562.64263 L 421.29941,548.80753 L 414.05762,525.83023 L 433.11698,540.24339 L 452.2419,526.41082 z"
     id="polygon613"
     style="font-size:12px;fill:#014586;fill-opacity:1;fill-rule:evenodd;stroke:none;stroke-width:0.625;stroke-dasharray:none;stroke-dashoffset:5;stroke-opacity:1" />
  <path
     d="M 590.52151,419.28981 C 590.52151,415.52055 589.70796,413.04521 587.75544,410.79491 C 585.09785,407.75699 580.70469,406.12552 575.00984,406.12552 C 565.51844,406.12552 560.04055,410.73865 560.04055,418.72724 C 560.04055,425.08435 563.13203,428.17852 571.15905,429.75374 L 576.69118,430.87889 C 582.11484,431.94779 584.12159,433.523 584.12159,436.8422 C 584.12159,440.27392 581.08434,442.35545 576.14881,442.35545 C 570.61668,442.35545 567.5252,439.93637 567.25401,435.54828 L 559.33547,435.54828 C 559.8236,444.32447 565.62692,449.10637 575.71492,449.10637 C 585.9114,449.10637 591.93166,444.1557 591.93166,435.82956 C 591.93166,429.35993 588.78594,425.98447 581.464,424.52178 L 575.28103,423.28411 C 569.47771,422.1027 567.79638,420.92129 567.79638,417.93963 C 567.79638,414.84546 570.45397,412.87644 574.63019,412.87644 C 579.78266,412.87644 582.6572,415.12675 582.92839,419.28981 L 590.52151,419.28981 z M 545.61362,439.54257 L 548.21697,447.81245 L 556.56941,447.81245 L 542.90179,406.80061 L 533.89851,406.80061 L 519.85124,447.81245 L 528.14944,447.81245 L 530.80703,439.54257 L 545.61362,439.54257 z M 543.38992,432.51036 L 533.08496,432.51036 L 538.23744,416.47693 L 543.38992,432.51036 z M 515.18689,419.28981 C 515.18689,415.52055 514.37334,413.04521 512.42083,410.79491 C 509.76323,407.75699 505.37007,406.12552 499.67523,406.12552 C 490.18383,406.12552 484.70593,410.73865 484.70593,418.72724 C 484.70593,425.08435 487.79742,428.17852 495.82443,429.75374 L 501.35656,430.87889 C 506.78022,431.94779 508.78697,433.523 508.78697,436.8422 C 508.78697,440.27392 505.74973,442.35545 500.8142,442.35545 C 495.28206,442.35545 492.19058,439.93637 491.9194,435.54828 L 484.00085,435.54828 C 484.48898,444.32447 490.2923,449.10637 500.3803,449.10637 C 510.57678,449.10637 516.59704,444.1557 516.59704,435.82956 C 516.59704,429.35993 513.45132,425.98447 506.12938,424.52178 L 499.94641,423.28411 C 494.1431,422.1027 492.46176,420.92129 492.46176,417.93963 C 492.46176,414.84546 495.11935,412.87644 499.29557,412.87644 C 504.44805,412.87644 507.32259,415.12675 507.59377,419.28981 L 515.18689,419.28981 z M 470.82136,447.81245 L 478.95685,447.81245 L 478.95685,406.80061 L 470.82136,406.80061 L 470.82136,434.70441 L 455.14699,406.80061 L 446.79456,406.80061 L 446.79456,447.81245 L 454.93004,447.81245 L 454.93004,419.45859 L 470.82136,447.81245 z M 431.12018,439.54257 L 433.72354,447.81245 L 442.07597,447.81245 L 428.40835,406.80061 L 419.40508,406.80061 L 405.35781,447.81245 L 413.656,447.81245 L 416.3136,439.54257 L 431.12018,439.54257 z M 428.89648,432.51036 L 418.59153,432.51036 L 423.74401,416.47693 L 428.89648,432.51036 z M 376.93784,434.08558 L 381.00558,429.69748 L 393.96812,447.81245 L 403.67647,447.81245 L 386.21229,424.46552 L 401.99514,406.80061 L 392.39526,406.80061 L 376.93784,424.80306 L 376.93784,406.80061 L 368.80235,406.80061 L 368.80235,447.81245 L 376.93784,447.81245 L 376.93784,434.08558 z M 338.10444,431.55398 L 347.43313,431.55398 C 350.95851,431.55398 352.47714,433.01668 352.47714,436.4484 C 352.47714,436.78594 352.47714,437.34852 352.4229,438.07987 C 352.36866,439.14877 352.36866,440.1614 352.36866,440.78024 C 352.36866,444.60576 352.58561,445.84343 353.6161,447.81245 L 362.34819,447.81245 L 362.34819,446.29349 C 361.10075,445.56214 360.61262,444.71827 360.61262,442.91803 C 360.39568,430.82263 360.17873,430.26006 355.13473,428.00975 C 359.58213,426.20951 361.80583,422.8903 361.80583,417.88337 C 361.80583,414.62043 360.7211,411.63877 358.82282,409.6135 C 357.03301,407.70074 354.53813,406.80061 351.17546,406.80061 L 329.96895,406.80061 L 329.96895,447.81245 L 338.10444,447.81245 L 338.10444,431.55398 z M 338.10444,424.52178 L 338.10444,413.83282 L 347.92126,413.83282 C 350.25344,413.83282 351.22969,414.05785 352.20595,414.90172 C 353.18221,415.74558 353.67034,417.15202 353.67034,419.06478 C 353.67034,421.0338 353.12797,422.60902 352.20595,423.45288 C 351.33817,424.24049 350.25344,424.52178 347.92126,424.52178 L 338.10444,424.52178 z M 313.64374,439.54257 L 316.2471,447.81245 L 324.59953,447.81245 L 310.93191,406.80061 L 301.92864,406.80061 L 287.88136,447.81245 L 296.17956,447.81245 L 298.83715,439.54257 L 313.64374,439.54257 z M 311.42004,432.51036 L 301.11509,432.51036 L 306.26756,416.47693 L 311.42004,432.51036 z"
     id="path586"
     style="font-size:53px;font-weight:bold;fill:#014586;fill-opacity:1;stroke:#014586;stroke-width:0.89541543;stroke-opacity:1;font-family:Nimbus Sans L" />
</svg>