<?xml version="1.0" encoding="UTF-8" standalone="no"?>
<svg
   width="506.94205"
   height="776.69873"
   viewBox="0 0 506.94205 776.69873"
   version="1.1"
   id="svg14318"
   sodipodi:docname="Flag_map_of_Indiana.svg"
   inkscape:version="1.1.1 (3bf5ae0d25, 2021-09-20)"
   xmlns:inkscape="http://www.inkscape.org/namespaces/inkscape"
   xmlns:sodipodi="http://sodipodi.sourceforge.net/DTD/sodipodi-0.dtd"
   xmlns="http://www.w3.org/2000/svg"
   xmlns:svg="http://www.w3.org/2000/svg">
  <defs
     id="defs14322">
    <clipPath
       clipPathUnits="userSpaceOnUse"
       id="clipPath1907">
      <path
         style="color:#000000;opacity:0.5;fill:#ffffff;stroke:none;stroke-width:20.2;stroke-linejoin:miter;-inkscape-stroke:none"
         d="m 202.44819,-129.43369 6.53191,0.0526 2.0017,0.0177 4.23169,0.0177 14.55631,0.10541 16.15415,0.14045 h 0.64968 l 10.42996,0.0878 24.52974,-0.21071 8.6214,-0.0526 23.82738,-0.14044 19.05137,-0.1229 21.12332,0.0702 h 4.12633 l 14.38071,0.0177 12.30876,0.0178 41.61452,-0.47414 10.25436,-0.14044 h 3.40643 l 48.26932,-0.73748 5.8471,-0.0526 2.87966,-0.0178 0.33362,12.60731 0.49165,26.5139 0.1053,5.7593 0.0175,1.01838 0.35118,19.297177 0.31606,16.38243 0.15803,5.81202 0.21071,8.21754 0.0702,3.23081 0.0175,0.17562 0.94818,46.671453 0.1229,4.72331 0.29851,13.06381 v 0.66723 l 0.0527,2.19489 0.63212,34.94214 0.0351,4.49506 0.0351,1.00082 0.21071,24.89849 0.38629,42.70317 0.0702,8.4107 0.2107,26.53145 -0.28094,7.60296 -0.0702,1.68566 0.10529,23.49379 0.10541,10.88648 0.0878,6.49679 0.45654,37.08432 0.45652,30.9914 0.0702,7.42742 0.0175,1.52759 0.0878,10.23682 0.0702,10.88648 -0.0878,8.97256 -0.0175,2.7743 0.0702,9.27115 0.12292,15.48689 0.14046,6.90065 0.35118,16.34727 -0.0702,0.0349 -0.12291,0.10541 -2.07195,1.56275 -3.38886,3.47668 -1.59785,1.05354 -3.14304,2.08947 -0.28094,0.31606 -0.21071,0.33361 -0.0878,0.26342 -0.1053,0.94819 v 0.29844 l 0.79015,1.54521 0.86038,1.05354 1.01842,1.2467 0.12291,0.14045 2.73919,3.35371 0.84281,1.40476 1.00086,1.68561 1.29936,2.17733 0.14047,0.29852 0.0702,0.2107 0.597,2.31772 0.0878,1.4925 -0.0527,0.40387 -0.35118,0.70238 -0.82526,0.93058 -2.52848,2.84455 -0.0878,0.10541 -0.71992,0.79019 -1.26423,1.42224 -0.45654,0.61457 -0.12291,0.22827 -0.3863,1.19398 -0.0351,0.15806 0.17558,0.80767 0.45654,0.87793 1.35203,1.31696 0.71992,0.2809 0.71991,0.0702 5.2501,0.22826 3.52933,1.33451 0.31606,0.14044 0.71992,0.52677 0.28094,0.57942 0.0702,0.14051 0.24584,0.59697 -0.0702,3.00254 -0.66724,1.51012 -0.0527,0.0878 -1.98414,1.43985 -1.05354,0.77258 -0.24582,0.21071 -1.5803,2.14217 -0.28095,0.47413 -0.31605,0.82528 -0.0351,0.14045 0.0175,0.17561 0.31607,1.21153 2.3002,4.021 0.12292,1.75586 -0.36873,0.89555 -0.84283,0.4916 -0.22828,0.1054 -0.19314,0.0349 h -0.79014 l -0.36874,-0.0349 -0.45654,-0.0878 -1.52761,-0.43896 -0.21071,-0.0702 -1.86125,-0.56194 -1.24667,-0.158 -2.63383,-0.3336 -2.03683,0.3336 -0.19315,0.0702 -0.71991,0.35122 -0.77259,0.33362 -1.47495,0.71992 -2.51091,1.21154 -0.2985,0.1229 -0.3863,0.0702 -1.84368,0.24581 -2.44068,-0.31606 -1.45738,-0.19316 -2.51092,0.29851 -2.14218,1.1589 -0.57945,0.38631 -1.33447,1.0711 -0.71992,0.43896 -0.0527,-0.1054 -4.10877,2.8621 -0.26338,0.14044 -0.4214,0.22826 -0.91308,0.42141 -1.4925,0.68483 -0.15803,0.0702 -3.9332,2.77429 -0.21069,0.19316 -2.24756,2.08953 -2.14216,1.98412 -0.49166,0.45656 -2.07193,1.42225 -1.07108,0.52677 -1.17646,0.52677 -0.49164,0.158 -1.12377,0.29852 -0.45653,0.0702 -0.45656,0.0349 -2.79183,-0.14046 -0.98332,-0.24587 v -0.21071 l -1.79098,-0.84276 -0.15802,-0.15806 -2.58117,-2.87966 -1.21155,-1.86121 -0.91306,-1.31695 -0.79015,-0.87793 -0.1054,-0.0702 -1.79098,-0.98329 -2.91478,-0.42141 -0.50921,-0.0349 -2.07196,-0.0177 -3.24839,0.45651 -0.0878,0.0177 -1.87878,0.63213 -0.43897,0.0878 -3.79272,0.84284 -2.87965,-0.17561 -0.22829,-0.0349 -2.15971,-0.49167 -1.40472,-0.31607 -1.77344,0.1054 h -0.12292 l -2.59871,1.35206 -0.64967,0.64966 -0.22827,0.24581 -2.03685,3.96835 -0.0878,0.21064 -0.17558,1.22916 0.12292,1.58031 0.12292,0.75502 0.40385,0.86038 0.0526,0.1054 1.28183,2.24754 0.0526,0.14044 0.80771,2.14224 v 6.77769 l -0.0175,1.96662 0.47408,2.82694 0.93063,1.91392 0.12291,0.19316 0.26338,0.52677 0.54432,1.14135 0.8077,1.6856 0.35117,1.3345 0.0878,1.58031 -0.0351,0.52677 -0.26339,1.91391 -0.98329,1.98412 -1.42227,1.42231 -0.96573,0.70232 -0.40386,0.24587 -0.26338,0.15799 -1.03597,0.49168 -2.44071,1.14127 -0.22825,0.14052 -0.15803,0.17555 -0.77258,1.22914 -0.28095,0.61458 -1.94902,4.38971 -0.0878,0.1229 -0.21072,0.26335 -1.38714,1.45741 -0.71993,0.56186 -0.0878,0.0526 -4.14389,1.4925 -0.15803,0.0349 -5.40812,0.59702 -0.84282,0.19317 -1.01843,0.2809 -0.17558,0.0702 -2.44069,1.35206 -1.791,1.94901 -1.43983,2.30024 -2.00171,5.60124 -0.57944,2.66894 -0.0351,0.15806 -0.0351,0.98329 -0.19315,3.96828 -1.70321,4.53022 -0.29851,0.59696 -0.28093,0.49167 -3.03768,4.23171 -2.72164,2.52843 -0.1054,0.0702 -0.8955,0.52677 -1.35203,0.79012 -2.93234,1.70321 -0.77258,0.42141 -0.28094,0.15807 -1.29936,0.56187 -0.29851,0.0702 h -0.24581 l -1.73833,-0.45658 -1.17644,-1.24663 -0.61457,-0.96573 -0.91306,-0.70239 -0.63212,-0.26335 -0.8077,-0.19315 -0.89551,0.0878 -0.54432,0.17555 -0.0878,0.0878 -0.98331,0.26341 -1.00085,0.17555 -0.8955,0.26342 -0.77259,0.26335 -0.77259,0.35115 -1.00085,1.17651 -0.70237,1.58025 -0.47408,2.75675 -0.45653,2.6163 -0.9833,2.33533 -0.98329,1.26425 -1.52762,1.4047 -3.12548,2.87965 -0.0878,0.0702 -1.24668,1.91392 -1.05352,1.65057 -0.1054,0.22825 -0.12291,0.31607 -0.75504,1.84366 -0.22826,4.81111 0.45654,5.46086 0.14046,1.6505 -0.0702,2.68649 -0.52677,1.96664 -0.56189,2.08952 -0.36874,1.51006 -0.15802,0.80767 -0.14047,0.80773 -0.75502,4.6355 -0.43899,1.2467 -2.44068,2.98501 -0.24582,0.28097 -0.68479,0.2458 -0.64969,0.22825 -1.26423,0.43897 -1.40471,0.28096 -0.22826,0.0349 -4.53019,0.86037 -0.22827,0.0177 -2.51091,0.47407 -2.33534,0.89546 -0.71991,0.94819 -0.14047,0.22825 -0.0351,0.14052 0.0175,2.19483 0.0175,1.31695 -0.26338,0.66722 -0.45653,0.52677 -1.00086,0.35116 -1.63297,-1.22908 -1.07109,-1.47496 -2.65139,-5.09208 -1.82613,-1.75586 -0.0702,-0.0349 -2.72162,-1.17644 -1.94904,-0.26336 -0.47409,-0.0349 -0.8077,0.0702 -2.49336,0.35116 -1.38716,0.36877 -0.91305,0.24581 -0.80771,0.1756 -0.31606,-0.0349 -1.21156,-0.26335 -4.23169,-1.91392 -0.17559,-0.1229 -4.37215,-3.37133 -3.03769,-1.82611 -0.597,-0.43896 -0.24583,-0.21071 -1.93147,-2.15972 -0.0702,-0.1054 -0.54433,-1.2467 -0.14047,-0.59702 -0.56189,-3.16056 0.0175,-1.89636 0.36874,-2.07199 0.91305,-4.88131 -0.45652,-1.77347 -0.71992,-1.26424 -0.28094,-0.33361 -1.52762,-1.70321 -0.61457,-0.61458 -0.66722,-0.38625 -1.10621,-0.59704 -2.17731,-1.14134 -1.45738,-1.14127 -0.26339,-0.28097 -1.00084,-1.036 -1.54519,-1.63294 -0.0702,-0.0526 -1.36959,-0.49161 -1.2818,0.43897 -0.1053,0.0702 -0.75503,1.05347 -0.0878,0.22832 -0.26338,1.00083 0.19315,1.82611 0.36873,0.79019 1.21156,1.10618 0.1054,0.0349 1.791,0.38631 0.28094,0.0702 2.21242,0.47405 1.42227,0.73748 0.31606,0.2107 0.61457,1.59787 -0.52677,1.59786 -0.70236,0.89546 -1.72077,0.89555 -2.63383,0.0177 -2.03682,0.0177 -1.10621,0.26335 -1.4574,1.15889 -0.0878,0.0702 -0.1054,0.15807 -0.597,1.43978 -0.36874,0.70239 -0.4214,0.56186 -0.40386,0.31606 h -0.14047 l -0.96574,-0.19315 -0.82527,-0.56187 -0.94817,-0.84283 -0.0527,-0.0702 -1.82612,-1.63295 -1.08865,-0.57948 -2.00171,-0.0702 -0.24582,0.0349 -0.31606,0.2458 -1.29936,1.35206 -0.19315,0.57947 -0.17558,0.82522 0.26339,0.89555 0.22826,0.29844 1.05353,1.08871 0.15803,0.10529 0.80771,0.28091 0.8955,0.35121 0.8077,0.79013 0.28094,0.35116 0.10541,0.19315 0.47408,1.22916 0.0351,0.17555 v 0.40387 l -0.0878,0.98327 -0.0878,0.47413 -0.24583,0.50922 -0.84283,1.42225 -2.07195,2.15972 -2.15972,0.71993 -3.07281,0.17561 -0.43898,0.0348 -1.43982,-0.0526 -0.45654,0.0348 -0.24581,0.0177 -1.10621,0.35116 -0.28094,0.15806 -0.2985,0.21071 -0.57945,0.63213 -0.61455,1.6856 -0.0527,0.61457 -0.1054,1.29935 -0.0702,0.91308 -0.22826,2.72166 -0.0351,0.2809 0.0175,0.50921 0.0351,4.35462 0.73748,2.47578 1.35202,2.66895 0.0526,0.10529 0.45652,0.96573 0.15804,0.54433 0.0878,0.45658 -0.35118,1.59785 -1.24667,1.33444 -1.8788,0.80773 -3.0728,-0.0702 -0.52677,-0.0526 -4.61798,-0.50921 -1.79101,0.80767 -0.64967,0.79018 -0.15803,0.47406 -0.24583,1.21161 0.14047,2.63378 0.15803,2.66894 0.0175,0.17561 -0.35117,1.86121 -0.22827,0.49167 -0.24582,0.45652 -0.22827,0.26342 -1.91392,1.75585 -0.12291,0.1054 -2.63383,1.45741 -1.43982,0.54431 -1.91392,-0.26335 -0.82527,-0.57948 -0.12291,-0.1229 -0.54432,-0.89548 -0.17558,-1.14135 0.15801,-0.59702 1.40472,-4.58287 0.94818,-3.1079 -0.1054,-1.51006 -0.2107,-0.28096 -0.21071,-0.26335 -1.93148,-0.93064 -1.72076,0.0177 -0.49166,0.1229 -0.4214,0.17561 -0.82527,0.50922 -4.05611,2.91475 -0.6321,0.15806 -0.89551,0.19316 -0.54433,-0.0526 -0.29849,-0.0702 -2.10707,-2.05438 -0.19315,-0.21069 -1.791,-2.12464 -1.6681,-3.44151 -0.86038,-1.87883 -0.57944,-1.40469 -0.82528,-2.22999 -1.93146,-5.14473 -1.73833,-1.31695 -2.00172,-0.86038 -0.71991,0.15806 -0.91305,0.35117 -0.8955,0.52677 -1.17646,0.52677 -0.77258,0.28096 -1.61542,0.75502 -3.38886,3.30107 -1.47494,1.82611 -1.56274,1.91392 -1.73833,1.47496 -0.1054,0.0349 -3.52933,1.08864 -1.33448,0.0702 -1.77343,0.0878 -1.01842,0.0702 -0.68479,0.14052 -1.86124,0.47406 -1.05353,0.26342 -1.54518,0.79011 -1.61542,0.87794 -1.63298,0.79018 -1.45738,1.01838 -1.24668,1.17644 -1.00086,0.98335 -0.24582,0.38625 -0.33362,0.59703 -0.24582,0.87793 0.24582,1.70321 0.2107,1.38714 -0.15802,1.2467 -0.3863,1.59786 -1.43983,6.00511 -0.2985,0.68483 -1.38715,3.301 -0.8077,1.33451 -1.9666,1.86121 -0.8955,0.52677 -1.24668,0.71992 -1.36958,0.35117 -0.12292,0.0177 -2.65139,-0.0702 -0.64968,-0.31606 -0.0702,-0.0526 -0.64968,-0.38632 -0.0878,-0.1229 -0.80771,-1.66812 -0.79015,-3.16061 -0.22827,-0.57941 -0.80771,-1.77347 -2.4758,-2.75675 -1.17644,-0.38626 -0.35117,-0.0878 -0.73747,-0.1229 -3.21328,-0.35116 -3.1606,-1.0887 -0.26337,-0.14045 -1.08866,-0.63213 -0.31606,-0.21071 -1.12376,-0.75502 -0.87795,-0.71993 -1.36959,-1.17644 -1.35203,-1.21153 -0.52677,-0.43897 -1.26424,-1.1589 -1.791,-1.4925 -1.80856,-1.3345 -0.3863,-0.21071 -0.47409,-0.24581 -2.24753,-1.33444 -1.65054,-0.96579 -0.96573,-0.33361 -0.91306,-0.33361 -3.58202,-2.58114 -1.38714,-1.01844 -1.24668,-0.79012 -0.91307,-0.52677 -0.66723,-0.33362 -3.44154,-1.01844 -0.40385,-0.0177 -2.01927,-0.0702 -2.10707,0.52671 -0.8077,0.42142 -0.36874,0.19315 -1.703211,1.05354 -1.12376,0.7902 -0.24583,0.17554 -1.52763,1.31696 -1.35202,1.14127 -1.17644,0.96573 -0.15803,0.0878 -1.562747,0.52677 h -0.17558 l -0.1054,-0.0526 -1.51007,-1.0887 -1.26424,-0.91303 -3.61712,-2.17733 -1.22912,-1.10619 -0.7726,-1.17644 -1.10621,-2.82701 -0.91305,-2.37042 -1.45739,-1.4047 -0.63212,-0.0878 -1.05353,0.52677 -0.0352,0.1054 -0.31606,1.4925 -0.50921,2.4056 -0.0527,0.14044 -0.17559,0.24581 -0.77259,0.86038 -1.82612,2.03683 -0.2107,0.2985 -0.0702,0.14052 -0.29851,1.42225 0.597,1.96656 0.0527,0.14052 0.8955,1.31688 2.05439,1.47496 1.21157,1.22908 0.40384,0.45658 0.36874,0.87793 0.33363,0.66722 0.0878,0.21071 0.0175,2.7041 v 0.12291 l -0.45653,1.33444 -0.17558,0.31606 -2.01928,3.40642 -0.71991,0.79018 -0.17558,0.17555 -1.61543,1.00089 -2.70406,0.89548 h -2.24753 l -1.80857,-0.26335 -0.15802,-0.0878 -2.00172,-1.3696 -0.64968,-2.47579 0.15803,-2.10708 0.43898,-1.59786 0.79015,-1.29933 1.17644,-1.93148 0.0702,-0.93063 -0.19314,-1.2467 -0.33363,-0.56186 -0.33361,-0.43897 -1.08866,-0.71993 -0.8077,-0.19316 -0.89551,0.28096 -1.52762,0.79013 -0.33362,0.19316 -2.40556,0.70238 -0.2985,0.0878 h -0.0878 l -2.38801,-0.14052 h -0.0878 l -2.79186,-0.17555 -0.8077,0.3687 -0.17559,0.0878 -0.71992,0.42142 -0.75503,0.52677 -0.14047,0.1054 -1.28179,0.96573 -0.31606,0.17555 -1.474948,0.56193 -0.280942,0.0349 -1.071091,0.0178 -2.791854,-0.12289 -0.175592,-0.0177 -2.089504,-0.63212 -0.351178,-0.14044 -0.210707,-0.19317 -1.088655,-1.26425 -0.421416,-0.82528 -0.403855,-0.77257 -0.122908,-0.1054 -0.719916,-0.64967 -0.755033,-0.70239 -0.228261,-0.2809 -0.210708,-0.31606 -0.456532,-0.98335 -0.684794,-1.35199 -0.228269,-0.26341 -1.68565,-1.4047 -1.474941,-0.43897 -0.210708,-0.0349 -0.719917,0.0878 -0.351177,0.17562 -0.755025,0.50922 -0.877947,0.98328 -1.176442,1.31689 -0.632123,0.87799 -0.790147,1.08864 -0.790148,1.05354 -0.684795,0.87792 -0.351177,0.61458 -0.14047,0.40387 -0.193147,1.03592 -0.03509,0.22825 0.140471,0.52677 0.474092,1.35206 3.283507,4.05609 0.456531,0.87793 0.351177,1.89637 0.561885,2.94991 0.01755,0.19316 -0.456532,1.86121 -0.0878,0.26341 -3.617122,2.28263 -0.80771,1.07108 -0.825272,1.40471 -0.71991,1.14134 -0.10535,0.1229 -1.176441,0.80774 -0.158031,0.0349 h -0.227638 l -0.491647,-0.1229 -0.368732,-0.14045 -0.175592,-0.15807 -1.527618,-1.68565 -0.737478,-0.80768 -1.931473,-1.19399 -0.474086,-0.28096 -0.298501,-0.19316 -1.176448,-1.05354 -1.264233,-0.33361 -1.071094,0.15807 -0.14047,0.0526 -1.053533,0.49168 -0.0878,-0.63213 -0.05271,-0.35122 -0.158031,-0.61451 -0.14047,-0.28097 -0.140477,-0.22825 -0.35117,-0.26342 -0.280946,-0.1054 -0.228263,-0.0526 -0.7199161,-0.0177 -0.122909,0.0349 -0.702354,0.19315 -0.368739,0.17562 -0.175586,0.0702 -0.474092,0.33361 -0.544324,0.24587 -0.719916,0.158 -0.719911,-0.1054 -0.807708,-0.38625 -0.790148,-0.57948 -0.122916,-0.24581 -0.333615,-0.71993 -0.368739,-0.98328 -0.03509,-0.1054 -0.210708,-0.79019 -0.01755,-0.2107 v -0.56188 l 0.0878,-0.52677 0.193146,-0.35115 0.438971,-0.26342 0.544323,-0.0878 0.544325,0.1229 0.702355,0.31606 0.3863,0.17555 0.983294,0.45657 0.983295,0.52677 0.316061,0.1229 0.438971,0.12291 0.877947,0.1054 0.6145561,-0.0702 0.737471,-0.17554 0.07024,-0.0349 0.509209,-0.26334 0.263384,-0.12291 0.14047,-0.1054 0.07023,-0.0702 0.175591,-0.2107 0.210708,-0.79013 v -0.61458 l -0.158031,-0.56186 -0.421416,-0.52677 -0.386292,-0.26341 -0.386294,-0.24581 -1.2466791,-0.52677 -1.352033,-0.71992 -0.913063,-0.52677 -1.000856,-0.82529 -0.614562,-1.05347 -0.351178,-0.77264 -0.474085,-0.86039 -0.263385,-0.61457 -0.421409,-0.73741 -0.333624,-0.71992 -0.421409,-0.71994 -0.193146,-0.29851 -0.158031,-0.2458 -0.351177,-0.52677 -0.263385,-0.68477 -0.228263,-0.57948 0.03509,-0.61458 0.05271,-0.2809 0.07024,-0.19316 0.175585,-0.36877 0.368739,-0.158 0.14047,-0.0349 h 0.2985 l 0.43897,0.1931 0.456532,0.28096 0.632116,0.52677 0.438971,0.38631 0.509208,0.38626 0.877947,0.64968 0.509202,0.1054 0.737477,0.1054 1.088649,0.0702 0.6321171,-0.0878 0.07023,-0.0177 0.316055,-0.0878 0.509208,-0.1229 0.14047,-0.0349 h 0.210708 l 0.456532,0.0878 0.193146,0.0878 0.263385,0.15806 0.2985,0.22826 0.491648,0.24581 0.351177,0.1054 0.0878,-0.0349 0.368739,-0.14046 0.228263,-0.1405 0.140476,-0.14046 0.280939,-0.49167 0.0878,-0.47406 v -0.33361 l -0.03509,-0.33362 -0.01755,-0.24587 -0.122909,-0.50915 -0.368739,-0.79018 -0.351177,-0.52677 -0.544325,-0.19317 -0.895501,-0.17554 -2.107065,-0.28096 -0.1053501,-0.0177 -0.860385,-0.15807 h -1.352027 l -0.3863,-0.1054 -0.43897,-0.0878 -0.351178,-0.26341 -0.263385,-0.2809 -0.210701,-0.22832 -0.05271,-0.10541 -0.15803,-0.43896 0.03509,-0.45652 0.316062,-0.59702 0.263384,-0.35116 0.368733,-0.26335 0.43897,-0.17562 h 0.351178 l 0.351177,0.19317 0.491648,0.43896 0.122914,0.12291 0.351178,0.26341 0.43897,0.3687 0.333617,0.19316 0.3862991,0.0177 0.544325,-0.0702 0.421409,-0.10529 0.386299,-0.22827 0.42141,-0.38625 0.245824,-0.38632 0.01755,-0.52677 -0.07024,-0.61457 -0.245823,-0.89547 -0.14047,-0.89555 -0.15803,-0.87793 0.03509,-0.71993 v -0.21071 l 0.05265,-0.26335 0.0351,-0.1054 0.14047,-0.22826 0.368739,-0.28097 0.351178,-0.21071 0.456525,-0.14044 0.368738,-0.17562 0.456532,-0.2458 0.438969,-0.28096 0.386294,-0.38625 0.263385,-0.40387 0.0878,-0.35117 0.05271,-0.38631 0.122915,-0.61458 -0.158031,-0.80767 -0.0878,-0.38631 -0.105349,-0.28098 -0.386294,-1.01837 -0.10535,-0.22826 -0.913062,-1.68566 -0.245824,-0.52677 -0.10535,-0.43896 -0.03509,-0.26342 -0.0878,-0.63212 0.210708,-0.61451 0.280946,-0.61458 0.491647,-0.70238 0.07023,-0.0702 0.3863,-0.50922 0.860379,-0.61457 0.158031,-0.24581 0.07024,-0.14051 0.01754,-0.54432 -0.2985,-0.42141 -0.122909,-0.0702 -0.228269,-0.1229 -0.316055,-0.0526 h -0.228269 l -0.842825,0.0526 -0.614556,0.0702 -0.597008,0.0177 -0.632116,-0.0878 -0.456532,-0.28097 -0.456532,-0.45651 -0.333615,-0.50922 0.01754,-0.54432 0.140469,-0.29851 0.193148,-0.29851 0.368739,-0.54433 0.526762,-0.35115 0.368738,-0.17562 0.351179,-0.1054 1.000855,-0.0702 1.352033,0.22831 0.614555,0.10541 0.544325,0.0349 0.456531,-0.17562 0.632124,-0.14044 0.649678,-0.24581 0.632118,-0.22832 0.403854,-0.22826 0.561885,-0.2809 1.545179,-0.96573 0.983295,-0.52677 0.561886,-0.43896 0.73747,-0.59704 0.403855,-0.56186 0.368732,-0.64967 0.210707,-0.66728 0.01755,-0.17555 0.0878,-0.64967 0.01754,-0.29851 -0.05271,-0.19317 -0.105349,-0.42141 -0.0878,-0.2458 -0.175591,-0.43896 -0.10535,-0.15807 -0.14047,-0.2458 v -0.89554 l -0.280939,-0.26336 -0.298502,-0.0702 -0.403854,0.0702 -0.368739,0.17561 -0.509208,0.24581 -1.299356,0.71993 -2.247535,1.14128 -0.43897,0.22825 -0.526763,0.22833 -0.175592,0.0878 -0.632117,0.24587 -0.368739,0.0702 -0.263379,-0.0878 -0.2985,-0.17562 -0.0878,-0.0702 -0.140469,-0.22826 -0.175586,-0.35116 -0.140476,-0.24587 -0.0878,-0.2458 -0.0878,-0.61458 0.10535,-0.66721 0.193146,-0.35116 0.561885,-0.61457 0.368732,-0.24581 0.66724,-0.40387 0.614562,-0.15799 0.403855,-0.0178 h 1.229117 l 0.544325,0.0178 0.0878,-0.0349 0.544325,-0.15799 0.456531,-0.17562 0.351177,-0.26336 0.07024,-0.1054 0.210708,-0.33368 0.175584,-0.61451 0.0878,-0.79018 0.10535,-0.68477 0.193146,-0.57948 0.438977,-0.45651 0.175585,-0.158 0.895502,-0.22832 0.509208,-0.14045 0.456533,0.1054 0.526762,0.19316 0.544325,0.17561 0.333625,0.0177 0.245823,-0.0878 0.509202,-0.50922 0.403855,-0.54432 0.263385,-0.47406 0.10535,-0.19315 0.245823,-0.29852 0.403854,-0.47406 0.368739,-0.33367 0.403848,-0.26336 0.456531,-0.35116 0.351178,-0.40386 0.158031,-0.24581 0.122915,-0.17561 0.105349,-0.35116 0.298502,-0.33368 0.263377,-0.26334 0.298501,-0.43897 v -0.43896 l -0.245824,-0.63213 -0.07023,-0.35115 -0.245824,-0.36877 -0.280946,-0.17562 -0.193146,-0.0177 -0.193148,0.0526 -0.228262,0.17555 -0.210707,0.19316 -0.07024,0.1054 -0.122908,0.15806 -0.368739,0.50916 -0.351178,0.35123 -0.351177,0.0878 -0.175585,-0.1053 -0.05271,-0.0878 -0.07024,-0.28096 -0.07024,-0.61458 -0.01754,-0.1053 -0.210708,-0.61451 -0.0878,-0.43896 -0.193147,-0.57949 -0.316062,-0.31606 -0.263385,-0.28096 -0.614555,-0.2809 -0.35118,-0.0177 -0.632123,-0.10541 -0.245825,-0.1054 -0.561885,-0.31606 -0.895502,-0.71993 -0.07023,-0.0526 -0.509209,-0.66722 -1.035971,-1.75586 -0.07023,-0.1405 -0.474087,-1.17645 -0.210708,-0.84284 -0.122915,-0.56186 -0.07023,-0.42141 -0.03509,-0.47407 0.0878,-0.96573 v -0.29851 l 0.0351,-0.93063 0.05271,-0.19317 0.105349,-0.43896 v -0.26335 l 0.175586,-0.86038 0.10535,-0.64968 -0.10535,-0.79018 -0.05271,-0.35116 -0.05271,-0.24581 -0.333617,-0.64973 -0.175585,-0.43897 -0.263384,-0.63211 0.01754,-0.12291 0.05271,-0.21071 0.193146,-0.17554 0.175586,-0.15807 0.263385,0.0702 0.368733,0.17554 0.140475,0.19316 0.403855,0.64967 0.790148,1.33452 0.368732,0.56186 0.158031,0.2107 0.193146,0.22826 0.368739,0.38632 h 0.386294 l 0.122914,-0.0349 0.122909,-0.0702 0.351177,-0.43897 0.10535,-0.22825 0.05271,-0.24587 v -0.36871 l 0.03509,-0.52677 0.0878,-0.31606 0.228263,-0.49167 0.245823,-0.14045 0.368739,-0.17561 0.421411,-0.24581 0.10535,-0.0702 0.491648,-0.61451 0.01754,-0.35122 -0.0878,-0.45652 -0.245823,-0.35115 -0.456532,-0.45658 -0.07023,-0.1053 -0.07023,-0.15807 -0.07024,-0.19316 -0.05271,-0.2458 0.175594,-0.52677 0.368733,-0.36877 0.438969,-0.22826 0.263385,-0.2458 0.140471,-0.17562 0.158031,-0.26334 0.175591,-0.56187 0.10535,-0.31606 0.24583,-0.66729 0.210702,-0.31606 0.333622,-0.4038 0.456525,-0.42142 0.649678,-0.3336 0.456532,-0.24587 0.263384,-0.0349 h 0.351178 l 0.632117,0.0878 0.526769,0.17555 0.386294,0.31606 0.158031,0.14051 0.175585,0.26336 0.0878,0.52677 -0.175593,0.43896 -0.28094,0.43897 -0.280945,0.50922 -0.0878,0.10541 -0.0351,0.1054 -0.316062,0.61457 -0.351178,0.61458 -0.10535,0.61452 0.07024,0.33367 0.05271,0.24581 0.245824,0.38625 0.228263,0.17561 0.140475,0.0878 0.526764,-0.0878 0.210707,-0.0878 0.368733,-0.21071 0.368738,-0.63212 0.403855,-0.82523 0.175586,-0.35121 0.193152,-0.17556 0.456525,-0.43896 0.263385,-0.26342 0.175592,-0.14044 0.316056,-0.28097 0.368738,-0.52677 0.403855,-0.86038 0.474086,-0.87793 0.333622,-0.66722 0.368732,-0.87799 0.280947,-0.52677 0.351177,-0.43896 0.544325,-0.17555 0.351177,0.0878 0.368732,0.29846 0.193147,0.26341 0.140477,0.21071 0.158023,0.87792 -0.01755,0.49168 -0.03509,0.33361 -0.14047,0.50922 -0.122908,0.42135 -0.193147,1.01845 0.28094,0.79011 0.105349,0.31606 0.07023,0.17562 0.438977,0.64967 0.351177,0.43896 0.228263,0.19316 0.122915,0.0878 0.43897,0.10541 0.386294,-0.0177 0.456531,-0.17561 0.544331,-0.43896 0.719916,-1.22916 0.456531,-0.70232 0.351178,-0.79018 0.210701,-0.79013 0.01754,-0.1756 0.0878,-0.50916 0.01754,-0.38632 0.01755,-0.33361 0.01755,-0.98329 -0.07023,-0.71992 v -0.70239 l 0.0878,-1.12373 0.316062,-1.4925 0.2107,-0.70238 0.10535,-0.66722 0.298501,-0.54432 0.245823,-0.50922 0.140476,-0.28096 0.175583,-0.26336 0.298501,-0.4565 0.122913,-0.14052 0.351177,-0.43897 0.280942,-0.52676 0.386295,-0.50922 0.474089,-0.59697 0.403853,-0.38632 0.63212,-0.43896 1.615416,-0.52677 1.08865,-0.38632 0.64967,-0.22826 0.29851,-0.22825 0.15802,-0.1229 0.54433,-0.42142 0.42142,-0.45652 0.17558,-0.26341 0.17559,-0.31606 0.28095,-0.57941 0.0527,-0.0878 0.24581,-0.36871 0.56189,-0.77264 0.57945,-0.79011 0.54432,-0.79013 0.86038,-1.17651 0.6848,-0.94811 0.26338,-0.52677 0.1054,-0.26342 0.0175,-0.0878 0.0702,-0.26335 0.0878,-0.52677 0.0351,-0.47412 0.0527,-0.77257 0.1053,-0.87793 0.0175,-0.21071 0.0702,-0.57941 v -0.19316 l 0.0527,-0.22825 0.12292,-0.64968 0.19314,-0.43903 0.45653,-0.40381 0.3863,-0.31605 0.36873,-0.43897 0.1054,-0.35122 v -0.22826 l -0.0527,-0.28096 -0.0527,-0.10541 -0.14047,-0.19309 -0.21071,-0.26342 -0.14046,-0.14045 -0.21071,-0.1054 -0.14047,-0.0526 -0.45653,-0.10541 -0.45653,-0.0177 -0.63212,-0.0878 -0.29851,-0.0526 -0.12291,-0.0702 -0.1053,-0.0177 -0.17558,-0.1229 -0.17559,-0.17562 -0.0702,-0.14045 -0.0702,-0.61457 v -0.17555 l 0.0352,-0.14052 0.19315,-0.68477 0.28094,-0.56186 0.38629,-0.52677 0.0527,-0.0878 0.49166,-0.50922 0.49165,-0.45652 0.54432,-0.3336 0.2985,-0.0348 0.52677,-0.0526 0.52676,-0.0178 0.0878,0.0178 0.45654,-0.0349 0.8077,-0.0349 0.49165,-0.0177 0.66724,-0.0177 0.64968,-0.0702 1.08865,-0.42142 0.33362,-0.19315 0.82527,-0.42142 0.73747,-0.42141 0.35117,-0.1931 0.63212,-0.54438 0.12291,-0.17555 0.33363,-0.49168 0.47409,-0.68477 0.24581,-0.57947 0.28095,-0.52677 0.24582,-0.36871 0.1756,-0.17561 0.31605,0.0177 h 0.15804 l 0.0702,0.0526 0.2107,0.1054 0.31606,0.31606 0.35117,0.17562 0.22828,0.1054 0.26338,0.0526 h 0.33361 l 0.15803,-0.0349 0.45654,-0.1756 0.38629,-0.158 0.28094,-0.35123 0.19315,-0.43896 0.0878,-0.43896 -0.0878,-0.52677 -0.0878,-0.43896 -0.12291,-0.19317 -0.19315,-0.2458 -0.33361,-0.45651 -0.35119,-0.28097 -0.26338,-0.33361 -0.24582,-0.47412 -0.17558,-0.33361 -0.33363,-0.64967 -0.33361,-0.80767 -0.52677,-0.84283 -0.35118,-0.61458 -0.0527,-0.21071 v -0.14045 l 0.12292,-0.33367 0.10529,-0.10541 0.45653,-0.43896 0.54432,-0.43896 0.35119,-0.17554 0.45652,-0.26342 0.47409,-0.54432 0.0527,-0.1229 0.15803,-0.40387 0.0175,-0.61457 0.10529,-0.43897 0.1053,-0.35116 v -0.17561 l 0.1054,-0.19316 0.15803,-0.24581 0.12291,-0.1054 0.0702,-0.0702 0.17558,-0.0878 0.35119,-0.26342 0.33361,-0.2458 0.17559,-0.31606 0.2107,-0.52677 0.0175,-0.35116 v -0.50921 l -0.0702,-0.47414 0.0175,-0.26334 0.0527,-0.40387 0.0352,-0.21071 0.1053,-0.2809 0.1054,-0.1054 0.21071,-0.19317 0.0878,-0.0178 h 0.24582 l 0.28095,0.0878 0.43897,0.43896 0.33361,0.22833 0.49166,0.17554 0.36873,0.0702 0.54433,0.0878 h 0.38629 l 0.24583,-0.15807 0.10529,-0.33361 0.0352,-0.2107 -0.0702,-0.54432 -0.24583,-0.43896 -0.0878,-0.0526 -0.26339,-0.14044 -0.22826,-0.1229 -0.14047,-0.0702 -0.57945,-0.26336 -0.2985,-0.38631 -0.0702,-0.22826 -0.0527,-0.22826 0.1054,-0.63211 0.1756,-0.59704 0.17558,-0.3687 0.17559,-0.35116 0.1053,-0.35122 v -1.14128 l 0.19315,-0.35122 0.17558,-0.38626 0.26339,-0.42141 0.0175,-0.10541 0.0175,-0.28096 0.0175,-0.52677 -0.15803,-0.43896 -0.0702,-0.45652 v -0.3336 l 0.1053,-0.36877 0.28093,-0.33361 0.0702,-0.0702 0.29851,-0.26335 0.45653,-0.10541 0.33362,-0.15806 0.35117,-0.26336 0.26338,-0.35115 0.1756,-0.49168 0.21071,-0.70238 0.10529,-0.5267 0.2985,-0.61457 0.26338,-0.54433 0.14048,-0.21071 0.8077,-0.61457 0.54433,-0.3336 0.38629,-0.17562 0.50921,-0.19316 1.17644,-0.43896 0.9833,-0.26336 1.26424,-0.15806 1.14132,-0.26335 0.0878,-0.0177 1.47495,-0.45658 1.08864,-0.4038 0.73748,-0.68483 0.24582,-0.21071 0.40385,-0.38633 0.597,-0.7374 0.474087,-1.07116 0.21071,-1.05347 0.0702,-0.40387 0.0352,-0.21071 0.12291,-0.61458 0.0175,-0.1054 0.0878,-0.50922 0.0352,-0.17555 0.1229,-0.45658 0.19316,-0.35115 0.26338,-0.45652 0.28094,-0.52677 0.26338,-0.33361 0.2985,-0.40387 0.17559,-0.43896 0.21071,-0.3336 0.31606,-0.57948 0.35117,-0.54433 0.28095,-0.35115 0.26338,-0.26342 0.19314,-0.43897 -0.0878,-0.43896 -0.19315,-0.26334 -0.26338,-0.28097 -0.19314,-0.33361 0.0175,-0.36877 v -0.45652 l 0.19314,-0.52677 0.0351,-0.1229 0.14047,-0.47406 0.17559,-0.52677 0.0352,-0.21071 0.0527,-0.24587 v -0.50915 l -0.26338,-0.28096 -0.43897,-0.10541 -0.45653,0.0702 -0.26338,0.0526 -0.19316,0.0177 h -0.26338 l -0.19314,-0.0349 -0.0702,-0.0349 -0.19314,-0.12297 -0.15803,-0.26335 0.0702,-0.29852 0.0702,-0.1054 0.14047,-0.1229 0.21071,-0.0702 0.24583,-0.0878 0.36873,-0.17562 0.19315,-0.0526 0.26338,-0.1054 0.36873,-0.1931 0.12291,-0.0526 0.12292,-0.0702 0.14046,-0.1054 0.1756,-0.21071 0.1054,-0.21063 v -0.36878 l -0.0702,-0.61457 -0.15803,-0.52677 -0.12292,-0.31606 -0.19314,-0.31606 -0.54432,-0.71986 -0.14047,-0.19317 -1.19401,-1.56276 -0.71991,-0.96573 -0.35118,-0.63213 -0.36874,-0.68477 -0.316057,-0.42141 -0.0702,-0.19316 -0.0527,-0.19316 0.14047,-0.59696 0.22827,-0.38633 0.298497,-0.31606 0.14047,-0.2985 -0.0878,-0.52677 -0.21071,-0.56187 -0.0878,-0.14045 -0.0878,-0.12297 -0.24582,-0.54432 -0.0702,-0.57941 v -0.47413 l -0.0702,-0.3687 -0.0175,-0.31607 -0.0878,-0.3336 -0.12292,-0.42142 -0.0878,-0.17561 -0.17559,-0.17555 -0.17559,-0.19315 -0.79015,-0.54432 -0.0878,-0.0178 -1.26424,-0.35123 -0.36874,-0.12289 -0.31606,-0.21071 -0.26338,-0.35117 -0.17559,-0.36877 0.0175,-0.17554 0.0352,-0.0878 0.0878,-0.17562 0.1756,-0.0878 0.28094,-0.0878 0.2985,-0.0177 0.12291,-0.1229 0.19315,-0.17555 0.19314,-0.24587 -0.0175,-0.31606 -0.14047,-0.22826 -0.0878,-0.26335 0.0175,-0.26342 0.1054,-0.35116 0.0527,-0.0878 0.12291,-0.17554 0.28094,-0.15806 0.38629,-0.158 0.26338,-0.0878 0.36874,-0.29852 v -0.59702 l -0.35117,-0.33361 -0.45654,-0.43897 -0.1053,-0.1229 -0.29849,-0.36877 -0.0878,-0.26335 -0.0352,-0.22826 0.0702,-0.52677 0.19314,-0.17561 0.17559,-0.0878 0.26339,0.15806 0.28094,0.1054 0.26338,0.0878 h 0.19315 l 0.17559,-0.0878 0.17558,-0.52677 0.47409,-0.40386 0.19315,-0.14045 0.2985,-0.21071 0.438977,-0.15806 0.35117,-0.0702 0.36873,-0.0702 0.14048,-0.0878 h 0.0878 v -0.43896 l -0.17559,-0.26335 -0.38629,-0.19316 -0.35118,-0.1054 -0.333617,-0.21071 -0.1054,-0.1054 -0.0702,-0.36877 v -0.49161 l 0.1053,-0.35122 0.193157,-0.33362 0.33361,-0.47405 0.17559,-0.15807 0.15803,-0.14045 0.36873,-0.42141 0.21071,-0.54432 0.0702,-0.47406 v -0.84283 l -0.26338,-0.70238 -0.26339,-0.36871 -0.1054,-0.24587 v -0.19309 l 0.1054,-0.43903 0.1756,-0.35115 0.10529,-0.19317 0.12292,-0.158 0.31606,-0.26341 0.26338,-0.35117 0.17559,-0.35115 -0.0175,-0.22825 -0.15803,-0.21071 -0.26338,-0.36878 -0.597,-0.54432 -0.29851,-0.24579 -0.0878,-0.0878 -0.2107,-0.29852 -0.35119,-0.3687 -0.175577,-0.43897 -0.1756,-0.38631 -0.35117,-0.45651 -0.49165,-0.43903 -0.21071,-0.158 -0.19314,-0.1054 -0.9833,-0.36871 -1.2818,-0.54438 -1.15888,-0.35116 -1.35203,-0.59696 -0.61457,-0.29851 -0.42141,-0.28097 -0.29849,-0.14045 -0.10541,-0.19315 -0.0352,-0.19317 0.0352,-0.19316 0.17559,-0.1054 0.1054,-0.0526 0.26339,0.0178 0.36873,0.0878 0.45653,0.1229 0.28095,-0.0349 0.26338,-0.26342 0.0878,-0.26335 v -0.15806 l -0.15803,-0.2458 -0.12291,-0.12291 -0.43897,-0.26342 -0.43898,-0.17554 -0.26338,-0.19315 -0.0878,-0.0878 -0.19315,-0.24581 -0.0175,-0.45657 0.24583,-0.43897 0.40384,-0.96573 0.35119,-0.70232 0.26338,-0.54431 0.0702,-0.1054 0.17558,-0.56193 0.0175,-0.52677 -0.15803,-0.73748 -0.49165,-0.87793 -0.35117,-0.63213 -0.33363,-0.4565 -0.15803,-0.33361 -0.0878,-0.38632 v -0.35116 l 0.29851,-0.59703 0.19314,-0.43896 0.28095,-0.43896 0.10529,-0.24581 0.10541,-0.28096 0.1054,-0.43896 -0.0878,-0.52677 -0.15803,-0.35117 -0.43897,-0.4565 -0.50921,-0.82529 -0.24582,-0.33361 -0.0878,-0.12297 -0.36874,-0.56186 -0.35117,-0.45652 -0.50921,-0.50922 -0.597,-0.64967 -0.52677,-0.35115 -0.43896,-0.17562 -0.26339,-0.0526 h -0.26338 l -0.28095,-0.0178 -0.63212,0.0702 -0.71991,-0.28097 -0.52676,-0.38626 -0.0527,-0.0878 -0.12292,-0.40387 -0.14047,-0.31606 v -0.52677 l 0.0527,-0.19316 0.0878,-0.19309 0.1756,-0.35123 0.26338,-0.2809 0.36874,-0.35122 0.17558,-0.43896 -0.0175,-0.38625 -0.15802,-0.22826 -0.26339,-0.17562 -0.12291,-0.0349 h -0.28095 l -0.26338,-0.0526 h -1.35203 l -1.31691,-0.0177 h -0.24583 l -0.33362,-0.0526 -0.49164,-0.0349 -0.31606,-0.1054 -0.26338,-0.0526 -0.35119,-0.31606 -0.22826,-0.50923 -0.0175,-0.4565 0.10529,-0.43904 0.19315,-0.17554 0.36874,-0.0702 0.33361,-0.0702 0.47409,0.10541 0.42142,0.0526 h 0.2107 l 0.24583,0.0177 h 0.35117 l 0.29851,-0.10529 0.15803,-0.0702 0.0352,-0.1054 v -0.17555 l -0.0702,-0.26341 -0.19315,-0.1054 -0.1053,-0.1229 -0.12291,-0.0349 -0.29851,-0.14044 -0.0878,-0.0355 -0.17558,-0.14046 -0.26339,-0.17561 -0.0878,-0.2107 v -0.22826 l -0.0702,-0.38625 -0.17558,-0.26342 -0.28095,-0.26335 -0.597,-0.19316 -0.2985,-0.1054 -0.10529,-0.0178 -0.42142,-0.14052 -0.19315,-0.26334 -0.0352,-0.15806 0.0175,-0.14046 0.1053,-0.63212 0.1054,-0.42142 0.28095,-0.35115 0.19314,-0.50922 0.0702,-0.17562 0.1756,-0.52677 0.17558,-0.26334 0.28094,-0.36871 0.26338,-0.24587 0.36874,-0.24581 0.1053,-0.0177 h 0.43897 l 0.17559,0.0349 0.21071,0.0178 0.14047,0.0348 0.1053,0.0177 0.26338,0.0702 0.42141,0.17561 h 0.2985 l 0.26338,-0.0878 0.19315,-0.17555 v -0.26342 l -0.17558,-0.158 -0.52677,-0.38631 -0.15803,-0.0702 -0.28095,-0.12291 -0.45652,-0.0878 -0.35119,-0.1054 -0.2107,-0.22826 v -0.26334 l 0.0878,-0.17562 0.36873,-0.43896 0.63212,-0.43896 0.98329,-0.43898 0.3863,-0.0702 0.42141,-0.29852 0.0527,-0.0526 0.14046,-0.19316 0.0878,-0.43896 v -1.05354 l 0.17559,-0.49168 0.19315,-0.2458 0.26338,-0.0702 0.28094,0.0702 0.43897,0.1054 h 0.49165 l 0.24582,-0.14044 0.21071,-0.19316 0.0352,-0.0878 0.12291,-0.158 0.19315,-0.33368 0.28094,-0.35116 0.17559,-0.26335 0.14047,-0.14052 0.35118,-0.0878 0.52677,-0.17561 0.36873,-0.15806 0.36874,-0.35116 0.21071,-0.33361 0.15803,-0.47406 0.17558,-0.43903 0.28094,-0.43897 0.36874,-0.26334 0.15803,-0.15807 0.26338,-0.31607 0.14048,-0.26334 0.15803,-0.50923 0.0878,-0.52677 0.0527,-0.45651 0.0352,-0.42142 v -1.14134 l -0.17559,-1.68566 v -0.61451 l -0.15803,-0.56193 0.0702,-0.33361 0.10541,-0.33361 0.21071,-0.28097 0.15803,-0.19309 0.0702,-0.15807 0.19315,-0.17554 v -0.17561 l -0.0175,-0.36877 -0.26338,-0.35116 -0.26339,-0.17561 h -0.66724 l -0.14047,0.0526 -0.43897,0.40387 -0.22826,0.36871 -0.28095,0.42142 -0.24582,0.17561 -0.15803,0.1054 -0.36874,0.0526 -0.17558,-0.0702 -0.12292,-0.15807 -0.0878,-0.22825 -0.61456,-1.07109 -0.26339,-0.57941 -0.0878,-0.17561 -0.0702,-0.19316 -0.19314,-0.26336 -0.12292,-0.22831 0.0175,-0.61452 0.0175,-0.47412 0.21071,-0.57942 0.0702,-0.38632 -0.1054,-0.47406 -0.21071,-0.2985 -0.2107,-0.33362 -0.12291,-0.21071 -0.0702,-0.54432 -0.0878,-0.26341 0.0175,-0.43896 0.2985,-0.50923 0.28094,-0.43896 0.36874,-0.43896 0.28094,-0.42142 0.1053,-0.43897 -0.0878,-0.40386 -0.0352,-0.10541 -0.14047,-0.33361 -0.35118,-0.26335 -0.36874,-0.1054 -0.61456,0.0878 -0.45652,0.0878 h -0.45654 l -0.17558,-0.0349 -0.15803,-0.0878 -0.17559,-0.26335 0.0175,-0.36878 0.19314,-0.17554 0.31606,-0.12296 0.1053,-0.0349 0.50921,-0.14045 0.45653,-0.19316 0.26338,-0.2458 0.36874,-0.50923 0.68479,-1.2116 0.66724,-0.94811 0.14047,-0.26343 0.22827,-0.43896 0.38629,-0.59702 0.38629,-0.52677 0.40386,-0.45652 0.36874,-0.33361 0.0878,-0.0526 0.26338,-0.14052 0.54433,-0.26335 0.63211,-0.0878 0.89551,0.12291 0.31606,0.0349 0.75504,0.0878 h 0.10529 l 0.35118,-0.0526 0.28094,-0.0878 0.43896,-0.17561 0.28095,-0.26336 0.26339,-0.43896 0.17558,-0.35122 0.1053,-0.33361 0.14047,-0.26335 0.1053,-0.1229 0.1054,-0.0702 0.36873,-0.1756 0.1053,-0.0349 h 0.14048 l 0.15803,0.0878 0.31605,0.21071 0.33362,0.24581 0.386287,0.17561 0.26339,-0.15806 0.12291,-12.90576 0.0702,-4.0912 0.0878,-7.37477 0.22826,-16.54043 0.0878,-7.2869 v -1.98418 l 0.24583,-18.82312 0.26338,-27.67272 0.0352,-2.75675 0.0352,-3.96829 0.28095,-20.77214 0.35117,-27.74304 0.10541,-3.81029 0.71991,-24.03805 0.8077,-27.40937 0.2985,-12.6424 0.0527,-2.30024 0.28095,-11.58886 0.28093,-28.21704 0.1054,-8.30535 v -0.63213 l 0.24583,-19.10408 0.43896,-27.67272 0.0175,-0.43903 0.0352,-6.04021 0.31606,-21.24626 0.12291,-8.37553 0.33363,-19.665963 0.0175,-6.11047 0.22827,-21.5096 0.26338,-12.220987 0.36874,-15.66252 0.632124,-27.79568 0.0351,-3.77513 0.10541,0.0878 1.42227,1.51006 -0.35118,0.52677 0.35118,0.43896 1.96659,1.79102 1.07109,0.96573 1.08863,0.45651 0.26339,0.61458 0.8955,0.43896 0.8077,0.71993 1.43984,0.71986 1.61541,-0.43896 1.52762,1.86127 0.54433,-0.17561 0.0878,-1.42225 1.61541,-1.40469 0.98331,0.98328 -3.24839,3.61714 2.42311,2.47577 h 0.89551 l 1.00085,0.0177 h 0.17559 l 0.63212,0.52677 1.791,0.63213 2.51092,1.07108 0.54433,0.26342 2.51091,0.63212 2.24754,0.5267 1.61542,0.0178 0.8077,0.79013 0.9833,0.36877 h 2.15975 l 0.63211,0.0878 1.8788,-0.0702 1.89636,-0.0878 7.00598,-0.68483 6.65481,-1.4925 8.19999,-2.44063 4.23169,-1.5803 2.24753,-1.05354 1.43982,-0.52677 1.35204,-0.70238 2.07195,-0.87793 1.70321,-0.70238 1.61541,-0.70232 1.26425,-0.71992 1.52761,-0.70239 1.89636,-1.05347 2.51092,-1.31695 2.07194,-1.14129 1.72077,-0.87798 1.07109,-0.43897 1.00085,-0.26335 1.42228,-0.52677 0.91305,-0.35122 0.54433,-1.33444 0.52676,-0.17562 0.19315,-0.52677 0.89551,-0.43896 1.43982,-0.61458 1.43982,-0.79011 1.17646,-0.61458 1.70321,-0.98329 2.70406,-1.5803 0.89551,-0.52677 z"
         id="path1909" />
    </clipPath>
  </defs>
  <sodipodi:namedview
     id="namedview14320"
     pagecolor="#ffffff"
     bordercolor="#666666"
     borderopacity="1.0"
     inkscape:pageshadow="2"
     inkscape:pageopacity="0.0"
     inkscape:pagecheckerboard="0"
     showgrid="false"
     inkscape:zoom="0.392"
     inkscape:cx="246.17347"
     inkscape:cy="501.27551"
     inkscape:window-width="1366"
     inkscape:window-height="697"
     inkscape:window-x="-8"
     inkscape:window-y="-8"
     inkscape:window-maximized="1"
     inkscape:current-layer="svg14318" />
  <g
     id="g1887"
     transform="translate(-2.5577279,130.85544)"
     clip-path="url(#clipPath1907)">
    <path
       fill="#000f5d"
       d="m -117.34772,-260.07902 h 717.3477 V 1164.8298 h -717.3477 z"
       id="path1866"
       style="stroke-width:1" />
    <path
       d="m 360,55.54 h 12.76 l 4.21,-12.47 3.9,12.51 h 12.85 l -10,8.09 3.61,11.85 -10.53,-7.13 -10.44,7.17 3.56,-12 z m 56,50.1 h 12.8 l 4.2,-12.48 3.9,12.5 h 12.85 l -10,8.1 3.61,11.84 -10.53,-7.12 -10.43,7.18 3.55,-12 z m 29.81,72.1 h 12.77 l 4.2,-12.47 3.9,12.5 h 12.85 l -10,8.1 3.61,11.84 -10.53,-7.12 -10.43,7.18 3.55,-12 z m -60.7,24.2 h 12.77 l 4.2,-12.46 L 406,202 h 12.85 l -10,8.1 3.61,11.84 -10.46,-7.15 -10.48,7.21 3.55,-12 z m 49.14,55.59 H 447 l 4.21,-12.47 3.9,12.51 H 468 l -10,8.09 3.61,11.85 -10.53,-7.12 -10.43,7.17 3.55,-12 z m -44.96,61.69 h 12.76 l 4.21,-12.46 3.89,12.5 H 423 l -10,8.1 3.62,11.84 -10.53,-7.12 -10.44,7.17 3.56,-12 z m -34.35,-47.81 h 12.76 l 4.21,-12.47 3.9,12.51 h 12.85 l -10,8.09 3.61,11.84 -10.53,-7.11 -10.43,7.17 3.55,-12 z m -32.6,86.12 h 12.77 l 4.2,-12.47 3.9,12.51 h 12.86 l -10,8.09 3.61,11.84 -10.53,-7.11 -10.43,7.17 3.55,-12 z m -80.73,0 h 12.76 l 4.21,-12.47 3.89,12.51 h 12.86 l -10,8.09 3.67,11.83 -10.53,-7.11 -10.47,7.17 3.56,-12 z m -28.8,-86.12 h 12.76 l 4.21,-12.47 3.9,12.51 h 12.85 l -10,8.09 3.61,11.84 -10.53,-7.11 -10.44,7.17 3.56,-12 z m -38.28,47.81 h 12.76 l 4.21,-12.46 3.89,12.5 h 12.86 l -10,8.1 3.61,11.84 -10.53,-7.12 -10.44,7.17 3.56,-12 z m -44.12,-61.69 h 12.76 l 4.21,-12.47 3.9,12.51 h 12.85 l -10,8.09 3.61,11.85 -10.53,-7.12 -10.44,7.17 3.56,-12 z m -9.94,-79.79 h 12.76 l 4.21,-12.47 3.89,12.5 h 12.86 l -10,8.1 3.61,11.84 -10.52,-7.12 -10.44,7.18 3.55,-12 z m 61.85,24.2 h 12.76 l 4.21,-12.46 3.9,12.5 H 216 l -10,8.1 3.61,11.84 -10.53,-7.12 -10.36,7.2 3.56,-12 z m -31.43,-96.3 h 12.76 l 4.21,-12.47 3.9,12.5 h 12.85 l -10,8.1 3.61,11.84 -10.53,-7.12 -10.43,7.18 3.55,-12 z m 56.43,-50.1 h 12.76 l 4.21,-12.47 3.89,12.51 H 241 l -10,8.09 3.61,11.85 -10.53,-7.12 -10.44,7.17 3.56,-12 z m 76.45,-20.93 h 12.77 l 4.2,-12.46 3.9,12.5 h 12.86 l -10,8.1 3.61,11.84 -10.52,-7.12 -10.44,7.17 3.55,-12 z m 83,44.31 -37.72,53.74 -2.34,-1.66 37.73,-53.72 z"
       fill="#d59f0f"
       id="path1868" />
    <path
       d="m 420.75,116.55 -87.65,33.71 -1,-2.68 87.64,-33.71 z m 20.11,64.68 -106.59,-12.77 0.34,-2.86 106.6,12.78 z M 284,298 h 12.76 l 4.21,-12.47 3.9,12.5 h 12.85 l -10,8.1 3.61,11.84 -10.53,-7.17 -10.44,7.2 3.56,-12 z M 280,93 h 15.78 L 301,77.56 305.8,93 h 15.87 l -12.31,10 4.46,14.62 -13,-8.77 -12.91,8.85 4.39,-14.84 z m -0.34,86.17 -0.08,-0.1 c -12.21,-16.13 0.21,-22 0.46,-33.46 8.08,15 -3.76,19.66 10.31,33.57 z"
       fill="#d59f0f"
       id="path1870" />
    <path
       d="m 293.14,179.18 c -4.3,-6.05 -7.32,-15.7 -6,-22 1.32,-6.3 5.65,-12.51 5,-17.28 2.28,5.37 5.1,5.38 4.43,9.33 3.42,-10.19 4.87,-18 15.52,-18.52 -11.24,16.36 11.57,30.34 -5,48.49 z"
       fill="#d59f0f"
       id="path1872" />
    <path
       d="m 310.69,179.2 c 15.21,-18.35 -4.14,-27.75 13.5,-36 0.64,5.42 -3.68,5.42 -1.77,12.06 a 13.14,13.14 0 0 1 -1,7.22 c 1.8,-2.2 5.29,-6.35 7.5,-8 -5.24,7.9 4.63,14.82 -8,24.65 h -10.49 m 1.43,46.14 c 0.8,-20.45 5.18,-26.68 13.47,-35.23 h -48.72 c 8.26,8.56 12.63,14.79 13.39,35.24 q 10.94,-0.05 21.86,-0.01 z m -11,49.92 6.37,20 3.51,-59.27 h -19.67 l 3.37,59.29 z m -0.1,89.57 c 2.81,-2.6 3.61,-11.09 3.61,-11.09 l 1.75,-34.67 -5.31,-3.73 -5.32,3.73 1.69,34.65 c 0,0 0.76,8.46 3.57,11.09 z m 28.48,-178.39 -56.6,-0.06 v -5.38 l 56.61,0.06 z m -13.78,47.75 H 285.6 v -6.72 h 29.86 z m -154.99,-52.89 106.58,-12.77 -0.33,-2.86 -106.61,12.78 z m 20.25,-64.68 87.65,33.71 1,-2.68 -87.64,-33.71 z M 235,78.92 272.72,132.66 275.06,131 237.32,77.28 Z m 64.11,35.26 v 11.47 H 302 V 114.17 Z M 277.23,85.49 266.6,80 267.34,78.56 278,84 l -0.74,1.45 m 1.74,-3.89 -8.59,-8.31 1.27,-1.25 10.13,2 a 5,5 0 0 1 0.61,0.14 4.7,4.7 0 0 1 0.49,0.16 l -7,-6.73 1.09,-1.11 8.59,8.3 -1.2,1.24 -10.3,-2 -0.47,-0.12 -0.47,-0.17 7,6.73 -1.15,1.12 m 9.07,-19.7 -2.6,1 3.31,8.49 2.6,-1 a 3.2,3.2 0 0 0 2.1,-2.06 5.5,5.5 0 0 0 -0.39,-3.55 A 5.23,5.23 0 0 0 291,62 3.22,3.22 0 0 0 288.07,61.9 m -0.27,11.45 -4.3,-11.18 4.24,-1.65 a 4.88,4.88 0 0 1 4.1,0 6.32,6.32 0 0 1 2.81,3.53 6.85,6.85 0 0 1 0.36,4.73 4.79,4.79 0 0 1 -3,2.9 l -4.18,1.63 m 11.24,-3.39 -0.94,-11.92 1.62,-0.13 0.95,11.91 -1.62,0.13 m 7.31,-4.91 3.66,0.7 -0.83,-5.53 -2.83,4.83 m -4.33,4.22 6.61,-10.9 1.76,0.34 2.12,12.58 -1.73,-0.33 -0.57,-3.75 -4.62,-0.89 -1.92,3.27 -1.65,-0.32 m 11.68,2.65 6.75,-9.85 1.47,1 -0.3,10.32 v 0.62 c 0,0.19 -0.05,0.36 -0.08,0.51 l 5.47,-8 1.28,0.88 -6.75,9.86 -1.46,-1 0.27,-10.48 v -0.49 c 0,-0.16 0.06,-0.32 0.1,-0.5 l -5.48,8 -1.27,-0.88 m 14.86,6.51 2,3.15 3.48,-4.38 -5.46,1.23 m -6.05,-0.28 12.43,-2.57 1,1.48 -7.74,10.14 -0.94,-1.49 2.34,-3 -2.5,-4 -3.7,0.83 -0.9,-1.42"
       fill="#d59f0f"
       id="path1874" />
  </g>
</svg>
