<?xml version="1.0" encoding="UTF-8" standalone="no"?>
<svg
   viewBox="0 0 35583.794 57341.741"
   height="1911.3914"
   width="1186.1265"
   version="1.1"
   id="svg8749"
   sodipodi:docname="Flag-map_of_Mississippi-old.svg"
   inkscape:version="1.1.1 (3bf5ae0d25, 2021-09-20)"
   xmlns:inkscape="http://www.inkscape.org/namespaces/inkscape"
   xmlns:sodipodi="http://sodipodi.sourceforge.net/DTD/sodipodi-0.dtd"
   xmlns="http://www.w3.org/2000/svg"
   xmlns:svg="http://www.w3.org/2000/svg">
  <defs
     id="defs8753">
    <clipPath
       clipPathUnits="userSpaceOnUse"
       id="clipPath9447">
      <path
         style="color:#000000;fill:#ffffff;stroke-width:1951.35;stroke-linejoin:round;-inkscape-stroke:none"
         d="m 33427.731,-17414.894 -73.839,2.133 h -41.733 l -725.466,7.503 -782.208,7.481 -136.953,2.154 -317.811,3.198 -1304.346,20.335 -1201.65,17.116 -1152.412,14.985 -356.328,6.415 -975.857,18.203 h -33.188 l -888.123,5.35 -317.79,2.133 -1443.472,10.7 -1078.576,7.482 -450.498,-1.065 -2028.77,4.285 -803.587,1.065 -786.47,-1.065 -1578.292,-2.133 -3817.869,-18.203 -321.008,-2.133 4.284,60.983 36.386,75.968 67.42,81.339 93.084,69.552 134.819,94.149 121.988,79.187 99.521,70.617 37.451,32.101 21.4,50.304 16.051,84.516 22.466,111.287 -1.071,99.521 -5.35,64.202 -16.05,69.551 -33.188,55.633 -45.999,74.902 -58.851,52.436 -69.552,47.085 -43.867,14.985 -46.02,8.547 -59.917,21.401 -54.567,16.051 -55.655,35.319 -50.282,36.385 -33.167,26.75 -28.904,25.665 -24.597,36.385 -9.635,22.466 -7.503,37.451 11.788,37.451 9.613,43.888 -5.35,58.852 -16.051,48.151 -33.166,37.451 -20.335,10.7 -27.817,4.264 -34.232,-4.264 -31.035,-7.503 -34.232,-19.248 -38.538,-43.887 -51.349,-37.451 -31.035,-32.101 -16.051,-17.117 -21.4,-10.7 h -17.116 l -5.351,-1.065 -33.166,-1.065 -44.954,20.335 -97.368,40.648 -49.218,26.751 -36.38,25.685 -33.167,14.984 -38.517,10.701 -46.019,12.832 -21.401,10.7 -38.517,16.05 -33.166,33.167 -39.604,52.435 -44.933,52.436 -41.735,28.883 -13.919,5.35 -19.248,5.35 -43.867,10.7 h -29.969 l -17.116,-5.35 -23.554,-48.151 -70.617,-242.888 -33.167,-161.57 -21.4,-92.019 -21.401,-58.851 -22.466,-38.538 -32.101,-48.151 -37.451,-27.817 -54.567,-22.466 -72.771,-14.985 -59.917,-5.35 -59.917,19.269 -66.355,34.232 -43.867,40.67 -32.101,43.867 -12.831,60.983 -3.219,55.654 9.635,70.618 21.4,56.72 35.298,63.115 58.852,70.638 37.451,60.983 25.685,59.918 22.466,58.851 38.538,64.202 10.7,54.568 -5.35,23.553 -27.838,36.385 -22.466,20.314 -33.167,26.75 -26.75,42.801 -13.919,42.801 -7.482,53.502 5.35,43.887 4.285,53.502 24.598,75.968 68.486,134.819 59.917,86.668 35.32,68.486 35.319,60.984 27.816,53.501 4.285,49.238 -6.438,53.501 -23.532,48.152 -34.232,36.364 -43.888,37.451 -67.399,35.319 -75.968,31.035 -95.237,19.248 -65.267,9.634 -93.105,-7.481 -75.968,-16.051 -59.917,-22.466 -59.918,-26.751 -43.888,-26.751 -21.401,-33.187 -1.071,-32.101 17.117,-32.101 31.035,-36.364 39.603,-33.187 43.867,-51.349 45.999,-64.202 22.487,-48.151 9.613,-41.736 -2.133,-42.801 -3.218,-58.851 -10.7,-70.618 -27.817,-74.902 -32.101,-86.668 -27.816,-54.588 -33.167,-26.751 -49.217,-10.7 -75.989,5.35 -70.618,23.553 -50.282,51.349 -38.517,58.852 -17.137,70.638 -5.351,58.851 10.701,54.568 16.05,58.851 22.488,54.568 16.05,48.151 16.051,58.851 v 54.568 l -10.701,26.75 -66.354,-5.35 h -33.163 l -22.466,9.635 -22.466,26.75 -39.604,41.736 -39.583,48.151 -23.553,51.349 -21.4,47.085 -11.767,49.217 v 38.538 l 5.35,32.101 12.854,34.232 13.897,29.969 27.817,27.817 33.188,26.751 75.967,37.451 62.049,33.166 51.37,23.533 56.72,8.568 140.17,11.766 139.103,10.701 h 74.902 l 103.784,7.502 107.003,14.964 46.02,16.051 48.151,22.487 25.685,31.014 5.35,43.888 v 53.501 l -10.7,42.801 -22.488,59.918 -43.867,74.902 -83.449,79.186 -84.537,73.815 -57.785,62.07 -70.618,75.968 -79.186,72.77 -60.983,57.786 -63.136,35.298 -55.655,21.401 -48.151,4.284 -50.282,-4.284 -59.918,-16.051 -36.385,-21.4 -51.37,-43.867 -33.167,-53.501 -16.05,-66.334 7.503,-85.602 37.451,-85.602 45.998,-67.421 41.736,-44.932 18.182,-36.385 6.437,-53.502 3.197,-44.953 -17.116,-52.415 -28.882,-49.238 -3.219,-5.35 -37.451,-34.233 -50.283,-26.751 -19.269,-8.568 -291.039,217.224 -20.334,189.387 48.151,178.707 -4.285,37.451 -2.133,36.385 -3.218,50.283 1.071,79.186 5.35,37.451 4.284,28.883 13.919,84.536 24.598,114.485 20.335,65.288 24.619,45.999 13.898,28.903 38.516,86.668 33.188,70.618 49.217,48.151 4.285,2.133 45.998,29.969 48.151,69.552 110.222,236.472 -21.401,131.622 -7.503,5.35 -38.517,21.401 -60.983,32.1 -83.471,45.999 -64.201,51.37 -8.547,6.416 -57.786,52.435 -43.867,48.152 -38.538,58.851 -52.414,84.537 -27.838,81.317 -7.482,71.684 -5.35,70.638 5.35,69.552 10.7,72.749 7.482,23.554 -1.071,49.217 107.003,161.57 100.587,161.57 4.284,130.556 -80.252,171.204 -298.5426,231.123 -326.3586,141.235 h -99.5208 l -112.353,61.0038 -62.049,222.5532 65.2674,374.5098 -40.6695,144.4539 -210.7872,-6.4158 -77.0334,-140.1696 139.1034,-475.0965 v -3.2184 l -9.6342,-42.801 -22.4664,-12.8322 -21.4008,-5.3502 h -33.1875 l -39.5826,22.4664 -4.2843,3.2184 -29.9484,13.8981 -42.801,27.837 -66.3543,22.4667 -53.5014,12.8319 -72.7494,2.154 h -5.3502 l -75.9885,-17.1369 -5.3502,-1.065 -81.318,-27.8166 -75.9678,-39.5829 -39.5826,-14.9844 -38.5377,-5.3502 h -43.8672 l -27.8166,10.7004 -38.5167,32.1009 -32.1009,37.4508 -18.2031,42.8013 -11.766,42.801 -1.065,42.8013 21.4005,43.8669 20.3346,38.5167 37.4511,33.1668 39.5826,29.9691 42.801,34.2327 33.1668,32.1009 16.0503,38.5374 18.2031,51.3489 3.1977,65.2677 4.2843,59.9379 -9.6345,77.034 -17.1162,64.2015 -10.7004,46.0194 -17.1162,72.7494 -26.7507,80.2521 -38.517,75.9681 -38.5167,48.1515 -39.6036,21.4005 -38.5167,16.0503 -42.8013,-5.3502 -33.1668,-5.3499 -37.4508,-26.7507 -5.3502,-4.2639 -203.3052,-19.2687 -177.6207,33.1665 -115.5714,75.9681 -37.4508,223.6398 -2.133,68.4861 -1.086,89.8866 -11.7663,70.6176 -22.4664,64.2018 -27.8166,81.3177 -29.9691,44.9538 -41.7351,40.6485 -43.8672,25.6851 -37.4508,17.1162 -56.6991,2.154 -54.588,-1.086 -69.552,-17.1165 -66.3333,-32.1006 -49.2174,-38.517 -63.1356,-64.2015 -64.2018,-87.7341 -63.1359,-80.2521 -53.5014,-62.07 -34.2324,-29.9688 -38.517,-21.4008 h -38.5377 l -37.4508,4.2843 -27.8169,11.7663 -26.7507,24.6189 -28.8822,69.5517 -16.0503,51.3696 v 53.5014 l 10.7004,59.9175 22.4661,63.1356 37.4511,71.6838 68.4861,92.0181 84.5364,97.3686 75.9678,52.4355 92.0181,44.9535 62.07,16.0506 57.7647,8.5476 66.3543,-9.6342 88.8,-9.6138 175.4886,-26.7507 82.4049,1.065 h 60.9831 l 54.5673,21.4008 73.836,31.035 49.2171,23.5323 53.5014,43.8669 36.3852,48.1512 10.7004,39.6036 -1.065,48.1512 -20.3346,68.4651 -33.1668,64.2018 -37.4508,43.8879 -34.2534,48.1512 -27.8166,31.014 -39.5829,20.3349 -27.8163,16.0503 -41.7354,23.5533 -40.6695,17.1162 -43.8669,12.8319 -277.1415,-69.5517 -227.9034,-176.5545 -162.6567,-60.9834 -439.7775,311.3742 -54.5673,110.2209 -1.065,11.7666 44.9325,112.353 141.2355,212.9394 248.259,109.1346 127.3377,-35.3193 205.437,-25.6638 114.4845,78.0993 -20.3139,186.1893 -119.8554,239.6904 -42.8013,334.9059 -274.9887,62.0703 -424.8138,-21.4005 -279.273,38.5167 94.1706,272.8572 108.0687,135.9063 22.4667,191.5179 -146.5857,83.4708 -177.6204,-28.8822 -211.8741,-452.6304 -673.0521,268.5729 -37.4511,120.9216 26.7507,116.6373 614.2005,203.3055 163.7226,164.7672 -526.4664,599.2155 -108.0684,119.856 -16.0506,147.6513 53.5014,177.6417 194.7369,302.805 218.2896,97.3683 161.5704,44.9541 36.3849,16.0503 64.2018,51.3486 46.0197,46.0197 24.5982,72.7707 10.7001,45.9982 -6.4161,54.5672 -39.5826,57.7858 -52.4355,52.4356 -43.8669,26.7507 -81.3183,38.5168 -6.4365,1.0701 -54.5676,8.5688 -59.9172,-6.4202 h -6.4158 l -64.2018,-16.0504 -50.3037,-14.9847 -86.6685,-49.217 -49.2171,-42.8011 -43.8666,-38.5168 -9.6348,-12.8532 -315.6582,18.2034 -180.8391,60.983 -127.3371,-102.7184 -108.069,-43.8669 -140.1693,112.353 -16.0506,341.3218 -18.1821,168.0073 81.318,116.6373 17.1162,31.0137 43.8669,54.5886 65.268,42.8011 63.1356,25.6635 29.9691,2.1528 82.3836,5.3502 40.6698,-2.1528 231.1218,-50.2828 140.1693,-50.2828 163.7229,78.0992 42.801,110.2215 88.8,119.8346 37.4511,123.0532 -66.3336,101.6527 -118.7688,41.7354 -20.3349,4.2844 -69.552,21.4005 -40.6692,13.8975 -44.9328,21.4006 -38.5167,25.685 -44.9538,19.269 -77.0337,21.4006 -37.4511,-1.0701 -55.6332,-4.2844 -43.8876,-16.0504 -48.1512,-20.3348 -44.9331,-23.5321 -56.7198,-38.5381 -36.3645,-31.0137 -43.8876,-33.188 -65.2677,-32.1009 -33.1665,-26.7507 -37.4511,-33.1665 -37.4508,-43.8669 -55.6335,-58.8516 -71.7042,-92.0181 -48.1512,-69.5518 -37.4511,-43.8669 -13.8978,-12.8532 -169.0728,19.2691 -297.4761,23.532 -178.6863,180.8434 -19.2687,141.2351 88.8204,154.0884 188.3208,42.8011 157.3065,27.8164 212.9193,172.2917 253.6092,215.0713 49.2168,208.65551 -49.2168,154.08834 -164.7888,118.76883 -246.1065,-11.76603 -237.5379,131.60064 -235.4061,39.60387 -65.2881,77.03346 v 151.93544 l 65.2881,86.68939 79.1655,90.952392 74.9019,64.201688 11.787,7.481638 96.3024,70.617572 69.5517,41.73538 33.1671,22.46631 20.3343,38.51673 13.8981,42.80113 -5.3502,65.28884 -3.1977,17.11617 1.065,17.11617 -164.7882,319.94268 -329.577,211.85274 -23.5323,216.15851 234.3402,49.217 282.4914,-50.2827 142.3014,-160.50427 -63.1356,-195.82371 -6.4164,-330.64296 81.3183,-26.7507 417.3111,295.32348 85.602,219.35577 -148.7175,316.74539 -307.1103,65.2675 -78.0996,26.7507 -88.8207,12.8318 -70.6176,10.7002 -82.4046,8.5688 -38.517,10.7003 -38.5167,20.3348 -39.5829,36.3639 -14.9844,37.451 -10.7001,32.1008 10.7001,53.5014 16.0506,38.5381 33.1665,32.1009 26.7507,16.0504 27.8163,27.8165 37.4511,29.9479 32.1009,27.8378 58.8516,28.8822 63.1359,32.1009 82.3839,26.7507 110.2212,11.766 87.7341,-4.2844 102.7389,-17.1161 101.6529,-42.8012 83.4495,-47.0855 88.821,-51.3485 38.5167,-36.3852 27.8166,-37.451 22.4664,-47.0855 14.9844,-44.9327 11.7663,-38.5167 10.7004,-52.4356 v -66.3546 l 5.3502,-108.0686 22.4871,-127.3376 10.7001,-93.08391 22.4667,-49.21701 19.248,-33.16659 34.2534,-17.13756 43.8669,-9.61314 59.9172,12.83178 83.4708,20.33481 43.8669,27.81645 32.1009,32.10084 19.2687,36.38523 13.8978,34.2323 11.7663,48.1513 -1.065,37.451 4.284,58.8516 -4.284,59.9172 -25.6851,42.8012 -34.2327,36.3852 -33.1665,37.451 -43.8669,46.0198 -38.5377,53.5014 -52.4145,42.8011 -68.4861,54.5671 -54.5673,53.5014 -33.1875,28.8822 -21.4008,29.9694 -27.8163,49.217 -27.8169,48.1513 -42.801,53.5014 -38.5167,58.8515 -50.304,70.6176 -32.1006,38.5381 -47.0646,39.5825 -55.6539,36.3852 -62.0493,41.7354 -33.1875,37.451 -22.4664,36.3638 -21.4005,44.9541 -8.5476,57.7858 -7.5027,44.9326 v 59.9173 l -2.133,62.0702 2.133,62.0488 1.065,67.4203 4.284,54.5671 8.5689,55.6544 12.8316,43.8668 19.2693,41.7354 19.248,39.5825 42.801,69.5518 32.1009,77.0335 11.7867,47.0855 v 43.8669 l 10.7004,48.1512 17.1165,43.8882 23.532,33.1668 59.9175,54.567 40.6695,158.3727 134.8191,93.084 81.3183,-258.9384 63.1356,-197.955 4.2843,-7.503 29.9691,-36.3854 49.2174,-48.1512 38.5167,-20.3135 65.2674,-9.6345 49.2174,1.0701 59.9379,18.1819 43.8672,22.4877 27.8166,41.714 13.9185,44.9539 12.8322,63.1359 -5.3502,65.2677 -10.7004,59.9172 -17.1162,48.1512 -32.1006,69.552 -22.4667,43.8666 -54.588,74.9022 -56.6988,57.7857 -69.552,77.0334 -65.2677,43.8882 -33.1872,16.0506 -38.5173,9.6132 -26.7507,4.2843 -27.8163,16.0503 -11.766,26.7507 -7.5027,25.6851 84.5361,408.7422 -38.5167,363.8094 -56.7198,177.642 -108.069,79.1649 -338.1246,13.9188 -142.3218,-32.1009 -123.0534,-115.5714 -58.8513,-18.1821 -65.268,-10.7001 -49.2168,4.2843 -43.8669,11.766 -70.6179,29.9694 -38.5377,32.1009 -34.2324,47.064 -32.1009,68.4861 -10.7004,53.5014 v 49.2171 l 5.3502,53.5014 16.0503,49.2384 21.4008,42.801 54.567,43.8669 100.587,58.8516 90.9522,59.9172 87.7341,48.1515 59.9382,43.8669 73.8153,50.304 117.7032,79.1649 65.2881,49.2384 53.5014,59.9175 34.2327,48.1512 16.0506,49.2171 5.3499,58.8513 -10.7001,81.318 -27.8166,53.5014 -33.1668,59.9172 -42.8013,48.1515 -27.837,20.3346 -49.2174,21.4005 -59.9172,1.071 -43.8669,1.086 -43.8672,20.3133 -38.5374,43.8885 -19.248,47.064 -6.4164,59.9388 -4.284,27.8163 -8.5689,68.4861 -17.1162,45.9984 -28.8825,47.0856 -3.2181,5.3502 -41.7354,65.2674 -51.3489,58.8513 -42.8013,36.3855 -55.6539,48.1512 -33.1665,31.035 -43.8669,24.5979 -21.4005,26.7507 -25.6851,43.8882 -10.7001,49.2171 -2.133,58.8516 -17.1369,53.5014 -21.4008,38.5167 -17.1165,42.801 -26.7507,42.8013 -29.9481,85.602 -18.2031,70.6176 9.6345,75.9678 21.4005,64.2018 42.8013,55.6542 55.6332,53.5014 87.7548,54.5673 81.318,26.7507 82.3839,21.4005 62.0697,6.4158 h 63.1359 l 63.1356,-8.5473 65.268,-25.6851 60.9828,-37.4508 40.6698,-31.0353 43.8669,-42.801 22.4661,-43.8669 16.0506,-48.1512 5.3502,-54.5673 v -74.9019 l -5.3502,-65.2887 -16.0506,-58.8516 -16.0503,-81.318 -20.3343,-81.3177 82.4046,-47.0856 -105.9372,-126.2505 60.9834,-80.2521 54.588,-47.0856 67.3992,-48.1512 64.2018,-18.2034 49.2171,-5.3499 54.588,10.7001 44.9328,27.8379 31.0353,32.1009 49.2168,48.1512 38.517,59.9172 26.7507,54.5673 10.7001,53.5014 4.2846,19.269 140.1693,358.4595 44.9535,319.9212 -173.3568,324.2271 -221.4873,205.437 -431.2299,202.2396 -88.8,222.5742 -4.284,5.3502 -23.553,51.3486 -31.0146,88.8207 -27.837,126.2721 -5.3502,79.1649 5.3502,65.2887 22.4871,53.5014 16.0503,43.8669 5.3502,42.8013 -22.4871,37.4508 -26.7507,49.2171 -23.5323,49.2171 -9.6345,48.1512 16.0503,48.1512 22.4667,54.5673 65.2881,81.339 86.6685,36.3639 70.6176,17.1375 h 66.3333 l 71.7045,1.071 54.567,10.7004 32.1009,7.4817 66.3336,19.269 38.5374,10.7001 52.4151,6.4161 34.2534,-1.071 60.9828,6.4158 52.4358,-3.2187 65.2674,11.7876 40.6695,12.8319 52.4355,16.0503 48.1512,33.1665 57.765,37.4511 38.5374,65.2674 10.7004,69.5517 5.3502,38.5383 -17.1369,48.1512 -65.2677,65.2674 -49.2171,37.4511 -38.5167,26.7507 -37.4511,31.035 -44.9535,34.2324 -26.7507,21.4005 -54.5676,23.5323 -60.9831,42.801 -75.9681,63.136 -82.4046,74.902 -69.5517,73.836 -28.8822,28.882 -43.8672,26.751 -49.2378,38.538 -65.2677,42.801 -54.5673,26.751 -57.7857,47.064 -43.8669,37.451 -33.1665,32.101 -17.1168,42.801 -2.151,29.969 -5.3499,64.202 16.0503,65.267 36.3852,95.237 63.1359,125.185 42.8013,82.405 52.4352,86.668 51.3489,26.751 65.2677,10.7 98.4552,1.071 124.119,-26.751 120.9213,-52.436 104.8503,-52.414 93.105,-29.969 71.6835,-14.985 54.5673,-17.116 67.4202,-62.07 27.8166,-42.801 34.2327,-58.852 22.4868,-58.851 11.7666,-43.867 11.766,-48.151 17.1162,-53.502 32.1006,-32.101 37.4511,-21.4 54.5676,-10.701 33.1872,5.351 49.2174,22.466 59.9172,64.202 49.2171,74.901 21.4005,71.705 -2.133,74.902 -12.8529,74.902 -27.8166,58.852 -44.9328,50.283 -43.8672,40.669 -44.9535,36.385 -41.7351,25.664 -33.1671,21.401 -22.4661,42.801 -21.4008,38.538 -42.801,47.064 -27.8163,26.751 -12.8529,9.634 -36.3645,27.816 -55.6539,23.554 -60.9831,27.817 -42.8013,20.334 -26.7507,10.701 -38.517,21.4 -43.8876,21.401 -47.0649,21.4 -49.2375,52.436 10.7001,37.451 57.7854,99.5 65.268,70.617 77.0544,70.639 100.5867,51.349 114.4848,34.254 146.5857,67.399 113.4393,55.654 5.3502,3.197 86.6682,48.151 59.9172,49.217 33.1668,48.152 24.6192,39.604 16.0503,49.216 4.284,58.852 -17.1369,36.385 -33.1668,43.867 -27.8166,21.401 -49.2168,10.7 -70.6179,5.35 -50.304,-3.219 -75.9675,-19.247 -102.7185,-53.502 -97.3686,-61.004 -67.4202,-64.202 -54.567,-59.917 -38.517,-57.786 -42.8013,-75.968 -48.1512,-93.084 -63.1356,-103.805 -68.4861,-96.303 -66.3336,-59.917 -42.801,-26.751 -38.5374,-10.7 -33.1671,10.7 -26.7507,21.401 -27.8163,42.801 -34.2327,48.151 -39.6036,64.202 -22.4664,64.202 -28.8825,86.668 -17.1369,82.405 v 97.355 l -9.6138,89.887 14.964,113.418 32.1009,99.522 62.0697,97.368 69.552,87.734 97.3683,80.252 131.622,102.718 139.1037,82.405 112.353,42.801 88.7997,20.335 74.9019,2.133 72.7701,-26.751 85.6023,-43.866 82.3839,-48.152 81.3387,-37.451 h 82.3839 l 93.0843,10.701 81.3384,37.451 54.5676,65.267 27.8166,86.668 14.9844,85.602 -11.7663,65.268 -27.837,48.151 -39.5829,42.801 -51.3696,22.488 -49.2174,27.816 -43.8669,37.451 -32.1009,48.151 -17.1159,49.218 -23.5533,59.917 -25.6641,58.851 -41.7351,58.852 -22.4667,32.101 -27.837,42.801 -18.1824,64.202 4.2843,44.954 23.532,75.967 40.6698,42.802 86.6679,31.035 103.7847,25.663 118.7895,25.685 120.9006,27.816 92.0184,20.335 77.0547,4.285 65.2674,12.832 65.2674,26.75 58.8516,27.838 54.5673,-1.086 50.304,-4.263 59.9172,-43.888 50.2833,-66.333 4.284,-4.285 55.6539,-85.602 37.4511,-81.318 22.4664,-64.201 16.0503,-32.101 27.8166,-33.167 25.6848,-7.503 12.8322,-3.197 32.1009,26.75 10.7001,35.298 -4.2843,40.67 -2.133,19.269 -25.6848,56.699 -31.035,66.354 -35.2983,57.765 -43.8669,70.639 -43.8879,64.201 -23.5323,48.152 -17.1162,53.501 -11.7663,59.918 -17.1369,53.501 -27.8169,52.435 -28.8822,43.867 -49.2174,50.283 -62.0697,66.355 -112.353,85.602 -70.6176,47.064 -33.1668,32.101 -40.6695,23.553 -31.035,28.883 -27.8163,10.7 -26.7507,-7.482 -21.4008,-33.166 -17.1162,-32.101 -21.4005,-49.238 -25.6848,-26.751 -44.9331,-10.701 -61.0041,-5.35 -37.4508,20.335 -11.7663,6.416 -31.035,46.02 -22.4664,53.501 -1.065,54.567 v 62.071 l 8.5476,67.399 20.3349,54.588 16.0506,49.217 14.9841,53.501 v 40.649 l -22.4661,37.451 -23.5533,46.019 -11.766,53.502 -11.7663,59.917 -2.133,56.72 5.3502,108.069 3.1974,83.471 -11.7663,54.567 -27.8163,37.451 -22.4664,26.75 -39.6036,41.736 -16.0503,16.05 -27.8169,16.051 h -21.4005 l -26.7507,-6.438 -27.8166,-22.466 -17.1162,-25.685 -21.4005,-53.501 -12.8529,-56.699 -10.7001,-83.471 -20.3349,-54.567 -26.7507,-40.669 -33.1665,-19.248 -4.2843,-3.219 -97.3683,-50.283 -100.587,-43.866 -59.9172,-11.788 h -26.7507 l -22.4667,10.7 -21.4008,27.838 -33.1665,42.801 -16.0503,37.451 -10.7004,54.567 -6.4158,26.751 -21.4005,43.867 h -10.7004 l -28.9032,-5.35 -37.4511,-27.817 -27.8166,-22.466 -42.8013,-32.101 -59.9172,-16.05 -43.8669,5.35 -54.5883,16.05 -49.2168,33.167 -38.5173,42.801 -49.2168,58.852 -47.0856,48.151 -38.5167,9.634 -44.9538,-8.568 -38.5167,-33.167 -38.517,-21.4 -37.4511,-10.701 -38.5167,5.35 -38.5167,21.401 -118.7898,57.786 -65.2674,31.014 -72.7497,51.369 -43.8879,43.867 -33.1665,64.202 -16.0503,75.968 -14.9847,74.902 -18.1824,92.039 -23.532,96.303 -4.2843,55.633 8.5476,64.201 20.3349,65.268 19.2687,63.136 33.1665,46.019 27.8169,21.401 38.5167,5.35 38.5377,2.133 31.014,10.7 44.9538,24.62 69.5517,26.75 148.7382,38.517 117.7032,8.547 77.0334,-9.613 42.8013,-20.334 215.0715,-42.802 161.5701,42.802 127.3377,81.317 23.553,-191.539 28.8822,-139.104 -18.1818,-85.602 -71.7045,-125.185 -6.4161,-135.906 55.6332,18.203 143.388,77.034 144.4539,127.337 220.4214,9.635 -39.5829,249.304 -64.2015,133.753 -87.7338,67.42 -47.0856,18.182 -46.0194,12.853 -4.2843,6.417 -3.1977,39.582 -2.151,27.838 -6.4158,64.202 -22.4667,53.501 -50.283,53.501 -50.3037,37.451 -70.6179,31.014 -68.4858,24.619 -75.9681,32.101 -66.333,21.4 -48.1512,14.985 -27.8376,9.635 -21.4005,16.05 -11.766,32.101 4.284,75.968 11.7663,105.937 11.766,78.099 5.3502,59.917 4.2843,70.639 -50.283,14.964 -75.9678,-6.416 -92.0391,-39.583 -75.9678,-38.516 -69.5517,-71.705 -44.9331,-68.486 -21.4005,-70.618 -43.8669,-64.202 -43.8879,-48.151 -54.5676,-27.816 -54.567,-11.766 -65.2674,9.634 -66.3543,47.064 -50.2833,48.151 -37.4508,63.137 -5.3502,65.267 5.3502,69.552 49.2168,59.939 77.0547,43.866 75.9681,16.051 118.7688,17.116 148.7382,32.101 140.1693,37.451 97.3683,44.932 57.7857,53.502 27.8166,72.77 9.6345,88.821 -5.3502,81.318 -25.6848,72.749 -33.1668,74.902 -44.9328,63.136 -49.2378,38.517 -109.1346,37.451 -103.7844,26.75 -100.5867,17.138 -96.3024,9.613 -79.1865,3.219 -73.8363,-3.219 -59.9172,10.7 -60.9834,16.051 -68.4858,48.151 -50.3037,52.436 -38.517,53.501 -55.6329,94.171 -23.5533,62.049 -14.964,84.536 6.4164,66.355 16.0503,59.917 14.9844,70.618 14.964,59.917 7.5027,62.07 -21.4005,48.152 -48.1515,28.882 -61.0041,14.984 -38.517,10.701 -38.5167,16.05 -33.1665,53.502 -39.6036,80.252 -67.3992,74.902 -75.9681,62.07 -72.7701,54.567 -99.5208,57.786 -94.1502,68.465 -29.9691,20.334 -90.9525,64.202 -57.7855,31.035 -27.8168,26.751 -20.3344,21.401 -5.3502,42.801 9.6342,38.516 26.7507,33.167 43.8672,21.401 49.2377,38.538 47.0648,34.232 56.7198,63.136 18.1821,56.699 3.2184,51.37 -26.7507,62.07 -38.5167,40.648 -38.517,37.451 -44.9538,23.553 -31.0347,8.548 -49.2174,11.766 -35.2984,-6.416 -40.6693,-21.401 -34.2327,-28.882 -26.7507,-41.735 -26.7507,-69.552 -21.4006,-86.668 -16.0504,-92.018 -17.1368,-86.69 -21.4006,-54.567 -27.8168,-32.101 -36.3849,-26.75 -38.5171,-17.116 -49.217,-1.071 -54.5671,16.05 -115.5717,34.232 -5.3501,2.154 -71.6833,35.299 -32.1009,32.1 -38.517,65.268 -24.6189,64.201 -46.0194,107.003 -28.8825,108.09 -62.0699,149.804 -57.7651,145.52 -73.8359,177.62 -40.6696,85.602 -16.0504,53.502 5.3501,38.517 14.9847,33.166 33.1666,21.401 33.1669,10.7 81.3386,2.154 120.9007,-12.853 179.7732,-19.248 115.5506,-28.903 142.3219,-48.152 142.322,-35.298 87.7341,-4.284 56.7197,10.7 40.6486,7.482 38.5171,27.837 26.7507,48.152 10.7003,48.151 v 38.517 l -27.8168,53.501 -38.5168,43.867 -59.9173,42.801 -37.451,5.35 -48.1512,-7.481 -50.3038,-19.269 -59.9177,-27.817 h -33.1666 l -87.7341,5.35 -52.4353,4.285 -62.0702,-4.285 -65.2674,-16.05 -43.8669,-10.7 -38.5171,-17.117 -48.1512,-5.35 h -49.2377 l -63.1153,4.263 -54.5878,9.635 -45.9988,2.154 -98.455,10.7 -43.8672,5.35 -36.3849,5.35 -33.167,14.964 -10.7003,26.751 -17.1161,38.538 -17.1162,37.451 -27.8168,37.451 -33.1873,32.1 -33.1669,31.014 -26.7507,47.086 -24.5982,44.954 -19.2687,47.064 -10.7003,53.501 -5.3501,65.289 v 118.769 l 5.3501,184.036 16.0504,173.358 5.3502,119.834 -5.3502,102.718 -17.1161,108.069 -21.4006,75.989 -33.1669,42.801 -49.2378,59.918 -32.1008,36.385 -43.8672,48.151 -51.3489,26.751 -36.3849,18.182 -66.3542,1.071 -54.5675,-1.071 -43.8669,-11.766 -48.1512,-22.466 -65.2675,-31.036 -92.0185,-38.516 -70.63824,-36.386 -58.85157,-39.604 -51.34884,-32.1 -40.66965,-39.583 -40.64859,-41.735 -44.95365,-51.349 -48.15126,-55.654 -38.51673,-16.051 -49.21701,20.335 -49.21737,37.451 -28.90326,32.101 -50.28276,74.902 -35.31948,60.983 -5.35014,48.152 -5.35015,59.938 14.98468,52.415 21.40056,43.888 32.10084,54.567 64.20168,77.033 64.20171,70.618 53.5014,44.954 87.7341,41.735 98.45508,10.701 75.96771,-10.701 87.7341,-38.538 87.7548,-37.451 92.01814,-32.101 94.1707,-10.7 h 22.4666 l 103.7842,-3.197 53.5014,17.116 43.8672,38.517 29.969,53.501 17.1162,61.004 -1.0656,43.867 -17.1162,42.802 -27.8164,53.501 -67.4203,74.902 -87.7338,74.902 -87.7548,68.486 -103.7845,69.552 -117.70312,56.698 -99.5208,47.086 -104.85027,32.101 -70.63863,21.4 -75.96771,12.832 -82.38396,-6.416 -16.05042,-2.13 -65.26743,-5.35 -66.35424,9.635 -38.51709,21.4 -53.50141,39.583 -22.46631,43.867 -2.15253,39.603 12.85283,40.649 19.24802,24.619 26.7507,33.167 13.91856,40.669 17.11653,47.064 -1.0656,58.852 -1.0656,65.289 -20.33481,94.149 -10.70027,121.988 3.21828,113.418 12.83213,99.522 33.16659,117.703 37.45098,67.399 65.26743,80.252 71.70474,81.339 75.96771,70.618 87.73374,65.267 37.45098,65.267 36.38523,81.318 3.21867,21.401 6.41589,54.589 -11.76603,69.551 -23.55348,70.618 -33.16659,64.202 -42.80112,50.282 -79.18635,66.355 -84.51546,31.014 -57.78546,5.35 -59.91765,-11.766 -56.71968,-16.051 -31.03509,-18.182 -23.53206,-31.035 -22.46666,-37.451 -49.23806,-70.617 -57.76476,-129.469 -52.435298,-125.207 -32.100843,-65.267 -25.684954,-50.283 5.35014,-25.685 10.700281,-32.1 11.76603,-43.867 -1.06575,-42.802 -13.91857,-33.187 -21.4005626,-27.817 -32.1008434,-10.7 -38.516732,4.284 -52.435658,18.182 -54.56751,38.538 -85.60225,59.917 -60.98304,64.202 -28.90326,64.202 -11.76639,64.202 4.28403,75.972 25.68498,77.033 21.40056,65.289 9.63418,32.101 16.05042,54.567 10.70028,21.4 18.18228,11.766 16.05042,5.351 38.51673,-17.117 31.0351,-19.269 34.23269,-23.532 42.801125,-24.619 38.537421,-14.985 h 7.481994 l 14.984672,-3.197 21.4005628,21.401 4.284036,14.984 -16.0504218,26.751 -27.837138,37.451 -23.532414,42.801 -19.268712,51.349 -3.197601,51.37 3.197601,81.318 17.136858,88.82 19.248021,47.065 26.750705,22.487 26.7507025,10.7 22.4666675,17.117 16.050421,21.4 4.284036,33.167 21.400563,33.166 26.750703,16.051 37.450988,32.101 54.56751,43.866 41.73502,29.97 17.11652,16.05 55.65395,62.07 19.24802,64.202 8.56842,97.369 -6.41589,86.667 -34.25337,80.253 -44.93298,69.551 -43.86687,58.852 -51.36991,41.735 -59.917298,42.802 -70.617575,32.1 -132.687767,45.999 -113.4187,8.568 h -201.17386 l -82.3836,-17.116 -93.10494,-14.985 -86.66835,-23.532 -71.68332,-11.787 -97.36863,-7.482 -71.70438,9.635 -54.56715,9.634 -70.61756,21.401 -39.6035,31.014 -25.6643,34.253 -16.0504,43.867 -3.2183,56.72 13.9186,56.699 33.1669,57.786 54.5672,40.669 53.50136,37.451 128.40339,120.901 79.18635,80.252 87.73374,102.718 68.48607,86.69 35.31915,81.318 21.40056,86.667 -10.70028,75.968 -17.13687,70.618 -26.7507,81.339 -33.16695,58.852 -36.38487,53.501 -44.93298,48.151 -38.51673,53.502 -44.95368,53.501 -48.15126,45.999 -21.40056,59.917 -16.05042,62.07 5.35014,69.552 21.40056,63.136 38.53743,65.267 54.56751,75.968 70.61757,86.668 81.31785,102.74 66.35424,81.318 65.26779,65.267 59.91729,49.217 50.28312,31.035 42.80112,33.167 58.85156,71.704 27.83714,64.202 14.96399,44.933 4.28403,21.4 -3.1976,53.502 -16.05042,58.851 -38.53744,59.918 -49.21737,54.567 -55.6329,52.435 -66.35421,52.436 -84.51582,62.07 -109.15536,65.268 -103.78416,50.282 -5.35014,2.154 -87.7548,34.233 -81.31821,37.451 -43.86687,22.466 -59.91726,48.151 2229.9425,35.32 2511.3478,37.45 657.0018,9.636 517.8975,10.698 2391.513,32.103 147.6513,1.08 2508.15,13.899 h 172.2706 l 463.33,1.08 h 1600.758 l 863.505,-1.08 h 669.854 l 3152.299,8.568 562.83,2.13 329.577,1.08 445.128,-2.16 5.35,26.751 10.7,38.517 29.948,8.568 40.67,-13.917 38.516,-26.751 38.517,-33.168 26.751,-16.05 33.188,-10.701 26.751,10.701 6.415,16.05 v 7.503 l -1.071,25.665 5.351,32.1 21.4,38.538 22.466,32.1 v 33.168 l -6.416,37.452 -9.634,28.881 -6.416,31.035 -22.488,27.816 -10.7,4.284 -5.35,26.751 21.4,27.816 27.838,10.701 21.401,21.402 5.35,27.816 -7.503,23.553 -24.598,8.547 -36.385,-4.263 -21.401,10.701 -29.969,25.662 -16.05,32.103 -17.117,27.837 -21.4,21.402 -26.751,25.662 -17.116,16.05 -27.817,37.452 -22.487,26.751 -22.466,42.801 -1.071,33.186 42.801,54.567 16.05,27.819 -5.35,33.165 -12.832,27.816 -6.437,48.153 11.787,9.633 21.401,11.766 16.05,5.352 16.051,16.05 5.35,17.136 -11.787,32.103 -33.167,26.748 -27.816,9.615 -37.452,5.349 -31.035,2.16 -24.597,7.482 -10.701,32.1 12.832,24.618 16.051,27.819 18.181,40.668 -1.071,29.949 -6.415,16.05 -14.985,7.503 -22.466,3.198 -38.517,-10.701 -26.751,-11.766 -22.466,5.349 -10.7,17.118 5.35,42.801 5.35,21.399 -5.35,43.869 3.197,22.485 18.203,20.316 10.7,22.485 -10.7,16.053 -16.05,5.349 -38.538,5.349 -22.467,5.352 -19.247,16.05 5.35,26.751 16.05,27.816 20.314,21.399 26.75,16.053 26.751,27.816 17.138,16.05 v 18.183 l -11.788,19.269 -16.05,27.816 -5.35,26.751 -5.35,32.1 -5.351,22.467 -22.466,10.698 -23.532,5.352 -22.466,-17.118 -21.401,-16.05 -10.7,-1.08 -11.788,33.165 v 10.701 l -16.05,10.701 -21.4,-6.417 h -22.467 l -9.634,17.115 3.218,31.035 10.701,27.819 8.568,28.902 -9.634,36.363 -6.416,26.751 -5.35,28.905 -5.35,21.399 16.05,22.467 21.401,5.352 22.466,5.349 14.985,9.633 -1.086,21.402 -10.7,16.05 -11.767,21.402 -3.197,23.532 8.547,14.985 4.285,32.1 -21.401,5.349 -27.816,-5.349 -28.904,-14.985 -27.816,-5.349 h -21.401 l -29.948,-9.636 -10.7,-10.701 -22.488,21.402 8.569,31.035 16.051,27.816 16.05,32.1 -5.35,26.751 -16.051,18.204 -27.816,25.686 -26.751,11.766 -27.816,9.633 -26.751,5.349 -27.838,4.263 -17.116,26.751 -11.766,33.189 10.7,16.05 23.532,1.08 43.889,-5.352 h 33.166 l 21.401,10.701 v 16.05 l -38.517,38.517 v 21.402 l -5.35,10.701 -25.685,5.349 -26.751,-5.349 -26.75,-22.467 -21.401,-1.08 -17.116,10.701 -5.35,27.816 -7.503,22.467 -16.051,20.334 -21.4,9.636 -33.167,5.349 -17.116,7.482 -5.35,38.517 5.35,24.618 4.284,42.801 -9.634,35.298 -7.503,29.97 4.284,32.1 10.7,22.467 19.27,29.97 10.7,32.1 -14.985,24.597 4.285,26.751 21.4,22.488 5.35,23.532 -5.35,33.168 -6.416,26.751 11.766,26.751 20.335,14.982 16.051,22.467 -6.438,26.751 -24.598,6.417 -27.816,21.399 -10.7,43.89 5.35,26.751 -16.051,40.647 -11.787,13.92 -5.35,32.1 -22.466,18.183 -21.401,5.349 -33.167,10.701 -22.466,7.503 -20.335,34.23 -6.416,37.452 5.35,38.517 -2.154,6.417 -10.7,37.449 -3.197,10.701 21.4,16.05 h 27.817 l 26.751,10.701 5.35,21.402 -5.35,43.887 -9.635,36.363 -10.7,20.334 -28.882,29.97 -8.569,26.751 2.154,27.816 11.766,26.751 5.35,32.103 -5.35,70.617 -6.416,49.215 -21.401,32.103 -21.4,10.698 -33.189,21.402 -6.415,16.05 -4.285,11.787 16.051,16.05 26.75,5.352 33.188,5.349 26.751,17.118 33.167,10.698 h 21.4 l 27.817,5.352 16.05,21.399 20.335,29.949 25.685,33.186 26.75,43.869 3.198,44.931 17.116,25.686 26.751,22.467 16.05,22.467 v 32.1 l -17.116,32.1 -21.401,22.488 -16.05,17.115 -23.532,13.899 -22.466,21.399 -17.138,21.402 v 21.399 l 21.401,11.79 22.487,5.349 23.532,23.532 -3.218,31.035 v 26.751 l 14.984,27.816 33.167,6.417 10.7,16.05 -17.116,10.701 -16.05,10.698 -11.766,26.751 13.919,13.92 28.882,13.896 21.4,17.139 5.35,21.399 -10.7,16.053 -17.116,26.748 -4.284,17.118 14.984,16.05 32.101,5.349 24.598,16.053 12.853,17.115 -2.154,21.399 -11.766,26.751 3.219,33.168 7.482,26.751 13.918,26.751 2.133,6.414 16.051,49.239 33.167,32.1 26.75,2.13 38.538,-7.482 38.517,-5.349 26.751,5.349 17.116,21.402 -2.133,31.011 -5.35,10.701 -22.488,5.352 -24.598,4.284 h -7.503 l -36.364,3.219 -35.319,23.532 2.13,29.967 19.269,13.899 16.05,10.701 26.751,17.136 13.919,8.547 12.832,7.503 5.35,17.118 -6.416,26.751 -5.35,21.399 10.7,22.467 16.051,5.349 26.75,2.13 33.167,4.284 32.101,11.766 37.451,33.189 27.816,42.801 10.701,49.215 16.05,42.801 5.35,33.168 7.503,34.233 -1.086,42.801 4.284,38.538 16.051,21.399 22.466,9.615 26.751,-3.198 17.138,-5.349 16.05,-4.287 21.4,21.402 10.701,40.668 4.263,47.064 9.634,21.402 18.204,18.204 36.363,14.985 25.685,13.896 6.416,3.219 32.101,17.115 19.269,37.452 23.532,22.467 14.985,10.701 32.101,16.05 59.917,5.349 39.604,3.219 20.335,19.248 10.7,36.384 5.35,32.103 21.401,17.115 26.751,17.139 27.816,10.698 20.335,27.816 18.182,16.053 21.4,5.349 22.466,17.115 16.051,42.801 6.416,18.183 4.284,14.985 26.751,37.452 28.904,24.618 47.064,19.248 27.838,10.701 21.4,21.399 19.248,9.636 2.154,27.816 17.116,27.837 19.248,54.567 10.7,53.502 4.284,49.218 -1.071,38.517 10.701,32.1 20.335,38.517 5.35,32.1 5.35,49.239 16.05,33.165 5.35,21.402 -5.35,21.399 -16.05,33.168 -22.466,32.1 -14.985,37.452 5.35,43.866 16.05,32.1 14.985,22.467 21.401,26.751 10.7,33.189 6.416,26.751 16.05,21.399 16.051,22.467 8.547,27.816 10.7,33.168 31.035,49.215 31.035,31.035 38.517,26.751 21.401,36.387 16.05,43.866 -6.416,42.801 9.635,43.866 18.182,28.905 26.75,32.1 26.751,13.899 13.919,8.568 26.751,33.165 31.035,16.053 32.101,10.698 33.166,16.05 33.167,29.97 20.335,35.298 21.4,41.736 9.635,38.517 -9.635,44.955 -2.154,29.946 -3.197,18.204 5.35,43.866 -3.219,19.269 -11.766,26.751 9.635,35.298 11.766,19.269 -1.071,29.949 -10.7,16.05 -17.116,10.701 -26.751,2.16 -22.488,10.698 -10.7,19.248 -5.35,27.837 -16.051,37.452 -25.663,82.383 -12.853,42.801 -5.351,21.402 5.351,21.399 21.4,5.352 17.116,-9.636 9.635,-6.414 38.517,10.698 10.7,33.168 -5.35,37.452 v 27.816 l 14.984,24.618 17.117,12.831 16.05,33.189 -7.482,35.298 -8.568,40.671 10.7,26.751 23.553,9.633 26.751,21.402 5.35,11.766 -10.7,26.748 -18.203,11.766 -21.401,22.467 5.35,32.103 21.401,25.683 33.188,39.582 41.714,21.402 32.101,17.136 26.75,21.402 7.503,33.165 5.351,37.452 -5.351,43.866 -5.35,37.452 -6.416,43.866 5.351,42.801 5.349,27.819 17.117,26.748 42.801,27.84 41.735,12.831 38.517,27.816 28.882,24.621 37.451,32.1 28.904,37.449 31.014,55.635 27.837,48.15 25.664,65.268 29.969,40.671 13.919,19.269 49.217,43.866 32.101,10.701 68.486,-2.16 60.983,-20.313 50.283,-36.387 55.654,-48.15 59.917,-38.517 37.452,-13.92 43.866,-4.284 32.101,10.701 37.451,38.517 26.751,50.304 14.985,42.801 40.669,2.13 h 54.567 l 21.401,-5.352 h 27.816 l 42.801,10.701 93.084,10.701 38.538,6.414 26.751,-5.349 h 21.401 l 6.415,-16.05 5.351,-27.816 v -21.402 l 10.7,-26.751 33.167,-22.464 26.75,-10.701 h 16.051 l 22.466,6.414 21.401,5.352 h 33.166 l 16.051,-16.05 21.4,-5.352 22.488,5.352 26.75,10.698 21.401,5.352 11.766,10.701 10.7,22.464 5.351,21.402 v 21.399 l -11.766,27.84 -10.701,26.751 -10.7,16.05 -16.051,5.349 -22.487,5.349 -32.101,16.053 v 10.698 l 26.751,17.118 21.4,5.349 22.488,-5.349 16.05,-5.352 38.517,-38.517 43.867,-32.1 37.451,-32.1 22.466,-22.488 26.751,-10.701 22.466,1.08 10.701,-6.438 -10.701,-21.402 -5.35,-16.05 -17.116,-38.517 -16.05,-32.1 -10.701,-43.866 6.416,-42.801 5.35,-38.517 37.451,-37.452 33.188,-26.751 54.568,-59.916 38.516,-59.94 54.567,-42.801 27.817,-21.399 26.751,-22.467 v -32.1 l -5.351,-38.517 -26.75,-37.452 -21.401,-21.402 v -27.816 l 5.35,-65.268 27.838,-53.499 32.101,-33.189 22.466,-21.402 16.051,-5.349 65.267,-26.751 49.217,-21.399 h 49.217 l 49.239,-16.05 26.75,-21.402 43.867,-38.517 49.217,-26.751 33.167,-21.399 21.4,-32.103 27.817,-38.514 75.989,-86.67 49.217,-37.449 43.867,-26.751 54.567,-26.751 43.867,-17.118 59.938,-32.1 43.867,-32.1 54.568,-37.452 26.75,-43.887 27.817,-48.153 16.05,-49.215 6.416,-49.218 -17.116,-32.1 -10.701,-49.218 -21.4,-21.402 -21.401,-22.464 -21.4,-37.452 -27.817,-54.588 -21.4,-37.452 -26.751,-38.517 -54.567,-16.05 -38.517,16.05 -32.1,21.402 -33.189,16.05 -21.4,5.349 -38.517,37.452 h -27.795 l -42.801,-16.05 -5.35,-21.402 h -11.766 l -16.051,10.701 -21.4,10.701 -16.051,-5.352 -11.766,-6.414 -16.05,-21.402 10.7,-32.1 1.071,-49.218 10.701,-21.399 16.05,-5.352 h 10.7 l 17.116,-16.05 5.35,-16.05 5.351,-11.766 16.05,-5.349 h 10.7 l 17.116,-10.701 5.351,-10.701 10.7,-26.751 22.466,-32.1 26.751,-27.837 27.838,-37.452 10.7,-16.05 10.7,-10.701 49.217,-22.467 59.918,-21.399 36.385,-14.985 2.133,-1.08 49.217,-21.399 54.588,-10.701 54.567,5.349 65.268,1.08 32.101,-5.349 h 33.167 l 10.7,5.349 16.05,26.751 10.7,22.488 v 16.05 l -16.05,10.701 -17.116,10.701 -16.051,21.399 -5.35,21.402 v 22.464 l 10.7,16.053 h 21.401 l 11.766,-10.701 21.401,-26.751 27.816,-16.05 21.401,-11.766 33.188,1.08 h 26.75 l 49.217,10.701 32.101,10.701 22.466,16.05 32.101,11.766 27.817,-5.349 37.451,-5.352 22.466,-5.349 16.05,-5.349 26.751,-5.352 17.138,10.701 5.35,21.399 5.35,17.118 -22.488,21.399 -43.867,16.053 -54.567,16.05 -37.451,5.349 h -27.816 l 5.35,21.402 11.766,16.05 -1.071,10.698 22.467,17.118 37.45,26.751 27.817,10.701 21.401,17.136 27.816,-5.349 32.101,5.349 h 93.105 l 53.501,-10.701 33.167,5.352 21.401,27.816 -21.401,26.751 h -59.917 l -33.167,-10.701 -48.151,-6.417 -22.488,5.352 -21.4,5.349 h -16.051 l -17.116,5.349 -10.7,22.467 -5.35,26.751 v 38.517 l -33.167,-1.08 -32.101,10.701 -27.816,10.701 -38.517,5.349 -26.751,-5.349 -33.188,10.701 -10.7,16.05 -5.35,49.215 v 26.751 l 5.35,33.168 10.7,21.399 5.35,27.819 v 21.399 l -17.116,37.452 -5.35,27.837 5.35,42.801 5.35,22.467 16.051,5.349 17.116,5.352 32.101,5.349 33.188,-5.349 54.567,-5.352 37.451,-10.701 38.517,-10.698 33.166,-5.352 32.101,-5.349 33.167,-16.05 81.339,-32.1 77.033,-26.751 42.802,-21.402 38.516,-21.399 59.918,-27.819 65.289,-21.399 59.917,-26.751 43.867,-5.349 43.867,-16.053 26.75,-5.349 54.567,-10.701 43.889,-10.698 54.567,-16.053 70.617,-21.399 77.034,-32.1 59.939,-21.402 103.784,-32.1 109.134,-54.588 70.639,-32.103 93.084,-37.449 81.318,-37.452 65.267,-37.452 59.939,-16.05 60.983,-27.816 37.451,-16.05 33.166,-16.05 16.051,-16.05 27.816,-16.05 h 26.751 l 5.35,21.399 v 27.816 l 10.7,26.751 16.051,27.837 17.137,10.701 10.701,5.352 h 10.7 v -10.701 l -5.35,-10.701 -10.7,-17.139 v -26.748 l 10.7,-5.352 10.7,5.352 16.05,16.05 11.767,17.136 10.7,16.05 10.7,5.352 10.7,-5.352 -5.35,-27.837 -10.7,-21.399 -16.05,-21.402 -10.701,-27.816 5.351,-10.701 h 26.75 l 5.35,-10.701 11.766,-16.05 10.701,-21.399 26.75,-21.402 43.867,-21.399 54.567,-16.05 93.106,-26.751 43.867,-10.701 26.75,-5.352 22.466,-11.766 32.101,-16.05 h 27.817 l 65.289,-21.399 75.967,-9.636 54.567,-10.698 75.968,-26.751 93.106,-21.402 65.267,-16.05 54.567,-10.701 59.917,-5.349 h 54.567 l 38.539,-5.352 37.451,-10.698 49.217,-5.352 h 33.166 l 49.217,-5.349 81.318,-4.284 103.806,-10.701 92.018,-10.701 71.683,-10.698 130.556,-10.701 75.968,6.438 87.734,5.349 h 65.289 l 42.801,6.417 h 38.517 l 43.867,-5.352 h 32.1 l 33.167,-5.349 h 70.618 l 33.188,6.414 26.75,5.352 26.751,10.701 27.816,5.349 h 38.517 l 10.7,-16.05 v -21.402 l -5.35,-21.399 -10.7,-17.118 -10.7,-10.698 -11.766,-16.053 6.416,-16.05 10.7,-17.115 5.35,-10.701 -5.35,-26.751 -5.35,-16.05 -32.101,-11.787 -33.167,-10.701 -26.75,-10.701 -27.817,-5.349 h -43.888 l -10.701,-11.766 -16.05,-16.05 -38.517,-10.701 -37.451,5.352 h -38.516 l -21.401,-11.766 -38.517,-5.352 h -32.1 l -38.517,10.701 h -33.188 l -21.401,-21.402 -16.05,-17.115 -16.051,-26.751 -43.867,-16.05 -26.75,5.349 -38.517,16.05 h -21.4 l -22.467,16.053 -38.517,26.751 -16.05,16.05 h -26.751 l -22.487,-10.701 -16.051,-10.701 -21.4,-6.414 h -38.517 l -26.751,5.349 -33.166,10.701 -26.751,10.698 -22.466,10.701 -33.167,10.701 h -16.05 l -16.051,-5.349 -10.7,-21.402 -27.838,-5.349 -32.101,5.349 -43.867,-6.438 h -32.1 l -33.167,10.701 -21.401,5.349 -33.166,10.701 h -16.051 l -38.517,10.701 -21.4,16.05 -17.138,5.349 -21.4,-10.698 -16.051,-32.103 v -81.318 l 17.138,-27.816 v -10.698 l -10.7,-26.751 16.05,-33.168 33.167,1.08 32.101,-10.701 27.816,10.701 16.05,10.701 5.351,26.748 v 33.168 l 10.7,26.751 21.4,5.349 16.051,-10.698 v -10.701 l 6.416,-16.05 16.05,-16.053 16.051,-5.349 h 65.267 l 17.138,-5.349 h 26.75 l 21.401,21.399 22.466,11.766 h 21.401 l 43.867,5.352 26.75,-10.701 22.467,-10.701 37.451,-10.701 33.166,-5.349 26.751,-5.349 h 22.488 l 16.05,-21.402 10.7,-21.399 5.35,-17.118 11.767,-10.701 h 26.75 l 22.466,6.417 10.701,10.701 v 26.751 l 5.35,5.349 21.401,5.349 h 21.4 l 22.466,-10.698 10.701,-10.701 21.4,-5.349 27.817,-5.352 h 26.75 l 38.539,1.08 26.75,10.698 22.466,16.05 21.401,16.053 21.401,5.349 22.466,17.115 48.151,5.352 27.817,5.349 21.4,-5.349 h 38.517 l 1.086,1.08 25.663,16.053 22.488,5.349 21.401,-16.05 21.4,-22.467 11.766,-10.701 10.701,-21.399 v -10.701 l 10.7,-10.701 h 10.7 l 33.167,16.05 10.7,5.352 27.816,-16.05 16.051,-16.053 16.05,-10.698 33.167,-10.701 16.05,-5.349 22.488,-10.701 26.751,5.349 16.05,10.701 5.35,27.816 21.401,10.701 43.867,26.751 49.217,33.165 h 32.101 l 22.466,5.352 10.7,5.349 -5.35,11.766 -10.7,10.701 -22.466,10.701 h -49.218 l -26.75,-11.766 -21.401,-16.053 -27.816,-26.748 -26.751,-11.766 -33.188,-5.352 -16.05,10.701 -10.701,10.701 10.701,17.115 26.75,10.701 38.539,26.751 21.4,43.866 5.35,21.402 16.051,33.186 33.166,16.05 48.152,21.402 27.816,22.467 26.751,16.05 27.816,5.349 h 21.401 l 10.7,11.766 5.35,21.402 10.7,10.698 70.618,43.869 65.289,33.165 38.516,5.352 37.451,5.349 h 43.867 l 22.467,5.349 21.4,11.79 32.101,32.1 22.466,10.701 21.401,6.414 26.751,5.352 38.538,10.698 26.75,5.352 17.117,5.349 5.35,22.467 -5.35,10.701 -17.117,16.05 -21.4,10.701 -22.488,5.349 -21.4,-16.05 -10.701,-22.467 -33.166,-16.05 -37.451,-5.352 -54.567,-6.414 -26.751,-10.701 -33.167,-10.701 -21.4,-5.349 h -59.917 l -22.488,-6.438 -16.051,5.352 v 11.787 l 10.701,16.05 75.989,43.866 70.617,32.1 59.918,22.467 49.217,33.168 37.451,32.1 38.516,10.701 54.589,22.467 54.567,49.236 69.552,59.919 43.867,26.751 38.516,38.517 42.802,26.748 54.567,33.168 59.938,27.816 54.568,10.701 125.184,27.837 86.668,5.352 65.289,1.08 38.517,-5.349 49.217,-27.816 65.267,-32.103 43.867,-32.1 33.188,-26.751 37.451,-49.239 27.817,-16.05 43.866,-16.05 49.218,-16.05 37.451,-10.701 h 38.516 l 43.889,-5.349 53.501,11.787 59.917,10.701 49.217,-5.352 33.167,-10.698 54.567,-32.103 75.989,-53.499 33.167,-16.053 21.4,-22.485 27.817,-16.053 27.816,-10.698 16.051,-10.701 16.05,-21.402 17.116,-21.399 10.701,-33.168 v -32.1 l -5.351,-33.165 5.351,-21.402 17.137,-21.402 -5.35,-38.514 38.515,-21.402 16.05,-10.701 26.751,5.352 10.701,22.464 -5.349,21.402 -26.751,26.751 -22.467,33.165 -5.352,37.452 5.352,32.1 10.701,27.816 16.05,32.103 10.701,38.538 5.349,21.399 10.701,27.816 10.698,10.701 h 10.701 l 6.417,-26.751 v -33.165 l 21.399,-10.701 h 16.05 l 17.118,16.05 -6.417,27.816 -10.701,26.751 5.352,26.751 21.399,-5.349 27.819,-26.751 27.816,-21.402 32.1,-5.349 10.701,5.349 h 27.816 l 26.751,5.352 10.701,17.115 -16.053,16.05 -33.165,10.701 -32.1,26.751 -17.118,38.517 22.467,21.399 16.05,21.402 10.701,33.165 16.05,32.103 42.801,49.236 27.816,10.701 43.89,1.08 48.15,10.701 h 125.184 l 59.919,-10.701 77.055,1.08 48.15,5.349 38.517,10.701 49.218,22.464 26.751,10.701 21.399,21.402 17.115,27.816 16.053,5.349 10.698,-5.349 5.352,-10.701 -5.352,-26.751 -10.698,-22.467 -5.352,-16.05 16.05,-16.05 h 17.118 l 21.399,5.352 10.701,10.698 v 33.168 l 16.05,16.05 h 10.701 l 5.349,10.701 5.352,16.05 -10.701,10.701 -10.701,17.136 -10.701,10.701 -10.698,16.05 5.349,10.701 26.751,27.816 16.05,16.05 21.402,16.05 17.136,21.402 32.1,17.115 38.517,16.05 32.103,5.352 43.866,1.08 h 70.617 l 49.218,5.352 32.1,-5.352 38.538,-16.05 22.467,-16.05 10.701,-16.05 16.05,-16.05 22.467,-16.05 26.748,-5.352 27.819,-16.05 26.748,-17.115 22.467,-21.402 10.701,-16.05 10.701,-26.751 17.136,-33.165 21.402,-37.452 5.349,-43.866 1.08,-42.801 v -43.89 l 5.349,-21.399 16.05,-16.05 11.766,-10.701 16.053,-10.701 38.514,-10.701 h 26.751 l 10.701,10.701 v 21.402 l 16.05,5.349 27.816,1.08 43.89,-5.349 48.15,-16.05 27.816,-10.701 10.701,-5.349 27.816,-16.05 21.402,10.698 26.751,16.05 17.115,27.819 10.701,21.399 -1.08,42.801 v 33.168 l -5.349,26.751 10.701,16.05 10.698,-5.352 17.118,-21.399 26.751,-5.352 17.115,-16.05 21.402,-26.751 17.136,-7.479 -7.503,-75.99 -20.334,2.16 -10.701,-5.349 -10.701,-11.766 -5.349,-21.399 -5.349,-16.053 v -10.698 l 5.349,-10.701 5.349,-27.837 6.438,-16.053 -5.349,-26.748 v -16.053 l -10.701,-22.464 -11.787,-10.701 -10.701,-16.05 v -16.05 l -5.349,-17.118 -10.701,-5.349 -21.402,10.701 h -16.05 l -11.766,-5.352 v -21.399 l 1.08,-16.05 -5.352,-27.819 v -16.05 l 5.352,-26.751 10.701,-17.115 22.488,-16.05 21.399,-5.352 h 16.05 l 27.816,11.766 h 21.402 l -10.701,-251.454 -33.165,-764.004 -20.337,-461.178 -23.553,-531.819 -2.13,-36.363 -14.985,-390.561 -52.437,-1311.87 -19.248,-381.993 -70.617,-1388.904 -98.454,-1717.395 -2.13,-31.014 -79.185,-1352.519 -24.621,-416.246 -107.001,-1720.613 -110.202,-1671.376 -6.414,-101.653 -95.238,-1755.911 -64.2,-1256.218 -25.686,-520.029 -52.437,-896.692 -38.517,-878.489 -4.284,-99.521 73.836,-771.486 172.272,-1759.131 127.338,-1354.651 39.582,-417.311 49.239,-556.414 105.915,-1188.798 156.24,-1751.627 23.532,-254.675 136.974,-1501.2582 147.651,-1731.2928 85.602,-925.5741 69.552,-759.72 9.633,-99.5214 155.154,-1802.9973 116.637,-1295.7996 14.985,-194.7366 14.964,-161.5914 9.636,-102.7184 150.867,-1813.69768 85.605,-976.922835 68.484,-785.404935 149.805,-1713.11075 5.349,-63.1359 163.725,-1770.8965 188.319,-1747.3647 13.92,-154.0881 33.165,-363.8097 109.134,-1234.7955 126.273,-1523.724 17.112,-206.5497 124.119,-1509.8059 22.467,-264.288 110.22,-1114.982 60.984,-612.048 17.136,-141.256 40.65,-385.21 131.622,-1256.196 25.683,-344.562 23.532,-281.405 17.118,-166.941 34.254,-451.543 7.482,-100.587 -96.303,-23.532 -103.785,-49.218 -87.756,-43.887 -87.732,-69.552 -83.472,-89.866 -80.25,-78.12 -73.839,-116.638 -53.499,-127.337 -41.715,-101.653 -53.502,-95.216 -56.721,-73.836 -79.185,-101.652 z m -6193.333,54790.79 -49.217,10.701 22.467,21.399 102.718,38.517 98.455,59.919 81.318,33.186 75.968,27.816 49.217,26.751 37.451,22.467 33.188,21.402 21.401,17.115 43.867,10.701 h 21.4 l -5.35,-16.05 -81.318,-109.134 -49.239,-49.218 -65.267,-38.538 -70.618,-37.452 -70.617,-11.766 -65.268,-10.701 -59.938,-11.766 z m 674.118,295.323 -21.4,38.517 v 37.452 l 32.1,22.488 33.167,-16.053 16.05,-38.538 -5.35,-10.698 -16.05,-21.402 -16.051,-10.701 z m 3980.506,343.476 -21.402,10.698 -27.816,10.701 -32.1,10.701 -27.819,26.751 21.402,27.837 h 71.682 l 48.153,-16.05 11.766,-33.189 -16.05,-32.1 z m -1712.046,307.11 -32.1,16.05 h -33.168 v 21.402 l 54.567,22.464 21.402,21.402 21.399,32.1 33.168,27.816 49.239,21.402 37.449,11.766 27.816,-10.701 -27.816,-49.215 -53.502,-59.919 -49.236,-38.517 z m -1255.13,607.764 -33.189,10.698 -59.917,16.053 -42.801,16.05 -114.484,32.1 -103.806,5.349 -54.567,5.352 -54.567,4.284 -33.167,-5.349 -42.801,-5.352 -17.116,10.701 17.116,33.165 58.852,32.103 38.516,22.488 43.867,10.698 146.607,-10.698 93.084,-21.402 70.618,-26.751 87.755,-4.284 217.202,43.866 157.307,66.333 151.936,59.94 114.484,27.816 125.206,27.816 h 163.702 l 146.606,22.467 195.802,33.168 158.373,17.136 130.536,6.417 119.856,5.349 75.966,1.08 38.517,-10.701 54.567,-21.399 16.05,-16.053 22.488,-33.165 v -59.919 l -5.349,-10.698 -43.887,10.698 -59.919,21.402 -81.318,21.402 -65.268,-5.352 -77.055,-6.438 -130.533,-5.349 -114.486,4.284 -92.04,-10.701 -153,-33.165 -151.957,-22.467 -86.667,-27.816 -87.734,5.349 -70.618,-27.837 -86.689,-10.701 -87.734,-22.467 -102.718,-38.514 -49.217,-16.053 h -97.39 l -54.567,-11.766 -43.867,-10.698 -32.101,-22.467 -49.217,-32.1 z m -3589.945,50.304 -49.238,38.517 -26.751,42.801 -38.517,21.399 -5.35,70.617 v 43.869 l -33.167,21.399 -38.516,5.352 -54.567,-10.701 -48.152,-22.467 -70.639,26.751 -93.083,10.701 -65.268,-16.05 -70.617,-17.118 h -75.99 l -93.083,5.352 -65.268,-6.417 h -81.318 l -59.938,16.05 h -11.767 v 43.866 l 103.806,21.402 141.235,11.766 125.185,22.467 59.939,16.05 49.217,10.701 49.217,-4.263 42.801,-10.701 h 43.867 l 33.166,5.349 5.35,10.701 -22.466,26.751 -54.567,21.399 -70.617,5.352 -21.401,10.701 -6.416,33.165 -5.35,37.452 54.567,6.414 70.618,-10.698 h 38.516 l 38.517,10.698 -17.116,26.751 -38.517,54.567 -32.101,49.218 -22.466,48.15 -16.051,38.538 -6.415,37.452 22.466,21.402 21.401,-10.701 38.516,-32.1 54.567,-92.04 93.106,-113.418 59.917,-97.371 55.633,-109.134 10.7,-69.552 54.567,-54.588 22.488,-54.567 21.401,-64.2 11.766,-59.919 z m 1829.748,72.747 -37.451,5.352 -5.35,26.751 -1.086,22.488 -5.35,16.05 -21.401,37.449 -17.116,21.402 -16.051,22.467 -26.75,16.05 v 16.05 l 37.451,5.349 81.318,-10.698 66.354,-21.402 54.567,-26.751 43.867,-32.1 16.051,-26.751 -5.351,-27.816 -10.7,-16.05 -22.466,-10.701 z m 3996.555,321.009 -21.399,16.05 -11.79,26.751 5.352,22.488 65.289,32.103 98.433,33.165 54.567,22.467 92.019,32.1 174.423,11.766 86.667,-9.633 82.407,-10.701 92.016,-26.751 103.785,-10.701 93.105,-10.701 54.567,-16.05 37.452,-5.349 38.517,-10.701 -21.402,-32.1 -54.567,-10.701 -70.617,-1.08 -54.588,-10.698 -43.869,-22.467 -103.782,10.701 -130.557,26.751 -114.483,21.399 h -49.218 l -42.801,26.751 -93.105,-6.417 -65.268,-21.399 -54.567,-17.118 -42.801,-26.748 -54.567,-22.488 z m -4591.507,18.204 -81.319,26.751 -185.101,42.801 h -54.589 l -33.166,-10.701 -26.751,-5.349 -33.167,5.349 -10.7,16.05 10.7,21.402 38.517,38.517 42.801,21.399 h 54.567 l 98.456,-14.985 92.018,-26.748 77.033,-27.819 37.451,-16.05 54.589,-21.399 31.013,-20.337 -13.897,-22.464 -33.167,-5.352 z"
         id="path9449" />
    </clipPath>
  </defs>
  <sodipodi:namedview
     id="namedview8751"
     pagecolor="#ffffff"
     bordercolor="#666666"
     borderopacity="1.0"
     inkscape:pageshadow="2"
     inkscape:pageopacity="0.0"
     inkscape:pagecheckerboard="0"
     showgrid="false"
     inkscape:zoom="0.19452082"
     inkscape:cx="352.1474"
     inkscape:cy="79.682989"
     inkscape:window-width="1366"
     inkscape:window-height="697"
     inkscape:window-x="-8"
     inkscape:window-y="-8"
     inkscape:window-maximized="1"
     inkscape:current-layer="svg8749" />
  <g
     id="g9445"
     clip-path="url(#clipPath9447)"
     transform="translate(1143.8193,17414.894)">
    <path
       fill="#ba0c2f"
       d="M -2835.3947,-20938.507 H 36000.001 V 50390.16 H -2835.3947 Z"
       id="path8735"
       style="stroke-width:1" />
    <path
       fill="#d69a2d"
       d="M 7500,-18539.547 H 28500 V 41665.869 H 7500 Z"
       id="path8737"
       style="stroke-width:0.999999" />
    <path
       fill="#041e42"
       d="M 9000,-21810.985 H 27000 V 41229.652 H 9000 Z"
       id="path8739"
       style="stroke-width:1" />
    <path
       fill="#d69a2d"
       d="m 17136,4073.5 h 590.9 l 183.1,250.9 -295,97.1 -479,-348 m 1699.2,0 h -590.9 l -183.1,250.9 295,97.1 479,-348 m -848.8,-616.8 179.2,559.2 -180.9,250.8 -179.1,-249.1 180.8,-560.9 m 520,1612.8 -474,-342.3 v -309.3 l 293.1,96.6 180.9,555 m -1040.4,0 474,-342.3 v -309.3 l -293.1,96.6 -180.9,555"
       id="path8741" />
    <path
       fill="#ffffff"
       d="m 12038.6,6724.5 407.5,135.7 256.2,-344.8 -2.8,427.4 405.9,137.3 -409.9,130.9 -4.4,427.3 -249.4,-349.2 -408.3,131.1 254.6,-346.5 -249.4,-349.2 m -816.6,1435.2 427.4,40.9 171.5,-392.4 94.2,417.8 427.2,44.1 -370.9,215.8 95.8,417.9 -323.8,-282.1 -372.5,215.7 174.7,-392.2 -323.6,-285.5 m 19,1102.4 187.4,387.7 425.3,-58.5 -308,297.8 187.6,384.4 -378.5,-203.2 -311.3,297.6 75.3,-420.3 -378.5,-203.2 423.6,-58.7 77.1,-423.6 m -611.7,2110.8 401.9,-153.9 -20.8,-429.1 270.2,335.4 400.3,-153.9 -234,358.9 271.9,335.4 -417.4,-111.3 -235.6,358.8 -20.8,-429.1 -415.7,-111.2 m 248.8,1634.4 357.6,-239.8 -119.6,-412.9 340.6,265.3 357.6,-239.7 -148.3,402.3 339,263.6 -430.3,-13.3 -146.7,400.7 -119.7,-409.6 -430.2,-16.6 m 701.9,850.4 388.9,184.7 298,-309 -58.1,423.8 387.2,186.4 -423,77.5 -59.8,425.4 -200.7,-377 -424.8,75.9 296.4,-310.7 -204.1,-377 m 789.5,1354.7 416.2,99.7 223.6,-366.7 36,427 417.7,98 -395.3,165.7 36.1,428.7 -282.2,-327.4 -395.2,167.4 223.6,-365.1 -280.5,-327.3 m 3667.2,-11242.7 236.3,357.2 416.1,-111.9 -269.4,336.1 236.4,355.5 -404.1,-151.6 -267.8,336.2 17.7,-428.3 -402.5,-151.5 416.2,-111.9 21.1,-429.8 m -1534.2,604.7 310.4,298.2 377.5,-202.4 -187.3,386.9 310.5,296.5 -425.3,-58.9 -187.4,388.5 -77.1,-422.1 -425.3,-59 380.9,-202.2 -76.9,-425.5 m -649.5,883.8 -104.2,418.4 365.6,225.5 -427.4,32.8 -104.2,416.8 -161.9,-397.9 -429.2,32.7 329.7,-278.8 -161.9,-397.8 363.9,227.1 329.6,-278.8 m 10108.4,1266.3 -407.5,135.7 -256.2,-344.8 2.7,427.4 -405.8,137.3 409.9,130.9 4.4,427.3 249.4,-349.2 408.3,131.1 -254.6,-346.5 249.4,-349.2 m 816.6,1435.2 -427.4,40.9 -171.5,-392.4 -94.2,417.8 -427.2,44.1 370.9,215.8 -95.8,417.9 323.8,-282.1 372.5,215.7 -174.7,-392.2 323.6,-285.5 m -19,1102.4 -187.4,387.7 -425.3,-58.5 308,297.8 -187.6,384.4 378.5,-203.2 311.3,297.6 -75.3,-420.3 378.5,-203.2 -423.6,-58.7 -77.1,-423.6 m 611.7,2110.8 -401.9,-153.9 20.8,-429.1 -270.2,335.4 -400.3,-153.9 234,358.9 -271.9,335.4 417.4,-111.3 235.6,358.8 20.8,-429.1 415.7,-111.2 m -248.8,1634.4 -357.6,-239.8 119.6,-412.9 -340.6,265.3 -357.6,-239.7 148.3,402.3 -339,263.6 430.3,-13.3 146.7,400.7 119.7,-409.6 430.2,-16.6 m -701.9,850.4 -388.9,184.7 -298,-309 58.1,423.8 -387.2,186.4 423,77.5 59.8,425.4 200.7,-377 424.8,75.9 -296.4,-310.7 204.1,-377 m -789.5,1354.7 -416.2,99.7 -223.6,-366.7 -36,427 -417.7,98 395.3,165.7 -36.1,428.7 282.2,-327.4 395.2,167.4 -223.6,-365.1 280.5,-327.3 M 19963.3,3969.7 19727,4326.9 19310.9,4215 l 269.4,336.1 -236.4,355.5 404.1,-151.6 267.8,336.2 -17.7,-428.3 402.5,-151.5 -416.2,-111.9 -21.1,-429.8 m 1534.2,604.7 -310.4,298.2 -377.5,-202.4 187.3,386.9 -310.5,296.5 425.3,-58.9 187.4,388.5 77.1,-422.1 425.3,-59 -380.9,-202.2 76.9,-425.5 m 649.4,883.8 104.3,418.4 -365.6,225.5 427.4,32.8 104.2,416.8 161.9,-397.9 429.2,32.7 -329.7,-278.8 161.9,-397.8 -363.9,227.1 -329.7,-278.8 m -8591.2,11112 c 2.5,-3.2 5.5,-7 8.4,-10.7 24.9,3.1 49.9,-3.3 74.1,-20.7 24,-15.8 61.8,-57.2 113.7,-123.2 8,-10.1 16,-20.3 24,-30.5 56.9,-72.4 113.9,-144.7 171.2,-217.6 17.7,-22.5 27.6,-39.1 29.6,-49.6 1.5,-10.1 -1,-21.6 -8,-34.1 3,-3.7 5.9,-7.5 8.5,-10.7 25.1,21.5 44.1,37.4 56.7,48.1 12.6,10.8 23.8,20.5 34.9,29.2 11,8.7 23.1,17.3 36.5,27 13.4,9.7 32.7,24 59.5,43.3 -2.5,3.2 -5.5,7 -8.4,10.8 -13.1,-3.4 -24.9,-3.1 -34.3,0.8 -9.8,4.4 -23.5,17.9 -41.2,40.4 -65.4,83.1 -130.3,165.6 -195.2,248.2 -51.9,65.9 -83.2,112.4 -93.6,138.9 -10.6,28.2 -10.9,54 -2,77.4 -2.9,3.8 -5.9,7.5 -8.4,10.7 -16.1,-14.3 -33.8,-29.2 -51.6,-44 -18.4,-15.3 -37.9,-30.7 -59.3,-47.5 -21.4,-16.9 -40.9,-32.2 -60.2,-46.5 -18.6,-13.7 -37.2,-27.5 -54.9,-39.7 m 672.2,-127.2 c -37.3,57.2 -74.7,114.3 -112.1,171.5 -59.5,90.8 -92.5,154.9 -100.4,191.4 -7.9,36.4 -1.2,70.2 19.8,101.9 -2.6,4 -5.2,8 -7.5,11.4 -13.2,-10.2 -28.1,-20.8 -43,-31.4 -15,-10.6 -31.7,-21.5 -49.8,-33.4 -18.1,-11.8 -35.5,-23.2 -51.2,-32.6 -16.3,-9.9 -31.3,-18.9 -46.7,-27.3 2.2,-3.5 4.9,-7.5 7.5,-11.5 36.3,8.3 70.3,1.9 100.5,-19.9 29.5,-22.3 75.4,-78.8 136,-171.4 38.1,-58.3 76.2,-116.6 114.4,-174.9 23.2,-35.4 34.4,-63.2 35.4,-82.9 0.6,-19.2 -8.7,-40 -26.1,-62 2.2,-3.4 4.5,-6.9 6.4,-9.7 7.6,5 24.3,15.9 50,34.4 25.4,17.4 44.5,30.7 59.1,40.3 8.4,5.4 20.6,12.6 35.9,22.6 15.7,9.5 27.9,16.6 34.9,21.2 13.7,156.7 31.4,313.6 44.8,470.9 12.3,-18.9 24.7,-37.8 36.6,-56.1 60.2,-92 93.2,-156.1 101.5,-191.5 7.5,-35.8 -0.3,-69.5 -21,-100.2 2.7,-4 5.3,-8 7.9,-12 10.8,7.9 22.9,16.6 36.1,25.3 12.9,9.2 32.4,22 58.8,39.3 26.5,17.3 46,30 59.6,38.1 12.5,8.2 25.4,15.8 36.9,22.5 l -7.8,12 c -37.1,-8.7 -71,-2.3 -101.6,20.1 -30.6,22.4 -75.8,79.4 -135.3,170.2 -66.9,102.3 -133.8,204.7 -200.4,306.4 -6.2,-4.1 -11.8,-7.8 -17.4,-11.4 -18,-223.2 -43,-447.7 -61.8,-671.3 m 1291.2,879.8 c -0.5,3.5 -1.8,6.7 -3.1,9.8 -22.2,-0.2 -41.7,8 -57.6,27.3 -15.7,18.7 -39.1,62.9 -67.9,133.6 -3.4,8.2 -7,17 -10.4,25.2 -4.1,10.1 -8.2,20.2 -12.6,31 -47.6,11.5 -95.4,14.8 -142.3,11.1 -47,-3 -92.5,-14.2 -137,-32.3 -43.7,-17.8 -79.9,-40.7 -108.2,-70 -28.6,-28.6 -50.5,-62.5 -64.7,-102.2 -13.5,-41.6 -21.8,-84.8 -19.8,-128.9 1.9,-44.2 10.2,-86.4 27.2,-128.1 16.2,-39.8 37.8,-75.2 65.8,-106.5 26.9,-30.9 59.3,-55.3 95.6,-76.6 41.5,-22.8 87.4,-34.3 135.7,-36.7 47.9,-3.3 95.2,5.7 140.4,24.2 39.1,15.9 74.3,37 106.2,64 31.4,26 64.6,60.9 96.2,104 -36.5,47.7 -73.7,95.2 -110.2,142.9 -4.1,-3.2 -7.4,-6 -11.5,-9.1 15.8,-69.4 17.8,-124.6 6.7,-167.5 -11.4,-42.2 -37.2,-71.1 -76.3,-87 -49,-20.1 -99.2,-11.1 -149.7,29.4 -50.3,39.9 -93.2,103.4 -129.3,191.8 -34.5,84.6 -50,155.6 -46.6,213 3.6,56.7 26.8,94.2 67.4,110.7 27.6,11.3 54,10.3 76.5,-5.6 23.1,-14.9 43.4,-42.7 59.6,-82.4 24.8,-60.7 36.4,-102.3 35.2,-125.6 -1.2,-23.4 -13.2,-42.2 -35.6,-59.5 1.2,-3.2 2.5,-6.3 3.6,-8.8 21.9,9.7 43.1,19.1 65.1,28.8 20.7,8.4 42.7,18.1 64.9,27.2 21.5,8.7 44,17.2 67,26.6 23.2,8.7 46.5,17.5 69.7,26.2 m 288.3,470.2 c 45.6,15.5 88.5,2.7 127.7,-38 38.3,-40.3 74.2,-110.2 107.5,-208.4 33.4,-98.1 47.1,-174.8 41.5,-230.7 -6.6,-55.5 -32.3,-90.9 -78.6,-106.6 -44.8,-15.2 -87.3,-3.7 -125.3,35.9 -37.5,40.6 -73.2,109.9 -107.2,210 -33.7,99.4 -47.7,176.8 -42.7,231.8 5.8,55.2 32.3,90.8 77.1,106 z m -206.9,-397.8 c 16.2,-47.8 39,-89 68.3,-123.7 29.5,-35.4 66.3,-61.1 107.5,-81.7 36.7,-17.8 75.7,-26.9 116.7,-28.8 41.2,-2.6 81.9,4 122.8,17.9 42.4,14.4 79.5,34.2 110.1,60.4 30.5,26.2 55.8,57.8 74.6,95.2 21.3,43.2 34.6,86.6 36.4,130.4 1.6,44.5 -4.2,90.1 -20.6,138.5 -12.1,35.5 -27.8,66.2 -46.7,93.6 -18.2,27.7 -41.4,52.2 -67.9,73.5 -44.2,34.7 -93.5,56.1 -146.1,66.3 -52.6,10.3 -105.3,5.4 -156.4,-12 -41.6,-14.1 -78.5,-34.5 -110.2,-62.6 -31.7,-28 -58.3,-60.8 -75.4,-98.3 -20.5,-40.1 -32.3,-83 -34,-129.6 -1.9,-46 4.9,-92 20.9,-139.1 m 978.8,-20.1 c -29.8,140.8 -59.6,281.5 -89.3,422.3 -13.2,62 -16.5,101.7 -11,120.3 5.4,18.6 20,30 45.3,35.4 50.6,10.7 94.1,-5.9 130.6,-49.7 36.4,-43.2 64.7,-112.5 84.8,-207.2 20.4,-96.7 22.3,-170.2 6.7,-220.9 -14.9,-50.5 -51,-81.2 -105.6,-92.7 -8.2,-1.8 -17.2,-3.7 -26.3,-4.9 -10.8,-0.9 -21.7,-1.8 -35.2,-2.6 z m -352.1,549.3 c 0.8,-4 1.8,-8.7 2.8,-13.4 24.8,-8.7 44.7,-26.1 59.7,-52.8 15,-26.8 31.3,-83.3 49.5,-169.4 1.9,-9.3 3.9,-18.7 5.8,-27.3 19,-90.1 38.1,-180.1 57.3,-270.9 5.6,-26.6 7.1,-45.8 4.2,-56.2 -2.9,-10.4 -11,-20.5 -22.9,-28.6 1,-4.6 2,-9.3 2.8,-13.3 25,6.7 49.3,12.5 72.8,18.2 22.7,5.5 45.4,11 66.6,15.5 22,4.6 48.2,9.5 78.5,15.2 29.5,5.6 48.3,9.5 56.4,11.2 105.2,22.3 181.5,64.2 225,128.5 43.6,63.6 56.5,143.6 35.9,241 -22.6,106.8 -67.7,182.9 -133.9,230.3 -66.3,47.3 -149.9,60.2 -248.6,39.4 -13,-2.8 -36.4,-9.1 -68.6,-18 -33,-9.1 -58.9,-15.3 -78.5,-19.4 -12.2,-2.6 -27.9,-5.2 -49.2,-9 -21.2,-4.5 -59.8,-11.3 -115.6,-21 m 1970.1,-431.4 c -0.2,4.1 -0.5,8.9 -0.8,13.6 -26.1,6.7 -51.3,25.8 -75.6,57.2 -24.3,32.1 -50.3,78.4 -76.3,139.9 -63,152.3 -129.2,303.8 -192.2,456.1 -2.5,-0.1 -5,-0.3 -7.5,-0.4 -43.5,-147.7 -89.6,-294.2 -132.3,-441.2 -56.5,141.1 -116.3,281.3 -172.8,423.1 -2.5,-0.1 -5,-0.3 -8.3,-0.5 -53.8,-184.6 -110.9,-368.7 -164.7,-553.3 -15.2,-51.5 -29,-85.2 -42,-103.8 -12.3,-17.1 -28.3,-27.6 -47.9,-31.5 0.2,-4.8 0.5,-9.6 0.8,-13.7 5.8,0.4 14,0.8 26.4,2.3 51.1,5 86.6,8.5 105.6,9.6 22.4,1.4 66.3,2.6 130.9,4.4 16.6,0.3 29,1 37.3,1.5 -0.3,4.1 -0.6,8.9 -0.8,13.6 -16,2.5 -28.6,6.6 -36.6,15 -7.9,7.7 -12,19.8 -12.9,34.8 -0.5,8.2 0.6,18.5 2.4,30.3 1.8,11.7 5.2,23.6 8.6,37.5 24,84.9 49.6,169.9 73.6,255.5 55.4,-135.6 113.1,-270.5 168.5,-406.2 2.5,0.2 5,0.3 7.4,0.5 46.2,145.1 94.9,289 140.3,433.4 15,-42.9 30.9,-85.8 45.8,-128.7 13.1,-39 25.2,-73.9 32.8,-104.2 7.6,-30.4 12.2,-52 13,-65.6 1.3,-21.9 -2.6,-39.9 -10.9,-54.1 -9.2,-13.5 -22,-21.8 -39.2,-24.9 0.3,-4.8 0.6,-9.5 0.8,-13.6 21.5,1.9 41.3,3.8 60.2,5.6 19.1,1.1 37.2,2.9 55.4,4 14.1,0.8 30.7,1.1 49.7,2.2 18.2,0.4 38.9,1 61.3,1.6 m 96,644.1 c -0.3,-4.1 -0.7,-8.8 -1.1,-13.6 20.5,-14.6 34.6,-36.3 40.7,-64.1 7,-27.3 7.6,-71.8 2.6,-133 l -28.2,-350.7 c -2.3,-28.6 -6.3,-47.4 -12,-56.5 -4.9,-8.5 -14.6,-15.3 -28.3,-19.6 -0.4,-4.8 -0.8,-9.6 -1.1,-13.6 40.7,-1.9 78.9,-4.3 114.5,-6.5 36.5,-2.3 68.1,-4.1 94.6,-6.3 84.4,-6.8 168.1,-13.5 251.8,-20.2 17,56.1 34.9,112.8 51.9,169.6 -4.9,0.4 -9.9,0.8 -14.9,1.2 -45.5,-48.4 -89.9,-81.7 -130.7,-101.7 -41.7,-20.6 -85.6,-28 -132,-24.3 -8.3,0.7 -13.2,1.1 -17.4,1.4 -3.3,0.3 -6.6,1.2 -10.6,2.2 6.7,84.3 13.6,169.3 20.4,253.6 9.2,0.6 16.6,0 21.7,0.3 5,0.3 9.1,-0.1 12.4,-0.3 44.8,-3.6 78.8,-15.3 103.2,-34.3 24.3,-19.1 40.3,-47.1 48.3,-83.3 4.9,-0.4 9.9,-0.8 14.9,-1.2 6.5,80.9 13.1,162.5 19.6,244.1 -5,0.4 -9.9,0.8 -14.9,1.2 -13.7,-35.9 -34,-60.2 -61.1,-75.9 -27.1,-14.9 -62.5,-20.2 -107.2,-16.6 -3.3,0.2 -7.5,0.6 -12.4,1.6 -4.9,1.1 -12.4,1.7 -21.4,3.8 4.1,50.3 8.1,99.9 12.1,150.2 3.9,47.6 13.2,80.4 28.9,99.7 15.7,19.2 39.7,27.5 72,24.9 37.3,-3 75.8,-21.8 113.9,-56.3 38,-34.6 76.7,-82.8 113.3,-146 5,1 9.3,2 14.4,3 -10.8,74 -23.2,147.6 -34.7,221.7 -96.1,7.7 -192.2,15.5 -289.1,23.2 -19,1.6 -49.7,4 -91.9,8.1 -42.1,4.1 -89.3,8.6 -142.2,14.2 m 1142.4,-147.1 c -0.9,-4 -1.9,-8.7 -3,-13.3 19,-17.6 29,-40.8 31.6,-70.8 2,-28.4 -6.2,-83.9 -24.7,-165.8 -2.8,-12.6 -5.7,-25.3 -8.5,-37.9 -21.6,-95.9 -43.1,-191.1 -64.6,-286.9 -2.7,-12 -5.4,-19.8 -8.7,-23.2 -3.1,-2.8 -7.6,-3.9 -14.1,-2.5 -20.2,4.6 -43.3,22.4 -68.3,54.6 -24.1,32 -48.8,73.2 -70.5,123.6 -5,0.4 -10,0.8 -15,1.3 -1.4,-62.7 -1.8,-124.8 -2.2,-187 164.6,-37.1 329.3,-74.2 493.9,-111.3 25.5,56.5 51.8,112.9 76.6,170.2 -4.7,1.8 -9.4,3.6 -14.1,5.3 -41.2,-36.2 -80.4,-63 -116.7,-81.4 -36.4,-18.4 -64.1,-24.7 -84.3,-20.2 -6.5,1.5 -10.9,4.6 -12.5,8.4 -1.6,4.6 -0.6,12.7 2.1,24.7 2,8.7 3.9,17.3 5.9,26 22.5,99.8 45,199.7 67.3,298.8 18.5,81.9 34.8,135.6 49.7,160.2 14.3,26.1 34.2,42.7 58.8,50.4 1.1,4.7 2.1,9.3 3,13.3 -22.1,3.6 -44,7.8 -67.6,12.4 -22.7,4.5 -48.6,10.3 -74.4,16.1 -26.6,6 -51.7,11.6 -74.1,17.4 -23.3,5.9 -44.9,11.5 -65.6,17.6 m 556,-141 c -1.3,-3.9 -2.9,-8.4 -4.5,-12.9 16.9,-19.6 25.1,-44.1 23.5,-73.9 -1.1,-28.5 -15.6,-82.6 -43.2,-161.8 -4.3,-12.3 -8.6,-24.5 -12.8,-36.8 -30.3,-86.9 -60.6,-173.8 -91.1,-261.4 -9.4,-27 -18.1,-44.3 -25.1,-51.9 -7.6,-6.7 -18.7,-10.8 -33.1,-11.6 -1.5,-4.5 -3.1,-9 -4.4,-12.9 22.1,-7 45.1,-14.3 69.6,-22.1 23.5,-8.2 56.6,-19 97.3,-33.2 25.1,-8.7 49.4,-17.2 74.5,-25.9 98.7,-34.4 173.8,-48.3 224.2,-39.9 50.6,9.1 84.8,39.1 102.7,90.6 13.9,39.9 9.2,77 -12.8,112.1 -22.8,35.4 -63.2,68.2 -122.7,99.1 42.7,-8.4 80.1,-7 111.9,3.6 32.1,11.2 60.8,30.8 87.3,61.3 10.2,11.6 24,28.5 41.3,50.6 57.3,71 102.7,102.9 135,97.4 1.4,3.8 2.7,7.7 3.8,10.9 -36,12.6 -62.9,21.2 -83.5,27.7 -21.1,7.3 -39.1,13.6 -56.4,19.6 -23.5,8.2 -40.7,14.2 -53.3,18.6 -12.5,4.3 -23.5,8.2 -33.4,12.4 -7.9,-12.5 -19.9,-29.2 -34.7,-51.5 -100.3,-149.2 -177.3,-214.1 -229.8,-195.8 -3.2,1.1 -9.4,3.3 -16.8,7.3 -0.8,0.3 -1.6,0.5 -2.1,1.5 8,23.1 16.3,47 24.6,70.8 28.1,80.5 51.4,132.3 68.7,156.6 18,24.1 38.9,38.5 64.3,43.3 1.5,4.5 3.1,9.1 4.5,12.9 -21.6,6.1 -43,12.8 -66,20.1 -22.1,7 -46.4,15.5 -72.3,24.5 -25,8.7 -49.3,17.2 -71,25.5 -22.5,8.5 -44.3,16.8 -64.2,25.2 z m 98.1,-416.9 c 5.7,-1.3 10.7,-2.3 16.1,-4.2 5.8,-1.3 12.8,-3.7 23.8,-7.5 39.1,-13.7 65,-32.8 75.7,-57.5 10.8,-24.7 9.6,-58.2 -5,-100.1 -13.7,-39.3 -32.4,-65.2 -56.6,-79.2 -23.9,-13.3 -53.9,-13.7 -89.2,-1.4 -11.7,4.1 -20.4,7.1 -27.2,10.2 -6,2.8 -12.1,5.7 -18.3,7.8 l 80.7,231.9 m 327.3,-378.4 c -2,-4.4 -3.2,-9.1 -5,-12.8 36.9,-15.4 64.4,-27.3 82.8,-35.1 18.4,-7.7 35.3,-14.7 50.4,-21.7 28.7,-13.2 70.2,-34.5 126.7,-62.9 0.8,-0.3 1.5,-0.6 3.1,-1.3 1.7,3.7 3.7,8 5.7,12.4 -15,21.2 -20.5,47 -16.6,75.3 4.1,28.9 23.8,81.6 58.7,157.3 5.4,11.8 11.1,24.2 16.5,36 16.3,35.3 32.6,70.7 48.9,106.1 31.4,68.2 64.1,113.4 98.8,135 35,22.3 73.8,23.2 119.2,2.3 21.1,-9.8 38.2,-24.4 51.7,-44.9 13.4,-20.5 21.1,-43.6 23.8,-69.6 1.2,-17.1 -0.5,-36.7 -5.8,-58.3 -5.9,-20.6 -17,-50.8 -35,-89.9 -12,-26.1 -23.7,-51.5 -35.7,-77.6 -46,-99.9 -82.9,-161.9 -109.5,-188 -25.9,-26.4 -58.6,-37.7 -95.6,-36.5 -2,-4.3 -4,-8.7 -5.7,-12.4 12.1,-5.6 26,-11.2 40.6,-17.2 13.9,-5.6 35.8,-15.7 64.5,-28.9 28.7,-13.3 49.9,-23 63.2,-29.9 14.1,-7.2 27.4,-14.1 38.7,-19.3 1.7,3.7 3.7,8.1 5.7,12.4 -24.9,27.3 -36.8,59.1 -34.1,96.9 2,38.2 26,106.2 71.7,205.5 12,26 23.7,51.5 35.5,76.9 40.8,88.8 51.4,161.4 33.9,216.8 -17,56.7 -67,103.1 -146.4,139.6 -76.3,35.1 -141.2,43.2 -193.9,22.3 -52.3,-20.2 -96.8,-69 -133,-147.8 -19.8,-42.8 -39.8,-86.2 -59.5,-129.1 -41.7,-90.6 -72.9,-148.4 -94.1,-172.5 -20.4,-24.4 -44.4,-36.7 -70.2,-39.1 m 966.2,213.2 c -21.4,-58.5 -41.7,-116.9 -63.4,-175.9 4.8,-1.8 9.3,-4.2 14.8,-6.5 43.2,44.6 89.3,72 136.4,83.6 47.2,11.5 89,4.2 123.5,-20.4 29.1,-20.9 46.8,-47.7 52.2,-80.1 4.4,-32.5 -3.2,-63.1 -24.6,-93.1 -18.2,-25.5 -39.3,-40.6 -62.8,-46.4 -24.6,-4.3 -54.2,0.1 -89.8,14.7 -6.9,3.2 -17.6,6.8 -31.1,12.2 -65.7,26.9 -112.9,39.6 -143,36 -22.6,-1.4 -43,-8.6 -62.5,-21.5 -19.5,-12.9 -38.2,-30.5 -55.7,-55 -35.7,-49.9 -44.3,-104.9 -29,-163.6 15.7,-58.2 55.3,-110 118.3,-155 28.4,-20.3 59.9,-37.8 93.8,-50.4 34.3,-13.6 72.7,-24.3 114.7,-30 17.9,50.9 34.9,103.3 52.9,154.2 -4.1,2.9 -8.5,5.2 -12.6,8.1 -33.1,-39.2 -70.9,-63.3 -109.7,-73.3 -39.2,-10.5 -75,-3.3 -106.1,18.9 -24.4,17.5 -38.1,39.8 -41.5,66.5 -3.4,26.8 3.6,53.7 21.8,79.2 17.5,24.4 37.4,37.9 58.3,41.3 21.3,4.1 58.7,-5.1 111.6,-27 68.8,-28.2 123.2,-39.4 164.3,-31.9 40.5,7.9 76.6,34.1 108.3,78.4 39.7,55.5 50,114.3 33.6,177.2 -17.1,63.4 -60,119.2 -128.4,168.1 -37.9,27.1 -77.6,48.8 -119.5,64.5 -43,15.7 -84,25.7 -124.8,27.2 m 703.6,-428.5 c -2.5,-3.3 -5.3,-7.2 -8.2,-11 9.6,-23.3 10.1,-49.1 0.3,-77.6 -9.6,-26.9 -39.7,-74.2 -89.8,-141.6 -7.7,-10.4 -15.4,-20.8 -23.2,-31.2 -58.6,-78.8 -116.9,-157.1 -175.5,-235.9 -7.3,-9.8 -12.9,-15.9 -17.3,-17.7 -4.1,-1.3 -8.6,-0.4 -14,3.5 -16.6,12.5 -30.7,38.2 -40.5,77.9 -9.9,39.6 -15.2,86.9 -14.7,141.8 -4.4,2.5 -8.8,4.9 -13.9,7.8 -26,-57.2 -51.6,-113.8 -77.8,-170 136.1,-101.3 272.2,-202.5 409,-304.3 46.2,41.3 92.5,82.6 139.1,124.4 -3.5,3.5 -7.1,7 -10.7,10.6 -52.5,-16.3 -100,-24.3 -140.2,-26.8 -40.8,-1.9 -69.5,4.1 -85.5,16 -6,4.5 -8.1,8.6 -8.1,12.9 0.5,4.7 4.7,11.8 12,21.7 l 15.9,21.3 c 61.1,82.1 122.2,164.2 182.9,245.8 50.1,67.3 86.8,109.7 110.4,126.2 23.8,18 48.7,25 73.8,22.5 2.8,3.8 5.7,7.6 8.1,10.9 -18.1,11.8 -37.2,25.2 -56.3,38.5 -19.8,13.9 -40.4,29.3 -61.8,45.2 -22,16.3 -42.7,31.7 -61,46.2 -18.9,14.9 -36.5,28.9 -53,42.9 m -548.8,-4111 c -4,-2 120.5,-14 120.5,-14 0,0 100.5,0 202.9,-4 86.3,-10 174.7,-20 198.8,-24 26.1,-12 54.2,-24.1 78.3,-38.1 l 56.3,-30 50.2,-38.1 c 68.3,-46 128.5,-108.1 176.7,-174.2 100.5,-132.2 134.6,-300.4 88.4,-458.6 -46.2,-158.2 -152.6,-300.4 -279.2,-414.5 -90.3,-82.1 -192.8,-150.2 -301.2,-204.3 -10.1,-4 -22.1,-8 -38.2,-14 -38.2,-14 -88.4,-34 -142.6,-44.1 -28.1,-6 -54.2,-14 -78.3,-20 -26.1,-4 -50.2,-4 -70.3,-6 -40.2,-4 -66.3,-6 -66.3,-6 -26.1,-4 -52.2,-2 -78.3,-4 l -100.4,-2 -144.6,10 c -48.3,6 -98.5,14 -146.7,20 -192.8,34.1 -383.6,92.2 -576.4,154.2 -259.1,82.1 -524.2,180.3 -801.3,236.3 -56.3,16.1 -114.5,28.1 -172.8,40.1 -20.1,20 -38.1,42 -56.2,62.1 -108.5,126.1 -222.9,250.3 -345.5,366.4 -26.1,26.1 -54.2,52.1 -82.3,76.1 l 26.1,26.1 c 120.5,100.1 257.1,182.2 401.7,246.3 72.3,32 146.6,54.1 222.9,78.1 76.3,16 150.7,34 233,38 l 239,26.1 245,14 359.5,20 c 0,0 170.8,20 291.3,44.1 202.8,34 120.5,54 -6.1,62.1 12.1,2 -305.2,4 -305.2,4 l -371.6,-20.1 c -80.3,-4 -160.7,-8 -241,-14 l -243,-26 c -78.4,-4 -162.7,-24.1 -243,-42.1 -78.4,-26 -158.7,-50 -233,-86.1 -82.4,-36 -162.7,-78.1 -237,-126.1 44.2,72 90.4,140.1 144.6,200.2 176.7,202.3 431.8,330.4 694.9,398.5 259.1,60.1 538.3,40.1 809.4,-4 72.3,-18 144.6,-38 218.9,-58.1 78.3,-24 160.7,-48 241,-72.1 84.4,-26 168.7,-48 253.1,-66 30.1,-8 60.2,-14.1 90.4,-20.1 -24.1,-8 -60.3,-18 -90.4,-30 -80.3,-34 -40.2,-54.1 8,-62.1 m -6369.2,50.3 c 6,2 -148.6,22 -148.6,22 h -154.7 c 10.1,4 20.1,8 30.1,10 54.3,20.1 108.5,40.1 150.7,54.1 40.1,16 68.3,24 68.3,24 l 72.3,28 c 26.1,10 38.1,12 102.4,32.1 52.2,14 104.4,22 158.7,32 52.2,2 104.4,12 158.6,6 215,-8 433.9,-64.1 636.7,-154.1 212.9,-94.1 411.8,-224.2 590.5,-378.4 -251,128.1 -524.2,202.2 -795.3,256.3 -34.2,6 -68.3,12 -104.5,18 0,0 -172.7,16 -295.2,12 -206.9,-4 -126.6,-38.1 -4,-62.1 -6.1,-2 68.3,-14 144.6,-30 74.3,-16 150.6,-34 150.6,-34 l 54.2,-8 60.3,-12 c 52.2,-10.1 102.4,-22.1 154.7,-34.1 102.4,-24 202.8,-52 301.2,-86.1 120.5,-42 237,-94 347.5,-154.1 -16.1,-16 -32.1,-32 -46.2,-48 -60.3,-68.1 -114.5,-138.1 -164.7,-208.2 -26.1,6 -52.2,14 -78.3,18 l -96.4,8 c -64.3,8 -126.6,2 -188.8,2 -36.2,0 -70.3,-4 -106.5,-8 0,0 -174.7,-26 -291.2,-64 -198.9,-62.1 -110.5,-70.1 14,-62.1 -6,-2 70.3,8 146.7,10 76.3,6 154.6,6 154.6,6 28.1,2 58.3,6 86.4,6 58.2,-2 118.5,6 176.7,-2 l 88.4,-8 24.1,-6 c -22.1,-34 -46.2,-68.1 -68.3,-102.1 l -68.3,-108.1 -42.1,-74 c 0,0 -6.1,-14.1 -18.1,-40.1 -12.1,-24 -26.1,-56 -46.2,-94.1 -2,-2 -2,-4 -4,-6 -198.9,-26 -399.7,-62 -596.6,-112.1 -60.2,-14 -120.5,-38 -180.7,-58 -60.3,-22 -120.5,-36 -178.8,-64.1 -76.3,-38 -152.6,-70 -228.9,-108.1 -12.1,-2 -26.2,-4 -38.2,-4 -152.7,-10 -307.3,-40 -464,-20 -156.6,12 -317.3,46.1 -474,96.1 -156.6,50 -311.3,120.1 -445.9,218.2 -132.5,96.1 -243,230.2 -255,386.3 -14.1,158.2 70.3,314.3 178.7,446.4 106.5,132.1 255.1,220.2 423.8,264.2 140.6,40.1 291.2,60.1 443.9,98.1 0,-2 2,-4 2,-4 2,0 36.1,2 84.3,4 48.3,4 112.5,8 176.8,6 h 259.1 c 0,0 82.3,10 142.6,28.1 100.4,24 62.3,48 0,62 m 4007.3,-36.4 -70.3,-86 -62.2,-94.1 -112.5,-178.1 c -16,-24 -30.1,-44 -46.1,-68 -182.8,144.1 -387.6,264.1 -616.4,336.2 6,30 12,64 18,100 10.1,82.1 12.1,168.1 12.1,168.1 0,0 -4,12.1 -12.1,32.1 -6,20 -14,42 -28.1,60 -42.2,60 -56.2,16 -62.2,-16 2,4 -12.1,-82.1 -12.1,-82.1 0,0 0,-72 -10,-148 -4,-30.1 -10.1,-60.1 -14.1,-84.1 -54.2,12 -108.4,22 -162.6,30 2,58.1 0,116.1 -2,174.1 -6,86.1 -14.1,172.1 -32.1,258.2 -8.1,36 -14.1,70 -24.1,106 0,0 -4.1,10 -10.1,28 -8,16.1 -16,42.1 -30.1,68.1 -24.1,56 -60.2,124.1 -98.4,172.1 -50.2,64 -78.3,88 -90.3,90 -4,0 -6.1,-2 -6.1,-6 -4,-12 8.1,-38 24.1,-74 l 152.6,-638.4 c 0,-4 2,-8 2,-10 2.1,-54 2.1,-106 0,-160.1 -46.1,2 -92.3,2 -138.5,0 -2,6 -4,14 -8,20 -12.1,32.1 -32.2,74.1 -50.2,114.1 -22.1,40 -42.2,80.1 -60.3,110.1 -18,28 -32.1,48 -32.1,48 0,0 -10,8 -26.1,24 -16.1,14 -38.1,28 -60.2,38 -66.3,32.1 -60.3,-10 -44.2,-46 -2,0 12,-16 20.1,-40 10,-22 20.1,-44 20.1,-44 0,0 12,-16.1 28.1,-42.1 16,-26 34.1,-62 54.2,-100 14,-32 30.1,-64.1 40.1,-90.1 -140.5,-16 -285.1,-56 -413.6,-120 -58.2,-30.1 -112.4,-64.1 -166.6,-102.1 -220.9,210.1 -477.9,384.2 -759,506.3 -72.3,30 -144.6,56 -216.8,78 -14.1,84.1 -10.1,170.1 22,254.2 26.1,78 68.3,152.1 118.5,224.1 l 152.6,78.1 c 214.8,106 429.7,210.1 652.6,294.1 32.1,12 64.2,26 98.3,36 0,0 36.2,16 90.4,38.1 26.1,12 54.2,26 86.3,40 28.1,10 58.3,22 90.4,32 190.7,72 110.4,78 -20.1,60 8,2 -70.3,-6 -146.6,-28 -76.3,-20 -152.6,-42 -152.6,-42 -30.1,-8 -58.2,-20 -86.3,-32 -192.8,-72.1 -377.5,-158.1 -562.2,-248.2 232.9,220.2 516,396.3 817.2,520.3 160.6,66.1 325.3,116.1 493.9,106.1 170.7,-4 343.4,-34 510,-74 315.3,-76.1 618.4,-194.2 873.4,-366.3 -269,84.1 -546.1,136.1 -821.2,172.1 l -106.4,12 c 0,0 -40.2,2 -100.4,4 -60.2,0 -134.5,-2 -194.7,-4 -206.9,-14 -124.5,-42 0,-64 -6.1,0 68.2,-12 144.5,-22 76.3,-14 152.6,-26 152.6,-26 l 88.4,-12 c 311.2,-40 620.4,-98.1 911.5,-202.1 l 168.7,-68.1 c 44.2,-50 82.3,-102 110.4,-158.1 68.3,-130 72.3,-280.1 56.2,-424.2 -10,-60 -24.1,-118.1 -40.1,-176.1 -112.5,-70.1 -214.9,-156.1 -301.2,-256.2 M 15989.3,9479 c -132.5,-60 -273.1,-112.1 -417.6,-154.2 -150.6,-44 -307.2,-78.1 -463.8,-92.1 -158.6,-16 -321.3,-12 -467.8,40.1 -72.3,24 -136.5,66.1 -184.7,120.1 -52.2,54.1 -78.3,124.2 -102.4,200.3 -44.2,152.2 -36.2,316.4 8,472.6 28.1,94.1 66.3,186.3 114.4,272.4 6.1,8 12.1,18 20.1,32 12.1,16 26.1,36.1 40.2,58.1 16,20 34.1,40 50.2,62.1 18,22 36.1,44 52.2,64.1 18,20 36.1,38 50.2,54 30.1,30.1 48.2,50.1 48.2,50.1 18,20 36.1,38 54.2,58.1 20,20 26.1,28 78.3,78.1 86.3,76.1 176.6,152.2 275,210.3 46.2,32 100.4,56 152.6,80.1 l 158.6,76.1 166.7,56 c 56.2,18.1 110.4,38.1 168.6,50.1 144.6,36 293.2,64.1 441.7,86.1 -12,-26 -22.1,-52.1 -30.1,-78.1 -10,-30 -16.1,-56.1 -20.1,-80.1 -84.3,-26 -170.6,-56.1 -252.9,-88.1 -178.7,-68.1 -353.4,-144.2 -524.1,-230.3 -84.3,-42.1 -168.6,-84.1 -250.9,-130.2 l -106.4,-58.1 c 0,0 -144.6,-94.1 -239,-172.2 -162.6,-128.2 -78.3,-106.1 36.2,-52.1 -6.1,-4 62.2,30.1 130.5,66.1 70.2,34.1 140.5,68.1 140.5,68.1 l 120.5,66.1 c 80.3,42.1 162.6,84.1 244.9,124.2 164.7,82.1 333.3,156.2 504,220.3 68.2,26 138.5,50 206.8,72.1 4,-2 6,-2 10,2 16.1,14 38.2,82.1 88.4,158.2 -4.1,-10 50.1,82.1 120.4,176.2 34.2,46.1 68.3,94.1 94.4,136.2 24.1,36 40.1,60.1 40.1,60.1 l 40.2,68 20.1,34.1 32.1,48.1 c 20.1,34 42.2,68 64.2,100.1 92.4,132.2 182.7,260.3 295.2,366.5 110.4,106.1 236.9,192.2 377.4,246.3 138.6,56.1 293.2,78.1 445.8,76.1 154.6,0 307.1,-28 451.7,-80.1 196.8,-68.1 377.5,-182.2 544.1,-316.4 l -2,2 22.1,-18 c 2,-2 4,-2 6,-4.1 l 48.2,-42 2,-2 c 6,-4 12,-10 16.1,-14 l 8,-6 c 42.2,-40.1 86.3,-78.1 126.5,-118.2 114.4,-112.1 218.8,-228.3 327.2,-356.5 28.2,-30 54.3,-58 76.3,-86.1 10.1,-14 20.1,-28 28.2,-42 4,-6 8,-12 10,-18.1 l 2,-4 -18.1,-10 c -28.1,-16 -60.2,-30 -96.3,-40 -34.2,-12 -72.3,-22.1 -112.5,-32.1 l -60.2,-14 c -18.1,-6 -36.2,-10 -54.2,-14 -74.3,-14 -148.6,-22 -224.9,-22 -152.6,-2 -307.2,26 -459.8,66.1 -76.3,20 -152.6,44 -228.8,70 -38.2,12.1 -74.3,26.1 -120.5,38.1 -42.2,12 -84.3,22 -124.5,30 -82.3,16.1 -164.6,28.1 -244.9,42.1 l -120.5,18 c -54.2,8 -106.4,2 -152.6,-8 -92.4,-20 -172.7,-58.1 -246.9,-100.1 -76.3,-42.1 -146.6,-94.2 -210.9,-140.2 -132.5,-96.1 -261,-186.3 -397.5,-234.3 -80.3,-26.1 -158.6,-36.1 -236.9,-24.1 -4,0 -6,2 -10.1,-2 -18,-10 -42.1,-24 -56.2,-50 -14,-24.1 -18,-60.1 26.1,-106.2 2,0 8.1,-8 14.1,-8 6,-2 12,-2 20.1,-2 -92.4,-94.1 -174.7,-198.2 -241,-312.4 -34.1,-62.1 -74.3,-122.1 -98.3,-192.2 l -40.2,-100.2 -28.1,-106.1 c -22.1,-68.1 -24.1,-142.2 -32.1,-216.3 -4.1,-72.1 2,-144.2 6,-214.3 12,-96.1 30.1,-192.2 52.2,-284.4 m 2989.6,-301.2 c -36.2,-132.1 -96.4,-254.2 -170.7,-366.2 l -54.2,-72.1 c -16.1,-22 -34.2,-40 -52.3,-60 0,0 -10,-10 -26.1,-30.1 -16,-20 -36.1,-50 -66.2,-80 -30.1,-32 -66.3,-68.1 -102.4,-106.1 -88.4,-70 -180.8,-138.1 -279.2,-208.1 -166.6,-138.2 -289.1,-300.3 -439.7,-434.4 -74.3,-66 -154.7,-124.1 -241,-152.1 -80.3,-24 -168.7,4 -255,52.1 -168.7,100 -315.3,252.1 -449.8,408.3 -132.6,158.1 -257.1,326.2 -365.5,500.3 -44.2,76.1 -84.3,154.1 -122.5,234.2 -16.1,38 -40.2,102.1 -62.3,168.1 -18,54.1 -36.1,108.1 -46.1,150.1 -12.1,42.1 -20.1,70.1 -20.1,70.1 -8.1,24 -18.1,50 -24.1,76 l -32.1,114.1 c -18.1,62.1 -28.2,126.1 -42.2,188.2 -10.1,62 -20.1,126.1 -26.1,190.1 -20.1,250.2 50.2,492.4 184.7,708.5 98.4,152.2 222.9,286.3 363.5,404.3 6,2 12,2 18.1,4 152.6,54.1 281.1,142.1 401.6,226.2 10,-32 34.1,-62 72.3,-66 46.2,4 68.2,44 82.3,74 v 4 c 0,10 -6,22 -16.1,26 -6,2 -12,2 -20,-2 2,10 4,20.1 4,28.1 0,-2 0,8 -2,22 12,10 24.1,18 38.1,26 -2,-14 0,-30 4,-42 10.1,-34.1 36.2,-66.1 76.3,-70.1 46.2,2 68.3,44 80.4,72.1 0,2 2,2 0,4 0,12 -4.1,22 -14.1,26 h -2 c -4,2 -12.1,2 -20.1,0 4,8 6,18 6,28 0,-2 0,8 -6,26 0,6 -6,16 -14,22 16,10 32.1,18.1 48.2,24.1 2,-8 2,-18.1 6,-26.1 10,-34 34.1,-66 74.3,-70 46.2,2 68.2,42 82.3,72 v 4 c 0,10.1 -6,22.1 -16.1,26.1 -6,2 -12,2 -20,-2 2,10 4,20 4,30 0,-2 2,2 0,10 h 2 c 36.1,6 60.2,8 94.4,2 l 122.5,-20 c 12,-2 22,-4 32.1,-6 2,-6 2,-12 4,-16 -6,2 -16.1,6 -26.1,2 -6,-4 -12.1,-10 -14.1,-24.1 0,-2 -2,-4 0,-6 12.1,-30 34.2,-70 80.4,-72 40.1,4 66.2,36 76.3,70 2,8 2,16.1 4,26.1 14,-4 30.1,-6 44.2,-10 -12.1,-14.1 -18.1,-34.1 -16.1,-50.1 -2,-12 2,-20 6,-26 -6,2 -16,6 -26.1,2 -6,-2 -12,-10 -16,-24 v -6 c 14,-28 36.1,-70.1 82.3,-72.1 40.1,4 64.2,36 74.3,70.1 8,22 8,46 0,70 2,0 -2,6 -8,16 20,-4 38.1,-10 56.2,-16 l 16,-4 16.1,-28 c -2,0 -2,0 -4,-2 -18.1,-16 -24.1,-38 -22.1,-56 0,-12 4,-20.1 8,-28.1 -6,4 -18,8 -28.1,4 -6,-4 -12,-10 -14,-24 v -6 c 12,-30 34.1,-70 80.3,-74 32.1,4 52.2,24 66.3,48 20,-40 38.1,-82.1 60.2,-120.1 32.1,-62 62.2,-124.1 84.3,-190.1 22.1,-64.1 48.2,-128.1 70.3,-194.2 l 46.2,-200.1 c 30.1,-134.1 46.2,-274.2 56.2,-410.3 4,-70.1 4,-138.1 0,-206.2 -2,-46 -6,-72 -10,-110.1 0,0 -12.1,-162.1 -56.2,-272.2 -18.1,-46 -32.2,-74 -38.2,-94 -8,-18 -6,-26.1 2,-24.1 14.1,2 56.2,36.1 94.4,92.1 -2,-6 40.2,62.1 68.3,140.1 28.1,76.1 42.1,158.1 42.1,158.1 l 8.1,56.1 4,74 c 2,72.1 2,142.1 -4,214.2 -10.1,142.1 -26.1,280.2 -58.3,418.3 l -50.2,208.2 -72.3,198.1 c -22,68.1 -56.2,130.1 -86.3,194.1 -32.1,60.1 -58.2,124.1 -96.4,180.2 58.2,-18 118.5,-36 178.7,-52.1 26.1,-6 54.3,-12 82.4,-18 222.9,-374.2 401.6,-774.5 479.9,-1196.9 50.2,-274.2 44.2,-552.4 -34.1,-816.6 m -2136.6,-536.4 c 4,-6 -34.2,58.1 -72.3,126.1 -36.2,66.1 -70.3,136.1 -70.3,136.1 l -44.2,76.1 c -54.2,102.1 -102.4,204.1 -140.6,310.2 -20,58.1 -38.1,116.1 -52.2,174.1 0,2.1 -2,2.1 -4,6.1 -22.1,18 -70.3,46 -104.4,-24.1 0,0 -2,-6 -2,-10 16.1,-62 34.1,-124.1 56.2,-184.1 42.2,-112.1 92.4,-220.2 148.6,-324.2 l 52.2,-92.1 c 0,0 98.4,-146.1 182.8,-234.2 142.5,-152.1 112.4,-70 50.2,40 m 1122.5,2081.6 c 40.1,4 64.2,38 74.3,72 8,20.1 8,46.1 0,70.1 0,-2 -10.1,34 -42.2,48 -14,6 -40.2,10 -58.2,-6 -18.1,-16 -22.1,-38 -22.1,-56 0,-12 4,-20 8,-26 -6,2 -16,6 -26.1,2 h -2 2 c -8,-4 -12,-10 -16.1,-24.1 v -6 c 14.1,-30 36.2,-70 82.4,-74 m -233,-60.1 c 12.1,-30 34.2,-72 80.4,-74 40.1,4 66.2,38 76.3,70 6,22.1 8,48.1 0,72.1 0,-2 -12.1,32 -44.2,46 -14.1,8 -38.2,12 -56.2,-4 -18.1,-16 -24.1,-38 -22.1,-56 0,-12 2,-20 6,-28 -6,4 -16.1,8 -26.1,4 -6,-4 -12.1,-10 -14.1,-26.1 0,0 -2,-4 0,-4 m 0,226.2 c 12.1,-30 34.2,-70 80.4,-74 40.1,4 66.2,38 76.3,72 6,20 8,46 0,70.1 0,-2 -12.1,32 -44.2,46 -14.1,8 -38.2,12 -56.2,-4 -18.1,-16 -24.1,-38 -22.1,-56.1 0,-12 2,-20 6,-28 -6,4 -16.1,8 -26.1,4 -6,-4 -12.1,-10 -14.1,-26 0,0 -2,-4 0,-4 m -162.6,-302.2 c 10,-34 36.1,-66.1 74.3,-70.1 48.2,2 70.3,44.1 82.3,72.1 v 6 c 0,10 -4,20 -14,24 v 2 l -2,-2 c -4.1,2 -12.1,2 -20.1,0 4,8 6,18 6,28 0,-2 0,8 -6,26 -4,16.1 -26.1,44.1 -54.2,40.1 -24.1,-4 -44.2,-18 -54.3,-34 -12,-16.1 -16,-32.1 -16,-32.1 -4,-20 -2,-42 4,-60 m 0,226.2 c 10,-34.1 36.1,-66.1 74.3,-70.1 48.2,2 70.3,44 82.3,72.1 v 6 c 0,10 -4,20 -14,24 v 2 h -2 c -4.1,2 -12.1,2 -20.1,-2 4,8 6,18 6,28 0,-2 0,10 -6,26 -4,18 -26.1,44 -54.2,40 -24.1,-4 -44.2,-16 -54.3,-34 -12,-16 -16,-32 -16,-32 -4,-20 -2,-40 4,-60 m -176.7,-154.2 c 10,-34 34.1,-66 74.3,-70 46.2,2 68.2,44 82.3,74 v 4 c 0,10 -6,20.1 -16.1,24.1 v 2 c -6,2 -12,2 -20,-2 2,8 6,18 4,28 0,-2 2,10 -4,26 -4.1,18 -28.2,44 -54.3,40 -24.1,-4 -44.1,-16 -56.2,-34 -10,-16 -14,-30 -14,-30 -4.1,-22 -2,-42 4,-62.1 m -156.7,130.1 c 10.1,-34 34.2,-66 74.3,-70 46.2,2 70.3,42 82.4,72 v 4 c 0,10 -6,22.1 -16.1,26.1 h 2 -2 c -6,2 -12,2 -20.1,-2 4,10 6.1,20 4,28 0,-2 2.1,10 -4,28 -4,16 -26.1,44 -54.2,38 -24.1,-2 -44.2,-16 -54.2,-32 -12.1,-18 -16.1,-32 -16.1,-32 -4,-20 -2,-42.1 4,-60.1 m 2.1,192.2 c -6.1,2 -12.1,2 -22.1,-2 4,8 6,18 6,28 0,-2 2,10 -4,26 -4,18 -28.1,44 -54.2,40 -24.1,-4 -44.2,-16 -56.3,-34 -12,-16 -14,-30 -14,-30 -4,-22 -4,-42 4,-62 10,-34.1 34.1,-66.1 74.3,-70.1 46.2,2 68.3,44 82.3,74.1 v 4 c 0,10 -6,20 -16,26 z m 130.5,68 c 4,8 6,18 6,28 0,-2 0,10.1 -6,28.1 -4,16 -26.1,42 -54.2,38 -24.1,-4 -44.2,-16 -54.3,-34 -12,-16 -16,-30.1 -16,-30.1 -4,-22 -2,-42 4,-62 10,-32 36.1,-66 74.3,-70 48.2,2 70.3,44 82.3,74 v 4 c 0,10 -4,20 -14,26 h -2 c -4.1,2 -12.1,2 -20.1,-2 m 168.7,102.1 h -2.1 c -6,2 -12,2 -20,-2 4,8 6,18 6,28 0,-2 0,10 -6,28 -4,16.1 -26.1,42.1 -54.3,38.1 -24,-4 -42.1,-16 -54.2,-34.1 -12,-16 -16,-30 -16,-30 -4,-22 -2,-42 4,-60 10,-34 36.1,-68.1 74.3,-72.1 48.2,4 70.3,44.1 82.3,74.1 v 4 c 0,10 -4,22 -14,26 m 6,-226.2 h 2 -2 c -6,2 -12.1,2 -20.1,-2 4,8 6,18 4,28.1 0,-2 2,10 -4,28 -4,16 -26.1,42 -54.2,38 -24.1,-4 -44.2,-16 -54.2,-34 -12.1,-16 -16.1,-30 -16.1,-30 -4,-22.1 -2,-42.1 4,-60.1 10.1,-34 34.2,-68 74.3,-72 48.2,4 70.3,44 82.3,74 v 4 c 0,10 -6,22 -16,26 m 26.1,116.1 c 10,-34 36.1,-68 74.3,-72 48.2,4 70.3,44 82.3,74 v 4 c 0,10 -4,22 -14,26 h -2 c -4.1,2 -12.1,2 -20.1,-2 4,8 6,18.1 6,28.1 0,-2 0,10 -6,28 -4,16 -26.1,42 -54.2,38 -24.1,-4 -44.2,-16 -54.3,-34 -12,-16 -16,-30 -16,-30 -4,-22.1 -2,-42.1 4,-60.1 m 142.6,258.2 h -2 c -4.1,2 -12.1,2 -20.1,-2 4,10 6,20 6,28 0,-2 0,10 -6,28.1 -4,16 -26.1,44 -54.2,38 -24.1,-4 -44.2,-16 -54.3,-34 -12,-16.1 -16,-30.1 -16,-30.1 -4,-22 -2,-42 4,-60 10,-34 36.1,-68.1 74.3,-72.1 48.2,4 70.3,44.1 82.3,74.1 v 4 c 0,10 -4,22 -14,26 m 170.6,-110.1 c 0,0 -12,34.1 -44.1,48.1 -14.1,6 -38.2,12 -58.3,-6 -16,-14 -22.1,-38.1 -20,-56.1 0,-10 2,-20 6,-26 -6,4 -16.1,8 -26.1,2 v 2 -2 c -6.1,-2 -12.1,-8 -14.1,-24 -2,0 -2,-4 0,-6 12.1,-28 34.2,-70.1 80.3,-72.1 40.2,4 66.3,36.1 76.3,70.1 6.1,22 6.1,48 0,70 m 152.7,-90 c 0,0 -12.1,34 -44.2,48 -14.1,6 -38.2,12 -56.2,-4 -18.1,-16 -24.1,-40 -22.1,-58 0,-10.1 2,-18.1 6,-26.1 -6,4 -16.1,8 -26.1,2 -6,-2 -12.1,-8 -14.1,-24 0,0 -2,-4 0,-6 12.1,-28 34.2,-70 80.4,-72 40.1,4 66.2,36 76.3,70 6,22 8,48 0,70.1 m 150.6,-78.1 c 2,-2 -10.1,34 -42.2,48 -14.1,6 -40.2,12 -58.2,-6 -18.1,-16 -22.1,-38 -22.1,-56 0,-12 4,-20 8,-26 -6,2 -16.1,6 -26.1,2 -6,-4 -12,-10 -16.1,-24 v -6 c 14.1,-30.1 36.2,-70.1 82.4,-72.1 40.1,2 64.2,36 74.3,70.1 8,20 8,46 0,70 m 3340.7,-1252.6 c -2,-88.2 -10.1,-170.3 -34.2,-250.4 -20,-78.1 -58.2,-150.2 -112.4,-204.3 -24.1,-26 -54.2,-46.1 -86.3,-62.1 -6.1,10 -12.1,20 -18.1,30.1 -102.4,180.2 -92.4,94.1 -56.2,-28.1 -4,6 20.1,-64.1 42.1,-138.2 20.1,-72.1 34.2,-146.2 34.2,-146.2 4,-18 8,-34.1 12,-50.1 l 4,-26 v -6 l 4.1,-32.1 c 4,-28 4,-56.1 2,-82.1 -6.1,-106.2 -68.3,-184.3 -170.7,-222.3 -100.4,-38.1 -220.9,-46.1 -337.3,-50.1 -232.9,-4 -465.8,46.1 -674.7,148.2 -208.8,102.2 -395.5,250.4 -556.1,422.6 -140.6,154.3 -261.1,324.5 -367.5,504.8 6,162.2 -8,322.5 -38.1,476.7 -74.3,378.5 -218.9,731.1 -401.6,1061.6 34.1,-20.1 68.3,-44.1 100.4,-68.1 46.2,-36.1 90.3,-76.2 134.5,-114.2 l 469.9,-456.7 c 66.2,-70.1 130.5,-140.2 192.7,-208.3 l 70.3,-78.1 c 0,0 122.5,-120.2 214.8,-200.3 58.3,-52.1 88.4,-74.1 100.4,-74.1 18.1,-2 -10,54.1 -56.2,118.2 6,-4 -40.2,58 -88.3,118.1 l -96.4,124.2 -184.7,202.3 c -72.3,78.1 -144.6,154.2 -218.9,228.3 -136.5,138.3 -277.1,274.5 -429.7,398.6 l 38.2,-14 c 54.2,-18 108.4,-46.1 162.6,-68.1 32.1,-14 62.2,-30 92.4,-46.1 0,0 122.4,-50 271,-110.1 70.3,-32.1 106.4,-42.1 118.5,-38.1 18.1,4 -28.1,46.1 -92.4,94.2 6.1,-4 -56.2,40 -122.5,80.1 -66.2,42 -136.5,82.1 -136.5,82.1 -28.1,12 -54.2,26 -82.3,38.1 -34.1,14 -66.3,30 -98.4,44 32.1,6 64.3,10 96.4,18.1 80.3,22 160.6,38 249,72.1 22,8 44.1,18 66.2,30 12.1,6 22.1,12 32.1,20 10.1,6 30.2,22.1 44.2,36.1 28.1,28 42.2,68.1 38.2,110.1 0,10.1 -2,22.1 -6.1,34.1 235,-66.1 459.8,-176.3 654.6,-324.5 188.7,-142.2 353.4,-320.4 485.9,-518.7 l 94.4,-152.3 c 22.1,-52 50.2,-100.1 62.2,-156.2 l 14.1,-46.1 c 4,-12 6,-24 8,-36 l 14.1,-76.1 c 0,0 4,-16.1 8,-40.1 4,-26 10,-62.1 18.1,-104.1 14,-84.2 28.1,-194.3 52.2,-286.5 38.1,-152.2 74.3,-192.2 84.3,-172.2 6,10 8,34 10,68.1 -2,32 -2,74.1 -2,122.2 2,-10 0,100.1 2,216.3 0,58.1 -2,118.2 -4,164.2 0,46.1 -6,78.1 -6,78.1 l -14.1,86.2 c -8,30 -12,42 -36.1,120.1 -10,32.1 -26.1,62.1 -40.2,92.2 -14,30 -28.1,62.1 -44.1,86.1 -34.2,54.1 -64.3,110.2 -102.4,160.2 -122.5,178.3 -271.1,338.5 -437.7,476.7 192.7,-62 389.5,-120.1 596.3,-152.2 70.3,-12 142.5,-18 214.8,-22 6.1,-12 14.1,-22 20.1,-34.1 156.6,-304.4 214.9,-658.9 224.9,-1005.4 2,-88.2 2,-174.3 -2,-262.4 m -1501.9,863.2 c -6,6 -24.1,24.1 -40.2,38.1 -16,16 -32.1,30 -32.1,30 0,0 -16,14.1 -34.1,28.1 -16.1,16 -40.2,28 -48.2,34 -14.1,8 -28.1,2 -48.2,-12 2,-28 2,-42 12.1,-50.1 6,-4 24.1,-12 40.1,-28 16.1,-14 32.1,-26 32.1,-26 0,0 14.1,-12.1 30.2,-26.1 14,-16 32.1,-32 38.1,-38 10,-10 24.1,-6 50.2,0 8,24 10,40 0,50"
       id="path8743" />
    <path
       fill="#041e42"
       d="m 18188.3,11317.6 c -121.2,31.3 -372.3,67.5 -604.7,96.3 -198.7,-26.3 -634.8,-150 -627.3,-318.8 20,-257.5 433.6,-710 659.7,-735 225,-25 663.5,507.5 756,661.3 -112.5,187.5 -71.2,187.5 -183.7,296.2"
       id="path8745" />
    <path
       fill="#d69a2d"
       d="m 18123.4,11334.5 c -108.6,31.2 -328.5,67.5 -535.9,96.2 -176.1,-26.2 -557.1,-126.2 -550.9,-295 7.5,-27.5 374.8,-646.2 575.9,-671.2 201.1,-25 587.1,542.5 667.1,566.2 -99.9,187.5 -56.2,195 -156.2,303.8"
       id="path8747" />
  </g>
</svg>
