<?xml version="1.0" encoding="UTF-8" standalone="no"?>
<svg
   color-interpolation="auto"
   color-rendering="auto"
   font-size="12"
   font-style="normal"
   font-weight="normal"
   height="273.52066"
   image-rendering="auto"
   shape-rendering="auto"
   stroke-miterlimit="10"
   text-rendering="auto"
   width="1165.9298"
   id="svg2"
   sodipodi:version="0.32"
   inkscape:version="1.1.1 (3bf5ae0d25, 2021-09-20)"
   sodipodi:docname="Flag-map_of_Tennessee.svg"
   inkscape:output_extension="org.inkscape.output.svg.inkscape"
   version="1.0"
   style="font-style:normal;font-weight:normal;font-size:12px;font-family:Dialog;fill:#000000;fill-opacity:1;stroke:#000000;stroke-width:1;stroke-linecap:square;stroke-linejoin:miter;stroke-miterlimit:10;stroke-dasharray:none;stroke-dashoffset:0;stroke-opacity:1"
   xmlns:inkscape="http://www.inkscape.org/namespaces/inkscape"
   xmlns:sodipodi="http://sodipodi.sourceforge.net/DTD/sodipodi-0.dtd"
   xmlns:xlink="http://www.w3.org/1999/xlink"
   xmlns="http://www.w3.org/2000/svg"
   xmlns:svg="http://www.w3.org/2000/svg"
   xmlns:rdf="http://www.w3.org/1999/02/22-rdf-syntax-ns#"
   xmlns:cc="http://creativecommons.org/ns#"
   xmlns:dc="http://purl.org/dc/elements/1.1/">
  <metadata
     id="metadata592">
    <rdf:RDF>
      <cc:Work
         rdf:about="">
        <dc:format>image/svg+xml</dc:format>
        <dc:type
           rdf:resource="http://purl.org/dc/dcmitype/StillImage" />
      </cc:Work>
    </rdf:RDF>
  </metadata>
  <sodipodi:namedview
     inkscape:window-height="697"
     inkscape:window-width="1366"
     inkscape:pageshadow="2"
     inkscape:pageopacity="0.0"
     guidetolerance="10.0"
     gridtolerance="10.0"
     objecttolerance="10.0"
     borderopacity="1.0"
     bordercolor="#666666"
     pagecolor="#ffffff"
     id="base"
     inkscape:zoom="0.44866667"
     inkscape:cx="634.10104"
     inkscape:cy="159.36107"
     inkscape:window-x="-8"
     inkscape:window-y="-8"
     inkscape:current-layer="svg2"
     showgrid="false"
     inkscape:window-maximized="1"
     inkscape:pagecheckerboard="0" />
  <!--Generated by the Batik Graphics2D SVG Generator-->
  <defs
     id="genericDefs">
    <inkscape:perspective
       sodipodi:type="inkscape:persp3d"
       inkscape:vp_x="0 : 136.17691 : 1"
       inkscape:vp_y="0 : 1000 : 0"
       inkscape:vp_z="1167.559 : 136.17691 : 1"
       inkscape:persp3d-origin="583.77948 : 90.318003 : 1"
       id="perspective27" />
    <defs
       id="defs1">
      <clipPath
         id="clipPath1"
         clipPathUnits="userSpaceOnUse">
        <path
           id="path9"
           d="M 0,0 H 1500 V 415 H 0 Z" />
      </clipPath>
    </defs>
    <clipPath
       clipPathUnits="userSpaceOnUse"
       id="clipPath4337">
      <path
         transform="matrix(0.623364,0,0,0.623364,-133.72122,305.36351)"
         clip-path="url(#clipPath1)"
         d="m 56.6199,315.8858 z m 1302.6654,-255.7256 52.669,0.2691 1.8956,-4.3476 30.6105,0.7577 14.8418,0.0911 -5.4912,5.1359 0.5815,2.7509 -2.1742,0.6586 -0.2497,2.5171 -0.9824,2.2301 -1.8291,2.6851 1.7465,4.4741 0.085,2.406 0.2465,3.1793 -0.033,2.021 -2.2146,2.0622 -0.6931,2.3957 -0.146,2.03 -0.7281,2.2846 -2.424,2.148 -1.2749,2.2453 2.1183,2.3859 -0.9957,2.3066 1.4079,2.1094 0.6049,2.0445 0.8233,2.1286 2.0054,1.2381 -2.1971,1.0659 -2.083,-1.0319 -2.3965,0.7507 -2.5529,-0.5401 -2.0984,-0.6847 -2.5963,-0.9055 -0.6488,-2.1932 -2.4077,1.0474 -4.12,1.3351 -3.262,2.1355 -2.0494,1.4258 -2.2369,3.0354 -2.5592,1.344 -2.2364,1.0217 -5.0705,9.0798 -3.4951,5.5207 -10.9681,19.3487 -2.8518,0.9488 -2.8683,2.4307 -3.033,1.3045 -3.0992,0.1583 -2.7529,0.2175 -2.2583,0.1188 -1.4881,-3.0747 -0.4737,-3.2882 -1.1704,-2.6284 -2.0439,0.5336 -2.72,0.9092 -2.5879,-1.3238 -3.5116,-2.0155 -2.54,2.8805 -2.026,1.4673 -2.1264,0.2176 -2.0277,1.7983 -2.2417,-0.3755 -3.8078,-0.4347 -2.4233,1.9959 -2.9505,1.1662 -2.209,-0.3953 -2.0962,1.5934 -2.2062,0.6595 -2.3736,1.7193 -2.39,1.8378 -9.2803,15.7898 -2.5247,1.8835 -4.0926,3.1657 -2.0382,1.3663 -2.3587,0.5429 -2.4537,0.89 -2.5403,2.7851 -2.851,-0.8857 -2.7703,-1.5808 -2.602,0.0713 -0.022,-2.6919 0.1567,-2.4756 -1.2229,-2.2402 1.0055,-2.3321 2.8351,-3.2012 -2.489,-1.8774 -1.8298,-2.6084 -2.4397,-1.9762 -2.9836,1.2648 -2.7362,0.9683 -2.0604,0.8893 -2.9011,2.4507 -2.9669,1.423 -1.6816,2.0946 -2.2746,0.6324 -2.1924,1.7588 -3.3625,1.1068 -2.1658,2.3078 0.024,2.1798 1.2869,2.1507 -1.6012,2.9146 -2.1373,1.5826 -0.3852,2.7718 -2.0373,0.8843 -2.2757,-1.4382 -2.0317,-1.7369 -3.2085,-1.1282 -2.2146,-1.0411 -2.4681,0.8616 -2.0738,2.0997 -0.063,2.1535 -2.9337,-0.3921 1.3516,2.3807 0.5404,2.308 1.2046,2.3948 -0.4042,2.4856 -1.1811,2.3276 -1.5748,2.485 0.6605,2.8501 -2.9212,0.982 -0.3234,2.1886 -2.074,1.1197 -1.6359,3.125 -0.5236,2.5741 -3.6808,2.5778 -2.8381,0.864 -2.4755,-1.6458 -3.2972,-1.0748 -2.7145,-0.4235 -3.2216,0.2446 -2.1401,0.4972 -2.0891,1.993 -2.079,0.9478 -2.8378,0.5573 -2.2104,0.4259 -2.9821,0.2067 -0.9167,2.0303 -2.0983,2.1155 -1.3492,2.7712 -2.074,0.8688 -2.676,0.2094 -4.3134,-0.4596 -2.4429,2.3291 0.06,2.6641 -0.6651,2.2365 -2.0138,1.7193 -2.932,1.3768 -0.7435,2.488 -2.4628,1.1598 -2.0578,-1.3369 -2.2853,-0.5249 -2.7354,1.1093 -1.1045,2.2447 -1.9959,2.0345 -3.0252,0.913 -1.3028,2.147 -3.0254,1.6017 -2.8546,0.9236 -2.226,-0.3679 -1.6351,2.7188 -2.5781,1.5298 -1.1846,2.1882 -1.1023,2.1339 -2.1592,1.0776 -3.1696,0.0216 -2.7371,-0.3552 -2.9667,0.0637 -2.2951,-0.3255 -2.6224,0.6539 -2.3896,-2.3839 -2.0426,-0.9296 -2.2669,1.4569 -2.3968,0.9847 -3.1864,-0.5697 -2.7331,0.1986 -2.5869,0.2338 -3.0349,-0.1467 -2.6803,1.316 -2.0126,-0.7077 -2.0443,1.1081 -2.4463,-0.5959 -2.838,2.4655 -2.3262,0.9994 -2.3854,1.7618 -2.7819,2.4872 -3.7767,0.9031 -3.3295,-0.2189 -2.2849,0.6294 -1.5678,2.785 -1.5582,2.3839 -1.689,2.9639 -2.0915,0.3225 -2.0692,0.5701 -2.2483,2.1205 -2.0537,0.4429 -1.5404,2.1979 -2.5535,1.2734 -1.6954,2.0284 -2.715,3.7006 -0.6759,2.4112 1.2528,3.0433 0.4131,2.3552 -1.8936,2.9568 -2.3324,1.2956 -0.254,2.0092 0.5719,2.5091 -0.511,2.0355 1.533,2.2726 0.445,2.075 -2.0606,1.4031 -1.5659,2.4902 -5.8692,2.9517 -2.7941,2.7542 -2.645,-0.3502 -2.0935,0.494 -2.1263,0.0595 -3.1651,0.0593 -3.2308,1.0278 -2.4067,-0.8102 -1.5989,-2.154 -1.9452,-2.1144 -2.1759,-0.2964 -2.4562,2.9248 -2.4725,1.3637 -2.9177,2.2529 -2.1587,2.0525 -1.0233,7.667 -2.017,15.6973 -2.4575,23.2704 -22.4406,0.0624 -58.1357,0.1435 -13.3214,-0.1733 -56.7243,0.4761 -23.7147,0.5531 -14.3738,0.0124 -58.8973,-1.0195 -90.8186,-0.7134 -15.3504,0.2492 -33.2058,-0.3674 -31.7445,0.0755 -91.7659,-2.1167 -42.1213,-0.1796 -87.1258,-0.8796 0.4772,2.4493 -107.3032,0.1085 -7.0655,-0.165 -5.7397,0.217 -83.4449,0.211 -34.5046,-0.3041 -34.1377,0.2184 -75.4788,-0.2977 -0.0969,-2.7777 1.5131,-3.7633 0.8409,-2.2331 4.995,-0.0397 5.7168,1.7735 2.6751,1.0918 2.3632,-1.4027 0.4655,-3.0607 0.2222,-2.3373 2.3878,-6.1643 0.749,-4.0881 2.7668,-3.3086 2.8457,-1.2373 5.5057,3.2015 3.0961,0.1193 3.2007,-2.6291 0.6979,-4.0014 -4.225,-1.1853 -2.4956,-2.2708 -1.0688,-2.4432 -0.3244,-3.3214 3.2499,0.7213 1.2971,-3.4638 2.3415,0.3531 -0.8165,-3.6064 -3.0662,-4.1786 -3.0571,-1.1472 -3.9397,0.6915 -3.0447,-2.0331 -1.274,-2.3736 0.4586,-4.2542 2.3675,-1.4203 3.3332,0.3532 2.1616,-0.3749 1.5313,-4.1907 -0.5718,-3.5908 2.22,-2.8512 3.5989,-5.3231 -2.1018,-1.3212 -2.8186,-2.1045 -4.0633,-2.4252 -2.4185,1.6215 0.1138,3.5477 1.3129,2.1607 -5.0664,0.38 -2.146,-2.0649 1.4118,-4.915 0.2799,-2.3295 6.5201,-3.9676 0.938,-3.3957 2.6241,-3.5024 3.2831,-0.4395 2.2715,1.2879 1.139,2.2906 -1.1265,4.2174 0.4251,3.1038 0.3028,3.3208 2.5261,3.5223 2.1031,-1.4511 -2.5086,-1.4313 2.3311,-3.4334 1.9152,-2.3353 0.7281,-2.9118 0.9559,-3.1808 -2.1404,-3.0685 -1.5928,-2.554 -0.8351,-2.3758 -0.3135,-2.1593 1.3945,-4.3838 0.3975,-2.1916 2.1779,-1.5021 3.3679,-0.845 2.7043,0.0589 5.0522,3.6006 0.1929,2.3111 1.5938,2.0021 2.3729,0.3067 2.3544,0.9225 2.5465,-4.0127 -0.8224,-2.6091 -3.266,-0.8055 -2.1742,-1.0682 -2.0764,-3.9027 -0.4983,-2.3561 1.7776,-2.4226 2.3405,-1.3878 2.1361,-0.8632 3.2639,-0.5623 3.6081,-2.1696 3.4282,-1.6102 0.9737,-4.599 -1.1183,-2.1517 -3.1674,0.43 -1.2815,2.1796 -3.181,0.8122 -3.0525,-0.849 -2.4122,-2.0588 -2.1063,-3.3046 -1.1731,-4.0826 -0.2639,-4.0992 1.4179,-2.8969 5.1379,-2.8716 2.1008,-1.2918 2.9998,1.8744 1.9288,2.3815 4.8354,-3.453 4.3273,-0.2705 2.1025,-1.7772 1.8242,-3.3175 0.1201,-2.0076 2.497,-2.468 2.591,-0.8334 3.6491,0.7375 3.212,-0.6849 3.2054,-2.0474 0.5268,-2.0364 -4.6691,-3.5018 -3.0196,-0.9532 -2.721,-1.1576 -1.5272,-2.2898 0.802,-3.3127 4.3083,-3.9504 4.5613,0.0802 4.4171,1.8383 2.1514,2.4862 3.9874,-1.2811 0.9984,-2.6687 -1.3685,-3.6099 -5.5688,-4.9598 -2.1341,-1.2543 -2.4221,-1.7729 -0.7587,-4.5337 -2.2957,-2.8916 4.3126,-0.0737 2.3893,-3.8587 1.7293,-10.2424 0.5151,-2.4307 2.0148,-2.2066 3.8864,-1.545 2.4256,-0.6389 4.5831,-2.6999 1.4619,-4.2725 -0.4558,-2.6327 -3.0636,-4.0548 -3.9414,-2.5643 -2.964,-2.4858 -4.0669,-2.842 -3.3179,-2.9465 0.1828,-3.9069 2.0339,0.2142 5.5564,-0.2342 6.8201,2.257 3.9262,-0.0421 4.1406,-2.2577 2.8785,0.6768 1.5188,-4.5565 -3.0923,-1.4248 -3.9895,-2.0881 -5.4934,-4.1047 -1.3906,-2.7505 0.7276,-2.5847 2.5215,-1.3635 3.1167,0.1241 3.494,0.9112 2.5439,0.1852 2.1732,-0.4816 2.1135,-1.8486 0.9597,-2.2325 0.5696,-2.7131 -2.5666,-5.3001 -2.8095,-3.8846 -0.449,-2.9271 3.2755,-3.7698 0.9016,-2.5713 -0.152,-2.3054 -2.2882,-2.5224 8.1458,-1.2371 -1.3633,3.702 0.4597,2.5673 3.0812,1.6616 3.7799,-1.447 3.1141,-3.4028 1.5507,-2.3434 4.8825,-1.0118 9.4068,-1.0572 5.5538,-0.5372 28.8819,0.6783 23.9391,0.2693 42.6869,-0.0474 3.0954,0.3818 3.4242,-0.3881 21.175,0.0768 46.9875,0.4117 35.3723,0.5974 2.0301,-2.3027 0.5054,-2.4182 0.8794,-3.8819 -0.517,-4.1646 -0.6595,-2.1833 -0.9069,-5.9594 -1.7491,-5.4416 -1.4279,-4.0273 -1.0106,-5.3879 9.6824,0.216 19.4942,2.0784 7.2429,0.5571 -0.5962,6.0159 38.2851,-1.0318 30.4577,-0.481 49.693,-0.2427 20.2624,-0.3272 69.4805,-1.7114 4.3576,3.7298 2.1155,-0.8969 7.1498,-2.8549 28.9919,0.7542 20.8068,1.7896 21.1619,1.1565 9.1088,0.7588 31.2943,1.5717 5.0304,-0.0747 20.3675,0.8381 29.3323,0.6557 27.3374,-1.5991 5.5591,-0.2935 9.9224,-0.3751 20.0906,0.5917 15.3077,0.7768 30.0597,2.8224 35.9602,1.0972 13.4818,0.6518 16.534,0.0391 28.2957,0.8294 42.8329,0.3363 36.6438,1.2446 16.2043,0.2571 1.2851,-2.0352 6.1532,-1.4075 3.8811,0.3996 10.7338,0.1176 46.2563,-0.1585 2.5058,0.8498 2.0053,0.0118 96.5015,0.0362 29.0526,-0.4302 3.4059,0.265 35.0945,-0.2164 z"
         id="path4339"
         style="fill:#fefee9;stroke:#000000;stroke-width:2;stroke-miterlimit:10;stroke-dasharray:none;stroke-opacity:1" />
    </clipPath>
    <clipPath
       clipPathUnits="userSpaceOnUse"
       id="clipPath3241">
      <path
         transform="matrix(0.3715679,0,0,0.764403,2193.8787,231.14963)"
         clip-path="url(#clipPath1)"
         d="m 56.6199,315.8858 z m 1302.6654,-255.7256 52.669,0.2691 1.8956,-4.3476 30.6105,0.7577 14.8418,0.0911 -5.4912,5.1359 0.5815,2.7509 -2.1742,0.6586 -0.2497,2.5171 -0.9824,2.2301 -1.8291,2.6851 1.7465,4.4741 0.085,2.406 0.2465,3.1793 -0.033,2.021 -2.2146,2.0622 -0.6931,2.3957 -0.146,2.03 -0.7281,2.2846 -2.424,2.148 -1.2749,2.2453 2.1183,2.3859 -0.9957,2.3066 1.4079,2.1094 0.6049,2.0445 0.8233,2.1286 2.0054,1.2381 -2.1971,1.0659 -2.083,-1.0319 -2.3965,0.7507 -2.5529,-0.5401 -2.0984,-0.6847 -2.5963,-0.9055 -0.6488,-2.1932 -2.4077,1.0474 -4.12,1.3351 -3.262,2.1355 -2.0494,1.4258 -2.2369,3.0354 -2.5592,1.344 -2.2364,1.0217 -5.0705,9.0798 -3.4951,5.5207 -10.9681,19.3487 -2.8518,0.9488 -2.8683,2.4307 -3.033,1.3045 -3.0992,0.1583 -2.7529,0.2175 -2.2583,0.1188 -1.4881,-3.0747 -0.4737,-3.2882 -1.1704,-2.6284 -2.0439,0.5336 -2.72,0.9092 -2.5879,-1.3238 -3.5116,-2.0155 -2.54,2.8805 -2.026,1.4673 -2.1264,0.2176 -2.0277,1.7983 -2.2417,-0.3755 -3.8078,-0.4347 -2.4233,1.9959 -2.9505,1.1662 -2.209,-0.3953 -2.0962,1.5934 -2.2062,0.6595 -2.3736,1.7193 -2.39,1.8378 -9.2803,15.7898 -2.5247,1.8835 -4.0926,3.1657 -2.0382,1.3663 -2.3587,0.5429 -2.4537,0.89 -2.5403,2.7851 -2.851,-0.8857 -2.7703,-1.5808 -2.602,0.0713 -0.022,-2.6919 0.1567,-2.4756 -1.2229,-2.2402 1.0055,-2.3321 2.8351,-3.2012 -2.489,-1.8774 -1.8298,-2.6084 -2.4397,-1.9762 -2.9836,1.2648 -2.7362,0.9683 -2.0604,0.8893 -2.9011,2.4507 -2.9669,1.423 -1.6816,2.0946 -2.2746,0.6324 -2.1924,1.7588 -3.3625,1.1068 -2.1658,2.3078 0.024,2.1798 1.2869,2.1507 -1.6012,2.9146 -2.1373,1.5826 -0.3852,2.7718 -2.0373,0.8843 -2.2757,-1.4382 -2.0317,-1.7369 -3.2085,-1.1282 -2.2146,-1.0411 -2.4681,0.8616 -2.0738,2.0997 -0.063,2.1535 -2.9337,-0.3921 1.3516,2.3807 0.5404,2.308 1.2046,2.3948 -0.4042,2.4856 -1.1811,2.3276 -1.5748,2.485 0.6605,2.8501 -2.9212,0.982 -0.3234,2.1886 -2.074,1.1197 -1.6359,3.125 -0.5236,2.5741 -3.6808,2.5778 -2.8381,0.864 -2.4755,-1.6458 -3.2972,-1.0748 -2.7145,-0.4235 -3.2216,0.2446 -2.1401,0.4972 -2.0891,1.993 -2.079,0.9478 -2.8378,0.5573 -2.2104,0.4259 -2.9821,0.2067 -0.9167,2.0303 -2.0983,2.1155 -1.3492,2.7712 -2.074,0.8688 -2.676,0.2094 -4.3134,-0.4596 -2.4429,2.3291 0.06,2.6641 -0.6651,2.2365 -2.0138,1.7193 -2.932,1.3768 -0.7435,2.488 -2.4628,1.1598 -2.0578,-1.3369 -2.2853,-0.5249 -2.7354,1.1093 -1.1045,2.2447 -1.9959,2.0345 -3.0252,0.913 -1.3028,2.147 -3.0254,1.6017 -2.8546,0.9236 -2.226,-0.3679 -1.6351,2.7188 -2.5781,1.5298 -1.1846,2.1882 -1.1023,2.1339 -2.1592,1.0776 -3.1696,0.0216 -2.7371,-0.3552 -2.9667,0.0637 -2.2951,-0.3255 -2.6224,0.6539 -2.3896,-2.3839 -2.0426,-0.9296 -2.2669,1.4569 -2.3968,0.9847 -3.1864,-0.5697 -2.7331,0.1986 -2.5869,0.2338 -3.0349,-0.1467 -2.6803,1.316 -2.0126,-0.7077 -2.0443,1.1081 -2.4463,-0.5959 -2.838,2.4655 -2.3262,0.9994 -2.3854,1.7618 -2.7819,2.4872 -3.7767,0.9031 -3.3295,-0.2189 -2.2849,0.6294 -1.5678,2.785 -1.5582,2.3839 -1.689,2.9639 -2.0915,0.3225 -2.0692,0.5701 -2.2483,2.1205 -2.0537,0.4429 -1.5404,2.1979 -2.5535,1.2734 -1.6954,2.0284 -2.715,3.7006 -0.6759,2.4112 1.2528,3.0433 0.4131,2.3552 -1.8936,2.9568 -2.3324,1.2956 -0.254,2.0092 0.5719,2.5091 -0.511,2.0355 1.533,2.2726 0.445,2.075 -2.0606,1.4031 -1.5659,2.4902 -5.8692,2.9517 -2.7941,2.7542 -2.645,-0.3502 -2.0935,0.494 -2.1263,0.0595 -3.1651,0.0593 -3.2308,1.0278 -2.4067,-0.8102 -1.5989,-2.154 -1.9452,-2.1144 -2.1759,-0.2964 -2.4562,2.9248 -2.4725,1.3637 -2.9177,2.2529 -2.1587,2.0525 -1.0233,7.667 -2.017,15.6973 -2.4575,23.2704 -22.4406,0.0624 -58.1357,0.1435 -13.3214,-0.1733 -56.7243,0.4761 -23.7147,0.5531 -14.3738,0.0124 -58.8973,-1.0195 -90.8186,-0.7134 -15.3504,0.2492 -33.2058,-0.3674 -31.7445,0.0755 -91.7659,-2.1167 -42.1213,-0.1796 -87.1258,-0.8796 0.4772,2.4493 -107.3032,0.1085 -7.0655,-0.165 -5.7397,0.217 -83.4449,0.211 -34.5046,-0.3041 -34.1377,0.2184 -75.4788,-0.2977 -0.0969,-2.7777 1.5131,-3.7633 0.8409,-2.2331 4.995,-0.0397 5.7168,1.7735 2.6751,1.0918 2.3632,-1.4027 0.4655,-3.0607 0.2222,-2.3373 2.3878,-6.1643 0.749,-4.0881 2.7668,-3.3086 2.8457,-1.2373 5.5057,3.2015 3.0961,0.1193 3.2007,-2.6291 0.6979,-4.0014 -4.225,-1.1853 -2.4956,-2.2708 -1.0688,-2.4432 -0.3244,-3.3214 3.2499,0.7213 1.2971,-3.4638 2.3415,0.3531 -0.8165,-3.6064 -3.0662,-4.1786 -3.0571,-1.1472 -3.9397,0.6915 -3.0447,-2.0331 -1.274,-2.3736 0.4586,-4.2542 2.3675,-1.4203 3.3332,0.3532 2.1616,-0.3749 1.5313,-4.1907 -0.5718,-3.5908 2.22,-2.8512 3.5989,-5.3231 -2.1018,-1.3212 -2.8186,-2.1045 -4.0633,-2.4252 -2.4185,1.6215 0.1138,3.5477 1.3129,2.1607 -5.0664,0.38 -2.146,-2.0649 1.4118,-4.915 0.2799,-2.3295 6.5201,-3.9676 0.938,-3.3957 2.6241,-3.5024 3.2831,-0.4395 2.2715,1.2879 1.139,2.2906 -1.1265,4.2174 0.4251,3.1038 0.3028,3.3208 2.5261,3.5223 2.1031,-1.4511 -2.5086,-1.4313 2.3311,-3.4334 1.9152,-2.3353 0.7281,-2.9118 0.9559,-3.1808 -2.1404,-3.0685 -1.5928,-2.554 -0.8351,-2.3758 -0.3135,-2.1593 1.3945,-4.3838 0.3975,-2.1916 2.1779,-1.5021 3.3679,-0.845 2.7043,0.0589 5.0522,3.6006 0.1929,2.3111 1.5938,2.0021 2.3729,0.3067 2.3544,0.9225 2.5465,-4.0127 -0.8224,-2.6091 -3.266,-0.8055 -2.1742,-1.0682 -2.0764,-3.9027 -0.4983,-2.3561 1.7776,-2.4226 2.3405,-1.3878 2.1361,-0.8632 3.2639,-0.5623 3.6081,-2.1696 3.4282,-1.6102 0.9737,-4.599 -1.1183,-2.1517 -3.1674,0.43 -1.2815,2.1796 -3.181,0.8122 -3.0525,-0.849 -2.4122,-2.0588 -2.1063,-3.3046 -1.1731,-4.0826 -0.2639,-4.0992 1.4179,-2.8969 5.1379,-2.8716 2.1008,-1.2918 2.9998,1.8744 1.9288,2.3815 4.8354,-3.453 4.3273,-0.2705 2.1025,-1.7772 1.8242,-3.3175 0.1201,-2.0076 2.497,-2.468 2.591,-0.8334 3.6491,0.7375 3.212,-0.6849 3.2054,-2.0474 0.5268,-2.0364 -4.6691,-3.5018 -3.0196,-0.9532 -2.721,-1.1576 -1.5272,-2.2898 0.802,-3.3127 4.3083,-3.9504 4.5613,0.0802 4.4171,1.8383 2.1514,2.4862 3.9874,-1.2811 0.9984,-2.6687 -1.3685,-3.6099 -5.5688,-4.9598 -2.1341,-1.2543 -2.4221,-1.7729 -0.7587,-4.5337 -2.2957,-2.8916 4.3126,-0.0737 2.3893,-3.8587 1.7293,-10.2424 0.5151,-2.4307 2.0148,-2.2066 3.8864,-1.545 2.4256,-0.6389 4.5831,-2.6999 1.4619,-4.2725 -0.4558,-2.6327 -3.0636,-4.0548 -3.9414,-2.5643 -2.964,-2.4858 -4.0669,-2.842 -3.3179,-2.9465 0.1828,-3.9069 2.0339,0.2142 5.5564,-0.2342 6.8201,2.257 3.9262,-0.0421 4.1406,-2.2577 2.8785,0.6768 1.5188,-4.5565 -3.0923,-1.4248 -3.9895,-2.0881 -5.4934,-4.1047 -1.3906,-2.7505 0.7276,-2.5847 2.5215,-1.3635 3.1167,0.1241 3.494,0.9112 2.5439,0.1852 2.1732,-0.4816 2.1135,-1.8486 0.9597,-2.2325 0.5696,-2.7131 -2.5666,-5.3001 -2.8095,-3.8846 -0.449,-2.9271 3.2755,-3.7698 0.9016,-2.5713 -0.152,-2.3054 -2.2882,-2.5224 8.1458,-1.2371 -1.3633,3.702 0.4597,2.5673 3.0812,1.6616 3.7799,-1.447 3.1141,-3.4028 1.5507,-2.3434 4.8825,-1.0118 9.4068,-1.0572 5.5538,-0.5372 28.8819,0.6783 23.9391,0.2693 42.6869,-0.0474 3.0954,0.3818 3.4242,-0.3881 21.175,0.0768 46.9875,0.4117 35.3723,0.5974 2.0301,-2.3027 0.5054,-2.4182 0.8794,-3.8819 -0.517,-4.1646 -0.6595,-2.1833 -0.9069,-5.9594 -1.7491,-5.4416 -1.4279,-4.0273 -1.0106,-5.3879 9.6824,0.216 19.4942,2.0784 7.2429,0.5571 -0.5962,6.0159 38.2851,-1.0318 30.4577,-0.481 49.693,-0.2427 20.2624,-0.3272 69.4805,-1.7114 4.3576,3.7298 2.1155,-0.8969 7.1498,-2.8549 28.9919,0.7542 20.8068,1.7896 21.1619,1.1565 9.1088,0.7588 31.2943,1.5717 5.0304,-0.0747 20.3675,0.8381 29.3323,0.6557 27.3374,-1.5991 5.5591,-0.2935 9.9224,-0.3751 20.0906,0.5917 15.3077,0.7768 30.0597,2.8224 35.9602,1.0972 13.4818,0.6518 16.534,0.0391 28.2957,0.8294 42.8329,0.3363 36.6438,1.2446 16.2043,0.2571 1.2851,-2.0352 6.1532,-1.4075 3.8811,0.3996 10.7338,0.1176 46.2563,-0.1585 2.5058,0.8498 2.0053,0.0118 96.5015,0.0362 29.0526,-0.4302 3.4059,0.265 35.0945,-0.2164 z"
         id="path3243"
         style="fill:#e72121;fill-opacity:1;stroke:#000000;stroke-width:2;stroke-miterlimit:10;stroke-dasharray:none;stroke-opacity:1" />
    </clipPath>
    <clipPath
       clipPathUnits="userSpaceOnUse"
       id="clipPath1885">
      <path
         style="fill:#cc0001;fill-opacity:1;stroke:none;stroke-width:1.4;stroke-miterlimit:10;stroke-dasharray:none;stroke-opacity:1"
         id="path1887"
         d="m -75.281419,97.475052 z m 341.047349,-66.950837 13.78912,0.07045 0.4963,-1.138233 8.01404,0.198371 3.8857,0.02385 -1.43762,1.344617 0.15221,0.720205 -0.56921,0.172427 -0.0654,0.658995 -0.2572,0.583857 -0.47885,0.702978 0.45724,1.171353 0.0221,0.629908 0.0645,0.832364 -0.009,0.529113 -0.57979,0.539899 -0.18146,0.627212 -0.0382,0.531469 -0.19062,0.598124 -0.63463,0.562363 -0.33379,0.587836 0.55459,0.624646 -0.26069,0.603885 0.36862,0.552256 0.15837,0.535265 0.21554,0.557283 0.52503,0.324144 -0.57521,0.27906 -0.54536,-0.270159 -0.62741,0.196539 -0.66836,-0.141402 -0.5494,-0.17926 -0.67971,-0.237066 -0.16987,-0.574196 -0.63037,0.274217 -1.07862,0.349539 -0.85401,0.55909 -0.53658,0.373285 -0.58563,0.794689 -0.67002,0.351869 -0.5855,0.267489 -1.32748,2.377158 -0.91504,1.44536 -2.87155,5.065631 -0.7466,0.248403 -0.75096,0.636375 -0.79405,0.341528 -0.8114,0.04144 -0.72072,0.05694 -0.59124,0.0311 -0.38962,-0.804979 -0.12399,-0.860875 -0.30644,-0.688134 -0.5351,0.1397 -0.71213,0.238036 -0.67752,-0.346581 -0.91936,-0.527673 -0.665,0.754137 -0.53041,0.384149 -0.55671,0.05697 -0.53086,0.470809 -0.58688,-0.09831 -0.99693,-0.113808 -0.63443,0.522542 -0.77247,0.305319 -0.57832,-0.103492 -0.54882,0.417164 -0.57759,0.172662 -0.62141,0.450125 -0.62574,0.481149 -2.42965,4.133888 -0.66098,0.493114 -1.07148,0.828803 -0.53362,0.357705 -0.6175,0.142137 -0.64242,0.233008 -0.66505,0.729159 -0.74644,-0.231883 -0.72527,-0.413863 -0.68122,0.01866 -0.006,-0.704758 0.041,-0.648131 -0.32017,-0.586499 0.26325,-0.610561 0.74224,-0.838099 -0.65166,-0.491518 -0.47904,-0.682899 -0.63873,-0.517383 -0.78113,0.331135 -0.71636,0.253507 -0.53943,0.232826 -0.75951,0.641612 -0.77677,0.372551 -0.44025,0.548381 -0.59551,0.165569 -0.57399,0.460466 -0.88034,0.289769 -0.567,0.604197 0.006,0.570688 0.33691,0.56307 -0.41918,0.763064 -0.55957,0.414334 -0.10087,0.72568 -0.53337,0.231514 -0.59579,-0.37653 -0.53192,-0.454733 -0.84,-0.295371 -0.5798,-0.272569 -0.64617,0.225575 -0.54294,0.549715 -0.0165,0.563804 -0.76806,-0.102655 0.35386,0.623284 0.14148,0.604251 0.31537,0.626978 -0.10582,0.650747 -0.30922,0.609381 -0.4123,0.650594 0.17293,0.746176 -0.76479,0.257095 -0.0847,0.572991 -0.54299,0.293145 -0.42829,0.818148 -0.13708,0.673918 -0.96366,0.674889 -0.74304,0.226201 -0.6481,-0.430883 -0.86323,-0.281391 -0.71068,-0.110873 -0.84344,0.06404 -0.5603,0.13017 -0.54694,0.521784 -0.54429,0.248139 -0.74296,0.145908 -0.5787,0.111502 -0.78073,0.05412 -0.24,0.531547 -0.54935,0.553855 -0.35323,0.725519 -0.54299,0.227458 -0.7006,0.05482 -1.12928,-0.120326 -0.63957,0.609775 0.0157,0.697479 -0.17413,0.585534 -0.52722,0.450125 -0.76762,0.360456 -0.19466,0.651376 -0.64477,0.303644 -0.53875,-0.350009 -0.59831,-0.137423 -0.71615,0.290423 -0.28916,0.587679 -0.52254,0.532647 -0.79202,0.23903 -0.34109,0.562102 -0.79207,0.419336 -0.74735,0.241803 -0.58279,-0.09632 -0.42808,0.711802 -0.67496,0.400515 -0.31014,0.572885 -0.28859,0.55867 -0.56529,0.282125 -0.82983,0.0056 -0.71659,-0.09299 -0.77671,0.01667 -0.60087,-0.08522 -0.68656,0.171197 -0.62562,-0.624124 -0.53477,-0.243375 -0.59349,0.381427 -0.6275,0.2578 -0.83422,-0.149152 -0.71555,0.052 -0.67727,0.06121 -0.79455,-0.03841 -0.70173,0.344539 -0.52691,-0.185283 -0.53521,0.290109 -0.64046,-0.156011 -0.74301,0.645486 -0.60902,0.261652 -0.62451,0.461251 -0.72832,0.651168 -0.98877,0.236439 -0.87169,-0.05731 -0.5982,0.164784 -0.41046,0.729134 -0.40795,0.624121 -0.4422,0.77597 -0.54757,0.08443 -0.54173,0.149258 -0.58862,0.555163 -0.53767,0.115952 -0.40329,0.575428 -0.66853,0.333386 -0.44386,0.53105 -0.71081,0.968843 -0.17696,0.631269 0.328,0.796761 0.10815,0.616608 -0.49576,0.77411 -0.61064,0.339197 -0.0665,0.526026 0.14973,0.656901 -0.13378,0.532906 0.40135,0.594984 0.1165,0.54325 -0.53948,0.367344 -0.40996,0.65195 -1.5366,0.772776 -0.73152,0.721075 -0.69248,-0.0917 -0.54809,0.12934 -0.55668,0.0156 -0.82865,0.0155 -0.84585,0.26908 -0.63009,-0.21211 -0.4186,-0.563935 -0.50927,-0.553566 -0.56967,-0.0776 -0.64305,0.765735 -0.64731,0.357026 -0.76388,0.58983 -0.56516,0.53736 -0.26791,2.00728 -0.52807,4.10966 -0.64339,6.09236 -5.87511,0.0164 -15.22035,0.0376 -3.48765,-0.0454 -14.85083,0.12464 -6.20869,0.14481 -3.76316,0.003 -15.41975,-0.26691 -23.776972,-0.18677 -4.018849,0.0652 -8.693519,-0.0962 -8.310943,0.0198 -24.024985,-0.55417 -11.027667,-0.047 -22.8101728,-0.23028 0.1249339,0.64124 -28.0927641,0.0284 -1.849799,-0.0432 -1.502695,0.0568 -21.846487,0.0552 -9.033557,-0.0796 -8.9375,0.0572 -19.760904,-0.0779 -0.02537,-0.72722 0.396141,-0.98526 0.220154,-0.58464 1.307727,-0.0104 1.4967,0.46431 0.700361,0.28584 0.618703,-0.36723 0.121871,-0.80132 0.05817,-0.61192 0.625144,-1.61386 0.196093,-1.07029 0.724369,-0.86622 0.745025,-0.32393 1.441433,0.83817 0.810581,0.0312 0.837967,-0.68831 0.182716,-1.0476 -1.106136,-0.31032 -0.653367,-0.59451 -0.27982,-0.63965 -0.08493,-0.86957 0.850848,0.18885 0.33959,-0.90685 0.613022,0.0924 -0.213766,-0.94418 -0.802753,-1.09399 -0.800372,-0.300348 -1.031442,0.181048 -0.797125,-0.532288 -0.333542,-0.621425 0.120065,-1.113782 0.619829,-0.371845 0.872656,0.09247 0.565922,-0.09815 0.400906,-1.097156 -0.149702,-0.940097 0.581213,-0.746464 0.942218,-1.393627 -0.550266,-0.345902 -0.737931,-0.550972 -1.063802,-0.634936 -0.633181,0.424521 0.0298,0.928813 0.343727,0.56569 -1.326421,0.09948 -0.561838,-0.540605 0.369619,-1.286781 0.07328,-0.609881 1.70701,-1.038748 0.245575,-0.88902 0.687009,-0.916953 0.85954,-0.115064 0.594695,0.33718 0.298199,0.599697 -0.294927,1.104147 0.111295,0.812597 0.07927,0.86941 0.661352,0.922163 0.550607,-0.379909 -0.65677,-0.374725 0.610299,-0.898887 0.501413,-0.611401 0.190622,-0.76233 0.250262,-0.832757 -0.560373,-0.803353 -0.417007,-0.668659 -0.218635,-0.622002 -0.08208,-0.565321 0.36509,-1.147709 0.104068,-0.573776 0.570191,-0.393262 0.88174,-0.221227 0.708006,0.01542 1.322703,0.942665 0.0505,0.605062 0.417268,0.524166 0.621243,0.0803 0.616399,0.241515 0.666692,-1.050553 -0.21531,-0.683082 -0.855063,-0.210887 -0.569221,-0.279662 -0.543617,-1.021753 -0.130458,-0.616846 0.465388,-0.634253 0.61276,-0.363339 0.559247,-0.225992 0.854513,-0.147213 0.944627,-0.568017 0.897528,-0.421562 0.254922,-1.204053 -0.292779,-0.56333 -0.829249,0.112576 -0.335506,0.570637 -0.832809,0.212641 -0.799167,-0.222276 -0.631532,-0.539009 -0.551445,-0.865167 -0.307126,-1.068856 -0.06909,-1.073201 0.371217,-0.758428 1.34514,-0.751806 0.550005,-0.338203 0.785369,0.490732 0.504974,0.623493 1.265943,-0.904021 1.132919,-0.07082 0.55045,-0.465285 0.477589,-0.868545 0.03144,-0.525605 0.653733,-0.64614 0.678343,-0.218191 0.955361,0.193084 0.840925,-0.179312 0.839197,-0.536023 0.13792,-0.533147 -1.222405,-0.916796 -0.790553,-0.249557 -0.712378,-0.303066 -0.399832,-0.599486 0.20997,-0.86729 1.127944,-1.034242 1.194182,0.021 1.156429,0.481279 0.563252,0.650908 1.043931,-0.335403 0.261388,-0.698685 -0.358283,-0.945099 -1.457953,-1.29851 -0.558723,-0.328385 -0.634123,-0.464159 -0.198634,-1.186957 -0.601031,-0.757043 1.129071,-0.0193 0.625536,-1.010235 0.452743,-2.681537 0.134857,-0.636375 0.52749,-0.577704 1.017488,-0.404493 0.63504,-0.167268 1.199889,-0.706854 0.382736,-1.118572 -0.119332,-0.68926 -0.802073,-1.061576 -1.031887,-0.671353 -0.775997,-0.6508 -1.064744,-0.744057 -0.868651,-0.771415 0.04786,-1.022855 0.532489,0.05608 1.454707,-0.06132 1.785552,0.590899 1.027908,-0.01102 1.084039,-0.591083 0.753612,0.177192 0.397635,-1.192925 -0.809587,-0.373024 -1.044481,-0.546679 -1.438213,-1.074641 -0.364069,-0.720101 0.190491,-0.676693 0.660147,-0.356975 0.815975,0.03249 0.914753,0.238559 0.666014,0.04849 0.56896,-0.126086 0.553328,-0.483977 0.251257,-0.584485 0.149126,-0.710309 -0.671955,-1.387606 -0.735549,-1.017016 -0.11755,-0.766337 0.85755,-0.986961 0.236044,-0.673185 -0.03979,-0.603571 -0.599066,-0.660382 2.13263,-0.323882 -0.356923,0.969211 0.120355,0.672137 0.806679,0.43502 0.989605,-0.378836 0.815294,-0.890878 0.405985,-0.613519 1.278274,-0.264897 2.462771,-0.276782 1.454024,-0.140643 7.561494,0.177584 6.267433,0.0705 11.175742,-0.01241 0.810398,0.09996 0.896482,-0.101607 5.5437711,0.02011 12.3016699,0.107786 9.260729,0.156403 0.531493,-0.602863 0.132318,-0.633103 0.230235,-1.01631 -0.135355,-1.090322 -0.172663,-0.571605 -0.237433,-1.560214 -0.457926,-1.424651 -0.373836,-1.054376 -0.264583,-1.410592 2.534924,0.05655 5.103724,0.544141 1.896245,0.145852 -0.156088,1.575007 10.023319,-0.270133 7.974047,-0.125929 13.009993,-0.06354 5.304844,-0.08566 18.190505,-0.448057 1.140851,0.976489 0.553855,-0.234815 1.871869,-0.747434 7.590294,0.197455 5.447371,0.468531 5.54034,0.30278 2.38475,0.198659 8.19308,0.411483 1.31699,-0.01956 5.33236,0.21942 7.67941,0.171668 7.15714,-0.418656 1.45541,-0.07684 2.59776,-0.0982 5.25986,0.154912 4.00767,0.203372 7.86985,0.738925 9.41464,0.287255 3.52964,0.170646 4.32872,0.01024 7.40802,0.217143 11.21397,0.08805 9.59362,0.325845 4.2424,0.06731 0.33645,-0.532831 1.61095,-0.368494 1.0161,0.104619 2.81019,0.03079 12.11024,-0.0415 0.65603,0.222484 0.52501,0.0031 25.2648,0.0095 7.60621,-0.112629 0.89169,0.06938 9.18799,-0.05665 z"
         clip-path="none" />
    </clipPath>
  </defs>
  <g
     style="fill:#e0e0e0;stroke:#e0e0e0"
     id="g11"
     text-rendering="geometricPrecision"
     transform="translate(-302.21751,-150.97646)">
    <g
       id="g1747"
       transform="matrix(3.1186896,0,0,3.1186896,557.64246,69.1007)"
       style="opacity:1;stroke:none;stroke-width:0.668016"
       clip-path="url(#clipPath1885)">
      <rect
         width="385.65887"
         height="144"
         fill="#cc0000"
         id="rect1696"
         x="-163.65886"
         y="0"
         style="stroke:none;stroke-width:0.429659" />
      <rect
         x="222"
         width="3"
         height="144"
         fill="#ffffff"
         id="rect1698"
         y="0"
         style="stroke:none;stroke-width:0.429659" />
      <rect
         x="224.99997"
         width="86.466751"
         height="144"
         fill="#002d65"
         id="rect1700"
         y="0"
         style="stroke:none;stroke-width:0.429658" />
      <g
         transform="translate(111,72)"
         id="g1723"
         style="stroke:none;stroke-width:0.668016">
        <circle
           r="39"
           fill="#ffffff"
           id="circle1702"
           cx="0"
           cy="0"
           style="stroke:none;stroke-width:0.429659" />
        <circle
           r="36"
           fill="#002d65"
           id="circle1704"
           cx="0"
           cy="0"
           style="stroke:none;stroke-width:0.429659" />
        <g
           id="star"
           transform="rotate(18,-58.402202,-9.25)"
           fill="#ffffff"
           style="stroke:none;stroke-width:0.429659">
          <g
             id="c"
             style="stroke:none;stroke-width:0.668016">
            <path
               id="t"
               d="M 0,-17 V 0 h 8.5"
               transform="rotate(18,0,-17)"
               style="stroke:none;stroke-width:0.668016" />
            <use
               xlink:href="#t"
               transform="scale(-1,1)"
               id="use1707"
               x="0"
               y="0"
               width="100%"
               height="100%"
               style="stroke:none;stroke-width:0.668016" />
          </g>
          <use
             xlink:href="#c"
             transform="rotate(72)"
             id="use1710"
             x="0"
             y="0"
             width="100%"
             height="100%"
             style="stroke:none;stroke-width:0.668016" />
          <use
             xlink:href="#c"
             transform="rotate(144)"
             id="use1712"
             x="0"
             y="0"
             width="100%"
             height="100%"
             style="stroke:none;stroke-width:0.668016" />
          <use
             xlink:href="#c"
             transform="rotate(-144)"
             id="use1714"
             x="0"
             y="0"
             width="100%"
             height="100%"
             style="stroke:none;stroke-width:0.668016" />
          <use
             xlink:href="#c"
             transform="rotate(-72)"
             id="use1716"
             x="0"
             y="0"
             width="100%"
             height="100%"
             style="stroke:none;stroke-width:0.668016" />
        </g>
        <use
           xlink:href="#star"
           transform="rotate(120)"
           id="use1719"
           x="0"
           y="0"
           width="100%"
           height="100%"
           style="stroke:none;stroke-width:0.668016" />
        <use
           xlink:href="#star"
           transform="rotate(-120)"
           id="use1721"
           x="0"
           y="0"
           width="100%"
           height="100%"
           style="stroke:none;stroke-width:0.668016" />
      </g>
    </g>
  </g>
</svg>
